#define mred_width 16
#define mred_height 16
static char mred_bits[] = {
 0x66,0x66,0xff,0xff,0xff,0xff,0xfe,0x7f,0xfe,0x7f,0xff,0xff,0xff,0xff,0xfe,
 0x7f,0xfe,0x7f,0xff,0xff,0xff,0xff,0xfe,0x7f,0xfe,0x7f,0xff,0xff,0xff,0xff,
 0x66,0x66};
