<?xml version="1.0" encoding="UTF-8" standalone="no"?>
<!-- Created with Inkscape (http://www.inkscape.org/) -->

<svg
   xmlns:dc="http://purl.org/dc/elements/1.1/"
   xmlns:cc="http://creativecommons.org/ns#"
   xmlns:rdf="http://www.w3.org/1999/02/22-rdf-syntax-ns#"
   xmlns:svg="http://www.w3.org/2000/svg"
   xmlns="http://www.w3.org/2000/svg"
   xmlns:xlink="http://www.w3.org/1999/xlink"
   xmlns:sodipodi="http://sodipodi.sourceforge.net/DTD/sodipodi-0.dtd"
   xmlns:inkscape="http://www.inkscape.org/namespaces/inkscape"
   width="32"
   height="32"
   id="svg3440"
   sodipodi:version="0.32"
   inkscape:version="0.48.1 r9760"
   sodipodi:docname="earth-shiny.svg"
   version="1.1"
   inkscape:export-filename="/home/neil/plt/collects/icons/private/svg/logo/planet-logo-shiny.png"
   inkscape:export-xdpi="3.48"
   inkscape:export-ydpi="3.48">
  <defs
     id="defs3">
    <linearGradient
       id="linearGradient3845">
      <stop
         id="stop3847"
         offset="0"
         style="stop-color:#ffffff;stop-opacity:1;" />
      <stop
         id="stop3849"
         offset="1"
         style="stop-color:#ffffff;stop-opacity:0;" />
    </linearGradient>
    <linearGradient
       id="linearGradient7778">
      <stop
         id="stop3987"
         offset="0"
         style="stop-color:#02ffe1;stop-opacity:1;" />
      <stop
         id="stop3989"
         offset="1"
         style="stop-color:#01a5ff;stop-opacity:0;" />
    </linearGradient>
    <linearGradient
       id="linearGradient4337">
      <stop
         style="stop-color:#ffffff;stop-opacity:1;"
         offset="0"
         id="stop4339" />
      <stop
         id="stop4345"
         offset="0.39246315"
         style="stop-color:#e2f4fc;stop-opacity:1;" />
      <stop
         style="stop-color:#999999;stop-opacity:1;"
         offset="1"
         id="stop4341" />
    </linearGradient>
    <linearGradient
       id="linearGradient3886">
      <stop
         style="stop-color:#ffffff;stop-opacity:0.78431374;"
         offset="0"
         id="stop3888" />
      <stop
         style="stop-color:#ffffff;stop-opacity:0;"
         offset="1"
         id="stop3890" />
    </linearGradient>
    <linearGradient
       id="linearGradient7777">
      <stop
         style="stop-color:#203e60;stop-opacity:1;"
         offset="0"
         id="stop4346" />
      <stop
         style="stop-color:#0156ff;stop-opacity:1;"
         offset="1"
         id="stop3966" />
    </linearGradient>
    <linearGradient
       inkscape:collect="always"
       xlink:href="#linearGradient7777"
       id="linearGradient3872"
       x1="16.666666"
       y1="44.037033"
       x2="15.933329"
       y2="3.9810138"
       gradientUnits="userSpaceOnUse"
       gradientTransform="matrix(0.68296785,0,0,0.6784254,0.3280314,15.750998)" />
    <linearGradient
       inkscape:collect="always"
       xlink:href="#linearGradient7777"
       id="linearGradient3996"
       x1="203.58749"
       y1="-93.419365"
       x2="206"
       y2="55"
       gradientUnits="userSpaceOnUse"
       gradientTransform="matrix(0.05059021,0,0,0.05025373,-0.5952399,46.90831)" />
    <radialGradient
       inkscape:collect="always"
       xlink:href="#linearGradient7778"
       id="radialGradient3982"
       gradientUnits="userSpaceOnUse"
       gradientTransform="matrix(1.0570877,-0.00634896,0.00594164,0.98926863,-2.1815356,0.47375939)"
       cx="23.594048"
       cy="33.843315"
       fx="23.594048"
       fy="33.843315"
       r="17.5" />
    <radialGradient
       r="17.5"
       fy="11.579434"
       fx="22.576754"
       cy="11.579434"
       cx="22.576754"
       gradientTransform="translate(4.123843e-6,-6.9188543e-7)"
       gradientUnits="userSpaceOnUse"
       id="radialGradient3993-8"
       xlink:href="#linearGradient3886"
       inkscape:collect="always" />
    <filter
       inkscape:collect="always"
       id="filter3840">
      <feGaussianBlur
         inkscape:collect="always"
         stdDeviation="0.92915082"
         id="feGaussianBlur3842" />
    </filter>
    <linearGradient
       inkscape:collect="always"
       xlink:href="#linearGradient3845"
       id="linearGradient3844"
       x1="18.951031"
       y1="42.553921"
       x2="18.074522"
       y2="8.7775793"
       gradientUnits="userSpaceOnUse" />
    <filter
       inkscape:collect="always"
       id="filter3855">
      <feGaussianBlur
         inkscape:collect="always"
         stdDeviation="0.4375"
         id="feGaussianBlur3857" />
    </filter>
    <radialGradient
       inkscape:collect="always"
       xlink:href="#linearGradient4337"
       id="radialGradient3881"
       cx="329.89932"
       cy="-446.46375"
       fx="329.89932"
       fy="-446.46375"
       r="254.65401"
       gradientTransform="matrix(1,0,0,0.93625981,0,-19.437138)"
       gradientUnits="userSpaceOnUse" />
    <linearGradient
       id="linearGradient4337-5">
      <stop
         style="stop-color:#ffffff;stop-opacity:1;"
         offset="0"
         id="stop4339-4" />
      <stop
         id="stop4345-1"
         offset="0.39246318"
         style="stop-color:#e2f4fc;stop-opacity:1;" />
      <stop
         style="stop-color:#999999;stop-opacity:1;"
         offset="1"
         id="stop4341-6" />
    </linearGradient>
    <radialGradient
       r="18.863258"
       fy="13.843499"
       fx="22.714764"
       cy="13.843499"
       cx="22.714764"
       gradientTransform="matrix(1,0,0,0.93625981,0,1.4875392)"
       gradientUnits="userSpaceOnUse"
       id="radialGradient3354"
       xlink:href="#linearGradient4337-5"
       inkscape:collect="always" />
    <radialGradient
       r="18.863258"
       fy="13.843499"
       fx="22.714764"
       cy="13.843499"
       cx="22.714764"
       gradientTransform="matrix(1,0,0,0.93625981,0,1.4875392)"
       gradientUnits="userSpaceOnUse"
       id="radialGradient3356"
       xlink:href="#linearGradient4337-5"
       inkscape:collect="always" />
    <radialGradient
       r="18.863258"
       fy="13.843499"
       fx="22.714764"
       cy="13.843499"
       cx="22.714764"
       gradientTransform="matrix(1,0,0,0.93625981,0,1.4875392)"
       gradientUnits="userSpaceOnUse"
       id="radialGradient3358"
       xlink:href="#linearGradient4337-5"
       inkscape:collect="always" />
    <radialGradient
       r="18.863258"
       fy="13.843499"
       fx="22.714764"
       cy="13.843499"
       cx="22.714764"
       gradientTransform="matrix(1,0,0,0.93625981,0,1.4875392)"
       gradientUnits="userSpaceOnUse"
       id="radialGradient3360"
       xlink:href="#linearGradient4337-5"
       inkscape:collect="always" />
    <radialGradient
       r="18.863258"
       fy="13.843499"
       fx="22.714764"
       cy="13.843499"
       cx="22.714764"
       gradientTransform="matrix(1,0,0,0.93625981,0,1.4875392)"
       gradientUnits="userSpaceOnUse"
       id="radialGradient3362"
       xlink:href="#linearGradient4337-5"
       inkscape:collect="always" />
    <radialGradient
       r="18.863258"
       fy="13.843499"
       fx="22.714764"
       cy="13.843499"
       cx="22.714764"
       gradientTransform="matrix(1,0,0,0.93625981,0,1.4875392)"
       gradientUnits="userSpaceOnUse"
       id="radialGradient3364"
       xlink:href="#linearGradient4337-5"
       inkscape:collect="always" />
    <radialGradient
       r="18.863258"
       fy="13.843499"
       fx="22.714764"
       cy="13.843499"
       cx="22.714764"
       gradientTransform="matrix(1,0,0,0.93625981,0,1.4875392)"
       gradientUnits="userSpaceOnUse"
       id="radialGradient3366"
       xlink:href="#linearGradient4337-5"
       inkscape:collect="always" />
    <radialGradient
       r="18.863258"
       fy="13.843499"
       fx="22.714764"
       cy="13.843499"
       cx="22.714764"
       gradientTransform="matrix(1,0,0,0.93625981,0,1.4875392)"
       gradientUnits="userSpaceOnUse"
       id="radialGradient3368"
       xlink:href="#linearGradient4337-5"
       inkscape:collect="always" />
    <radialGradient
       r="18.863258"
       fy="13.843499"
       fx="22.714764"
       cy="13.843499"
       cx="22.714764"
       gradientTransform="matrix(1,0,0,0.93625981,0,1.4875392)"
       gradientUnits="userSpaceOnUse"
       id="radialGradient3370"
       xlink:href="#linearGradient4337-5"
       inkscape:collect="always" />
    <radialGradient
       r="18.863258"
       fy="13.843499"
       fx="22.714764"
       cy="13.843499"
       cx="22.714764"
       gradientTransform="matrix(1,0,0,0.93625981,0,1.4875392)"
       gradientUnits="userSpaceOnUse"
       id="radialGradient3372"
       xlink:href="#linearGradient4337-5"
       inkscape:collect="always" />
    <radialGradient
       r="18.863258"
       fy="13.843499"
       fx="22.714764"
       cy="13.843499"
       cx="22.714764"
       gradientTransform="matrix(1,0,0,0.93625981,0,1.4875392)"
       gradientUnits="userSpaceOnUse"
       id="radialGradient3374"
       xlink:href="#linearGradient4337-5"
       inkscape:collect="always" />
    <radialGradient
       r="18.863258"
       fy="13.843499"
       fx="22.714764"
       cy="13.843499"
       cx="22.714764"
       gradientTransform="matrix(1,0,0,0.93625981,0,1.4875392)"
       gradientUnits="userSpaceOnUse"
       id="radialGradient3376"
       xlink:href="#linearGradient4337-5"
       inkscape:collect="always" />
    <radialGradient
       r="18.863258"
       fy="13.843499"
       fx="22.714764"
       cy="13.843499"
       cx="22.714764"
       gradientTransform="matrix(1,0,0,0.93625981,0,1.4875392)"
       gradientUnits="userSpaceOnUse"
       id="radialGradient3378"
       xlink:href="#linearGradient4337-5"
       inkscape:collect="always" />
    <radialGradient
       r="18.863258"
       fy="13.843499"
       fx="22.714764"
       cy="13.843499"
       cx="22.714764"
       gradientTransform="matrix(1,0,0,0.93625981,0,1.4875392)"
       gradientUnits="userSpaceOnUse"
       id="radialGradient3380"
       xlink:href="#linearGradient4337-5"
       inkscape:collect="always" />
    <radialGradient
       r="18.863258"
       fy="13.843499"
       fx="22.714764"
       cy="13.843499"
       cx="22.714764"
       gradientTransform="matrix(1,0,0,0.93625981,0,1.4875392)"
       gradientUnits="userSpaceOnUse"
       id="radialGradient3382"
       xlink:href="#linearGradient4337-5"
       inkscape:collect="always" />
    <radialGradient
       r="18.863258"
       fy="13.843499"
       fx="22.714764"
       cy="13.843499"
       cx="22.714764"
       gradientTransform="matrix(1,0,0,0.93625981,0,1.4875392)"
       gradientUnits="userSpaceOnUse"
       id="radialGradient3384"
       xlink:href="#linearGradient4337-5"
       inkscape:collect="always" />
    <radialGradient
       r="18.863258"
       fy="13.843499"
       fx="22.714764"
       cy="13.843499"
       cx="22.714764"
       gradientTransform="matrix(1,0,0,0.93625981,0,1.4875392)"
       gradientUnits="userSpaceOnUse"
       id="radialGradient3386"
       xlink:href="#linearGradient4337-5"
       inkscape:collect="always" />
    <radialGradient
       r="18.863258"
       fy="13.843499"
       fx="22.714764"
       cy="13.843499"
       cx="22.714764"
       gradientTransform="matrix(1,0,0,0.93625981,0,1.4875392)"
       gradientUnits="userSpaceOnUse"
       id="radialGradient3388"
       xlink:href="#linearGradient4337-5"
       inkscape:collect="always" />
    <radialGradient
       r="18.863258"
       fy="13.843499"
       fx="22.714764"
       cy="13.843499"
       cx="22.714764"
       gradientTransform="matrix(1,0,0,0.93625981,0,1.4875392)"
       gradientUnits="userSpaceOnUse"
       id="radialGradient3390"
       xlink:href="#linearGradient4337-5"
       inkscape:collect="always" />
    <radialGradient
       r="18.863258"
       fy="13.843499"
       fx="22.714764"
       cy="13.843499"
       cx="22.714764"
       gradientTransform="matrix(1,0,0,0.93625981,0,1.4875392)"
       gradientUnits="userSpaceOnUse"
       id="radialGradient3392"
       xlink:href="#linearGradient4337-5"
       inkscape:collect="always" />
    <radialGradient
       r="18.863258"
       fy="13.843499"
       fx="22.714764"
       cy="13.843499"
       cx="22.714764"
       gradientTransform="matrix(1,0,0,0.93625981,0,1.4875392)"
       gradientUnits="userSpaceOnUse"
       id="radialGradient3394"
       xlink:href="#linearGradient4337-5"
       inkscape:collect="always" />
    <radialGradient
       r="18.863258"
       fy="13.843499"
       fx="22.714764"
       cy="13.843499"
       cx="22.714764"
       gradientTransform="matrix(1,0,0,0.93625981,0,1.4875392)"
       gradientUnits="userSpaceOnUse"
       id="radialGradient3396"
       xlink:href="#linearGradient4337-5"
       inkscape:collect="always" />
    <radialGradient
       r="18.863258"
       fy="13.843499"
       fx="22.714764"
       cy="13.843499"
       cx="22.714764"
       gradientTransform="matrix(1,0,0,0.93625981,0,1.4875392)"
       gradientUnits="userSpaceOnUse"
       id="radialGradient3398"
       xlink:href="#linearGradient4337-5"
       inkscape:collect="always" />
    <radialGradient
       r="18.863258"
       fy="13.843499"
       fx="22.714764"
       cy="13.843499"
       cx="22.714764"
       gradientTransform="matrix(1,0,0,0.93625981,0,1.4875392)"
       gradientUnits="userSpaceOnUse"
       id="radialGradient3400"
       xlink:href="#linearGradient4337-5"
       inkscape:collect="always" />
    <radialGradient
       r="18.863258"
       fy="13.843499"
       fx="22.714764"
       cy="13.843499"
       cx="22.714764"
       gradientTransform="matrix(1,0,0,0.93625981,0,1.4875392)"
       gradientUnits="userSpaceOnUse"
       id="radialGradient3402"
       xlink:href="#linearGradient4337-5"
       inkscape:collect="always" />
    <radialGradient
       r="18.863258"
       fy="13.843499"
       fx="22.714764"
       cy="13.843499"
       cx="22.714764"
       gradientTransform="matrix(1,0,0,0.93625981,0,1.4875392)"
       gradientUnits="userSpaceOnUse"
       id="radialGradient3404"
       xlink:href="#linearGradient4337-5"
       inkscape:collect="always" />
    <radialGradient
       r="18.863258"
       fy="13.843499"
       fx="22.714764"
       cy="13.843499"
       cx="22.714764"
       gradientTransform="matrix(1,0,0,0.93625981,0,1.4875392)"
       gradientUnits="userSpaceOnUse"
       id="radialGradient3406"
       xlink:href="#linearGradient4337-5"
       inkscape:collect="always" />
    <radialGradient
       r="18.863258"
       fy="13.843499"
       fx="22.714764"
       cy="13.843499"
       cx="22.714764"
       gradientTransform="matrix(1,0,0,0.93625981,0,1.4875392)"
       gradientUnits="userSpaceOnUse"
       id="radialGradient3408"
       xlink:href="#linearGradient4337-5"
       inkscape:collect="always" />
    <radialGradient
       r="18.863258"
       fy="13.843499"
       fx="22.714764"
       cy="13.843499"
       cx="22.714764"
       gradientTransform="matrix(1,0,0,0.93625981,0,1.4875392)"
       gradientUnits="userSpaceOnUse"
       id="radialGradient3410"
       xlink:href="#linearGradient4337-5"
       inkscape:collect="always" />
    <linearGradient
       inkscape:collect="always"
       xlink:href="#linearGradient3845"
       id="linearGradient4323"
       x1="22.824074"
       y1="-0.70126671"
       x2="22.94347"
       y2="17.20809"
       gradientUnits="userSpaceOnUse" />
    <linearGradient
       inkscape:collect="always"
       xlink:href="#linearGradient3845"
       id="linearGradient3846"
       x1="22.608749"
       y1="-0.42546678"
       x2="23.657633"
       y2="41.244556"
       gradientUnits="userSpaceOnUse" />
    <linearGradient
       inkscape:collect="always"
       xlink:href="#linearGradient3845"
       id="linearGradient3849"
       gradientUnits="userSpaceOnUse"
       x1="22.523466"
       y1="-2.7280984"
       x2="22.890089"
       y2="19.923895" />
  </defs>
  <sodipodi:namedview
     id="base"
     pagecolor="#ffffff"
     bordercolor="#666666"
     borderopacity="0.17254902"
     inkscape:pageopacity="0"
     inkscape:pageshadow="2"
     inkscape:zoom="5.6568544"
     inkscape:cx="-30.549427"
     inkscape:cy="-12.303682"
     inkscape:current-layer="layer1"
     showgrid="true"
     inkscape:grid-bbox="true"
     inkscape:document-units="px"
     inkscape:window-width="1870"
     inkscape:window-height="1056"
     inkscape:window-x="50"
     inkscape:window-y="24"
     inkscape:showpageshadow="true"
     inkscape:window-maximized="1"
     borderlayer="false" />
  <metadata
     id="metadata4">
    <rdf:RDF>
      <cc:Work
         rdf:about="">
        <dc:format>image/svg+xml</dc:format>
        <dc:type
           rdf:resource="http://purl.org/dc/dcmitype/StillImage" />
        <dc:title />
        <dc:creator>
          <cc:Agent>
            <dc:title>Jakub Steiner</dc:title>
          </cc:Agent>
        </dc:creator>
        <dc:contributor>
          <cc:Agent>
            <dc:title>Tuomas Kuosmanen</dc:title>
          </cc:Agent>
        </dc:contributor>
        <cc:license
           rdf:resource="http://creativecommons.org/licenses/by-sa/2.0/" />
        <dc:source>http://jimmac.musichall.cz</dc:source>
        <dc:subject>
          <rdf:Bag>
            <rdf:li>internet</rdf:li>
            <rdf:li>tools</rdf:li>
            <rdf:li>applications</rdf:li>
            <rdf:li>category</rdf:li>
          </rdf:Bag>
        </dc:subject>
      </cc:Work>
      <cc:License
         rdf:about="http://creativecommons.org/licenses/by-sa/2.0/">
        <cc:permits
           rdf:resource="http://web.resource.org/cc/Reproduction" />
        <cc:permits
           rdf:resource="http://web.resource.org/cc/Distribution" />
        <cc:requires
           rdf:resource="http://web.resource.org/cc/Notice" />
        <cc:requires
           rdf:resource="http://web.resource.org/cc/Attribution" />
        <cc:permits
           rdf:resource="http://web.resource.org/cc/DerivativeWorks" />
        <cc:requires
           rdf:resource="http://web.resource.org/cc/ShareAlike" />
      </cc:License>
    </rdf:RDF>
  </metadata>
  <g
     id="layer1"
     inkscape:label="Layer 1"
     inkscape:groupmode="layer"
     transform="translate(0,-16)">
    <path
       inkscape:connector-curvature="0"
       id="path3070"
       d="m 29.354162,32.032733 c 0,7.306581 -5.963057,13.229767 -13.31771,13.229767 -7.3553202,0 -13.3180335,-5.923257 -13.3180335,-13.229767 0,-7.306238 5.9627133,-13.228822 13.3180335,-13.228822 7.354653,0 13.31771,5.922584 13.31771,13.228822 l 0,0 z"
       style="fill:#000000;fill-opacity:1;fill-rule:nonzero;stroke:none;filter:url(#filter3840)" />
    <path
       style="fill:url(#linearGradient3872);fill-opacity:1;fill-rule:nonzero;stroke:url(#linearGradient3996);stroke-width:1;stroke-miterlimit:4;stroke-opacity:1;stroke-dasharray:none"
       d="m 29.354162,32.032733 c 0,7.306581 -5.963057,13.229767 -13.31771,13.229767 -7.3553202,0 -13.3180335,-5.923257 -13.3180335,-13.229767 0,-7.306238 5.9627133,-13.228822 13.3180335,-13.228822 7.354653,0 13.31771,5.922584 13.31771,13.228822 l 0,0 z"
       id="path3214"
       inkscape:connector-curvature="0" />
    <path
       sodipodi:type="arc"
       style="fill:url(#radialGradient3993-8);fill-opacity:1;stroke:none"
       id="path3884"
       sodipodi:cx="22.5"
       sodipodi:cy="20.5"
       sodipodi:rx="17.5"
       sodipodi:ry="17.5"
       d="M 40,20.5 C 40,30.164983 32.164983,38 22.5,38 12.835017,38 5,30.164983 5,20.5 5,10.835017 12.835017,3 22.5,3 32.164983,3 40,10.835017 40,20.5 z"
       transform="matrix(0.73285715,0,0,0.73285715,-0.46429,17.07643)" />
    <path
       transform="matrix(0.73285715,0,0,0.73285715,-0.40179,17.07643)"
       d="M 40,20.5 C 40,30.164983 32.164983,38 22.5,38 12.835017,38 5,30.164983 5,20.5 5,10.835017 12.835017,3 22.5,3 32.164983,3 40,10.835017 40,20.5 z"
       sodipodi:ry="17.5"
       sodipodi:rx="17.5"
       sodipodi:cy="20.5"
       sodipodi:cx="22.5"
       id="path3979"
       style="fill:url(#radialGradient3982);fill-opacity:1;stroke:url(#linearGradient3844);stroke-width:1.02339183999999994;stroke-miterlimit:4;stroke-dasharray:none;filter:url(#filter3855)"
       sodipodi:type="arc" />
    <g
       id="g4307"
       style="fill:url(#radialGradient3410);fill-opacity:1"
       transform="matrix(0.67500005,0,0,0.67500005,0.5112832,15.87216)">
      <g
         transform="matrix(0.987914,0,0,0.987891,-1.58612,0.616059)"
         style="fill:url(#radialGradient3356);fill-opacity:1;fill-rule:nonzero;stroke:none"
         id="g4142">
        <path
           sodipodi:nodetypes="ccccccccccccccccccccccccccccccccccccccccccccccccccccccccccccccccccccccccccccccccccccccccccccccccccccccccccccccccccccccccccccccccccccc"
           inkscape:connector-curvature="0"
           style="fill:url(#radialGradient3354);fill-opacity:1"
           id="path4144"
           d="M 43.879656,20.648284 43.5264,21.3316 c -0.334,-0.3936 -0.709,-0.7246 -1.0898,-1.0703 l -0.8359,0.123 -0.7637,-0.8633 0,1.0684 0.6543,0.4951 0.4355,0.4932 0.582,-0.6582 c 0.1465,0.2744 0.291,0.5488 0.4365,0.8232 l 0,0.8223 -0.6553,0.7402 -1.1992,0.8232 -0.9082,0.9063 -0.582,-0.6602 0.291,-0.7402 -0.5811,-0.6582 -0.9814,-2.0977 -0.8359,-0.9453 -0.2188,0.2461 0.3281,1.1934 0.6172,0.6992 c 0.3525,1.0176 0.7012,1.9902 1.1641,2.9629 0.7178,0 1.3945,-0.0762 2.1074,-0.166 l 0,0.5762 -0.8721,2.1392 -0.7998,0.9043 -0.6543,1.4004 c 0,0.7676 0,1.5352 0,2.3027 l 0.2188,0.9063 -0.3633,0.4102 -0.8008,0.4941 -0.8359,0.6992 0.6914,0.7813 -0.9453,0.8242 0.1816,0.5332 -1.418,1.6055 -0.9443,0 -0.7998,0.4941 -0.5098,0 0,-0.6582 -0.2168,-1.3184 c -0.2813,-0.8262 -0.5742,-1.6465 -0.8721,-2.4668 0,-0.6055 0.0361,-1.2051 0.0723,-1.8105 l 0.3643,-0.8223 -0.5098,-0.9883 0.0371,-1.3574 -0.6914,-0.7813 0.3457,-1.1309 -0.5625,-0.6382 -0.9824,0 -0.3271,-0.3701 -0.9814,0.6177 -0.3994,-0.4536 -0.9092,0.7817 c -0.6172,-0.6997 -1.2354,-1.3989 -1.8535,-2.0981 l -0.7266,-1.7285 0.6543,-0.9863 -0.3633,-0.4111 0.7988,-1.8936 c 0.6563,-0.8164 1.3418,-1.5996 2.0352,-2.3857 l 1.2363,-0.3291 1.3809,-0.1641 0.9453,0.2471 1.3447,1.3564 0.4727,-0.5342 0.6533,-0.082 1.2363,0.4111 0.9453,0 0.6543,-0.5762 0.291,-0.4111 -0.6553,-0.4111 -1.0908,-0.082 c -0.3027,-0.4199 -0.584,-0.8613 -0.9434,-1.2344 l -0.3643,0.1641 -0.1455,1.0703 -0.6543,-0.7402 -0.1445,-0.8242 -0.7266,-0.5742 -0.292,0 0.7275,0.8223 -0.291,0.7402 -0.5811,0.1641 0.3633,-0.7402 -0.6553,-0.3281 -0.5801,-0.6582 -1.0918,0.2461 -0.1445,0.3281 -0.6543,0.4121 -0.3633,0.9053 -0.9082,0.4521 -0.4004,-0.4521 -0.4355,0 0,-1.4814 0.9453,-0.4941 0.7266,0 -0.1465,-0.5752 -0.5801,-0.5762 0.9805,-0.2061 0.5449,-0.6162 0.4355,-0.7412 0.8008,0 -0.2188,-0.5752 0.5098,-0.3291 0,0.6582 1.0898,0.2461 1.0898,-0.9043 0.0732,-0.4121 0.9443,-0.6577 c -0.3418,0.0425 -0.6836,0.0737 -1.0176,0.1646 l 0,-0.7411 0.3633,-0.8228 -0.3633,0 -0.7984,0.7402 -0.2188,0.4116 0.2188,0.5767 -0.3643,0.9863 -0.5811,-0.3291 -0.5078,-0.5752 -0.8008,0.5752 -0.291,-1.3159 1.3809,-0.9048 0,-0.4941 0.873,-0.5757 1.3809,-0.3296 0.9453,0.3296 1.7441,0.3291 -0.4355,0.4932 -0.9453,0 0.9453,0.9873 0.7266,-0.8223 0.157078,-0.282273 c 3.129549,2.868759 5.87898,6.664564 6.592678,11.694257 z" />
      </g>
      <g
         transform="matrix(0.987914,0,0,0.987891,-1.58612,0.616059)"
         style="fill:url(#radialGradient3360);fill-opacity:1;fill-rule:nonzero;stroke:none"
         id="g4150">
        <path
           inkscape:connector-curvature="0"
           style="fill:url(#radialGradient3358);fill-opacity:1"
           id="path4152"
           d="m 26.0703,9.2363 -0.0732,0.4932 0.5098,0.3291 0.8711,-0.5757 -0.4355,-0.4937 -0.582,0.3296 -0.29,-0.0825" />
      </g>
      <g
         transform="matrix(0.987914,0,0,0.987891,-1.58612,0.616059)"
         style="fill:url(#radialGradient3364);fill-opacity:1;fill-rule:nonzero;stroke:none"
         id="g4158">
        <path
           inkscape:connector-curvature="0"
           style="fill:url(#radialGradient3362);fill-opacity:1"
           id="path4160"
           d="m 26.8701,5.8633 -1.8906,-0.7407 -2.1797,0.2466 -2.6904,0.7402 -0.5088,0.4941 1.6719,1.1514 0,0.6582 -0.6543,0.6582 0.873,1.729 0.5801,-0.3301 0.7285,-1.1514 c 1.123,-0.3472 2.1299,-0.7407 3.1973,-1.2344 l 0.873,-2.2212" />
      </g>
      <g
         transform="matrix(0.987914,0,0,0.987891,-1.58612,0.616059)"
         style="fill:url(#radialGradient3368);fill-opacity:1;fill-rule:nonzero;stroke:none"
         id="g4166">
        <path
           inkscape:connector-curvature="0"
           style="fill:url(#radialGradient3366);fill-opacity:1"
           id="path4168"
           d="m 28.833,12.7749 -0.291,-0.7412 -0.5098,0.165 0.1465,0.9043 0.6543,-0.3281" />
      </g>
      <g
         transform="matrix(0.987914,0,0,0.987891,-1.58612,0.616059)"
         style="fill:url(#radialGradient3372);fill-opacity:1;fill-rule:nonzero;stroke:none"
         id="g4174">
        <path
           inkscape:connector-curvature="0"
           style="fill:url(#radialGradient3370);fill-opacity:1"
           id="path4176"
           d="m 29.123,12.6089 -0.1455,0.9883 0.7998,-0.165 0.5811,-0.5752 -0.5088,-0.4941 C 29.6787,11.9078 29.4824,11.483 29.2685,11.0465 l -0.4355,0 0,0.4932 0.29,0.3291 0,0.7402" />
      </g>
      <g
         transform="matrix(0.987914,0,0,0.987891,-1.58612,0.616059)"
         style="fill:url(#radialGradient3376);fill-opacity:1;fill-rule:nonzero;stroke:none"
         id="g4182">
        <path
           sodipodi:nodetypes="cccccccccccccccccccccccccccccccccccccccccccccccccccccccccccccccccccccccccccccccccccccccccccc"
           inkscape:connector-curvature="0"
           style="fill:url(#radialGradient3374);fill-opacity:1"
           id="path4184"
           d="m 18.3652,28.2422 -0.582,-1.1523 -1.0903,-0.2466 -0.5815,-1.5625 -1.4536,0.1641 -1.2354,-0.9043 -1.3091,1.1514 0,0.1816 c -0.396,-0.1143 -0.8828,-0.1299 -1.2354,-0.3467 l -0.291,-0.8223 0,-0.9053 -0.8721,0.082 c 0.0728,-0.5762 0.145,-1.1514 0.2183,-1.7275 l -0.5093,0 -0.5083,0.6582 -0.5093,0.2461 -0.7271,-0.4102 -0.0728,-0.9053 0.1455,-0.9873 1.0908,-0.8223 0.8721,0 0.145,-0.4941 1.0903,0.2461 0.7998,0.9883 0.1455,-1.6465 1.3813,-1.1514 0.5088,-1.2344 1.0176,-0.4111 0.5815,-0.8223 1.3081,-0.248 0.6548,-0.9863 c -0.6543,0 -1.3086,0 -1.9629,0 l 1.2358,-0.5762 0.8716,0 1.2363,-0.4121 0.1455,-0.4922 -0.4365,-0.4121 -0.5088,-0.165 0.1455,-0.4932 -0.3633,-0.7402 -0.8726,0.3281 0.1455,-0.6577 -1.0176,-0.5762 -0.7993,1.3979 0.0723,0.4941 -0.7993,0.3301 -0.5093,1.0693 -0.2178,-0.9873 -1.3813,-0.5762 -0.2183,-0.7402 1.8174,-1.0703 0.7998,-0.7402 0.0728,-0.9048 -0.436,-0.2471 -0.5815,-0.0825 -0.3633,0.9053 c 0,0 -0.703332,0.055478 -0.859632,0.094078 C 9.9867169,11.059151 6.5013568,14.983265 5.6916,22.2885 c 0.0371,0.1738 0.6792,1.1816 0.6792,1.1816 l 1.5264,0.9043 1.5264,0.4121 0.6548,0.8232 1.0171,0.7402 0.5815,-0.082 0.436,0.1963 0,0.1328 -0.5811,1.563 -0.4365,0.6582 0.1455,0.3301 -0.3633,1.2324 1.3086,2.3867 1.3081,1.1523 0.582,0.8223 -0.0732,1.7285 0.4365,0.9863 -0.4365,1.8926 c 0,0 -0.0342,-0.0117 0.0215,0.1777 0.0562,0.1895 2.3291,1.4512 2.4736,1.3438 0.144,-0.1094 0.2671,-0.2051 0.2671,-0.2051 l -0.145,-0.4102 0.5811,-0.5762 0.2183,-0.5762 0.9453,-0.3301 0.7266,-1.8105 -0.2178,-0.4922 0.5078,-0.7402 1.0908,-0.248 0.582,-1.3164 -0.1455,-1.6445 0.8721,-1.2344 0.1455,-1.2344 C 20.7331,29.4607 19.5495,28.8513 18.365,28.242" />
      </g>
      <g
         transform="matrix(0.987914,0,0,0.987891,-1.58612,0.616059)"
         style="fill:url(#radialGradient3380);fill-opacity:1;fill-rule:nonzero;stroke:none"
         id="g4190">
        <path
           inkscape:connector-curvature="0"
           style="fill:url(#radialGradient3378);fill-opacity:1"
           id="path4192"
           d="m 16.7656,9.5649 0.7266,0.4937 0.582,0 0,-0.5757 -0.7266,-0.3291 -0.582,0.4111" />
      </g>
      <g
         transform="matrix(0.987914,0,0,0.987891,-1.58612,0.616059)"
         style="fill:url(#radialGradient3384);fill-opacity:1;fill-rule:nonzero;stroke:none"
         id="g4198">
        <path
           inkscape:connector-curvature="0"
           style="fill:url(#radialGradient3382);fill-opacity:1"
           id="path4200"
           d="m 14.876,8.9072 -0.3638,0.9048 0.7271,0 0.3638,-0.8228 C 15.9166,8.7675 16.2286,8.5444 16.5479,8.331 l 0.7271,0.2471 c 0.4844,0.3291 0.9688,0.6582 1.4536,0.9868 L 19.4561,8.9072 18.6558,8.5781 18.292,7.8374 16.9111,7.6728 16.8383,7.2612 16.184,7.4262 15.8936,8.002 15.5298,7.2613 l -0.145,0.3291 0.0728,0.8228 -0.5816,0.494" />
      </g>
      <g
         transform="matrix(0.987914,0,0,0.987891,-1.58612,0.616059)"
         id="g4204"
         style="opacity:0.75;fill:url(#radialGradient3388);fill-opacity:1;fill-rule:nonzero;stroke:none">
        <path
           inkscape:connector-curvature="0"
           style="fill:url(#radialGradient3386);fill-opacity:1"
           d=""
           id="path4206" />
      </g>
      <g
         transform="matrix(0.987914,0,0,0.987891,-1.58612,0.616059)"
         style="fill:url(#radialGradient3392);fill-opacity:1;fill-rule:nonzero;stroke:none"
         id="g4208">
        <path
           inkscape:connector-curvature="0"
           style="fill:url(#radialGradient3390);fill-opacity:1"
           d=""
           id="path4210" />
      </g>
      <g
         transform="matrix(0.987914,0,0,0.987891,-1.58612,0.616059)"
         id="g4214"
         style="opacity:0.75;fill:url(#radialGradient3396);fill-opacity:1;fill-rule:nonzero;stroke:none">
        <path
           inkscape:connector-curvature="0"
           style="fill:url(#radialGradient3394);fill-opacity:1"
           d=""
           id="path4216" />
      </g>
      <g
         transform="matrix(0.987914,0,0,0.987891,-1.58612,0.616059)"
         style="fill:url(#radialGradient3400);fill-opacity:1;fill-rule:nonzero;stroke:none"
         id="g4218">
        <path
           inkscape:connector-curvature="0"
           style="fill:url(#radialGradient3398);fill-opacity:1"
           d=""
           id="path4220" />
      </g>
      <g
         transform="matrix(0.987914,0,0,0.987891,-1.58612,0.616059)"
         style="fill:url(#radialGradient3404);fill-opacity:1;fill-rule:nonzero;stroke:none"
         id="g4226">
        <path
           inkscape:connector-curvature="0"
           style="fill:url(#radialGradient3402);fill-opacity:1"
           id="path4228"
           d="M 17.4922,6.8496 17.856,6.521 18.5831,6.3564 c 0.498,-0.2422 0.998,-0.4053 1.5264,-0.5762 l -0.29,-0.4937 -0.9385,0.1348 -0.4434,0.4419 -0.731,0.106 -0.6499,0.3052 -0.3159,0.1528 -0.1929,0.2583 0.9443,0.1641" />
      </g>
      <g
         transform="matrix(0.987914,0,0,0.987891,-1.58612,0.616059)"
         style="fill:url(#radialGradient3408);fill-opacity:1;fill-rule:nonzero;stroke:none"
         id="g4234">
        <path
           inkscape:connector-curvature="0"
           style="fill:url(#radialGradient3406);fill-opacity:1"
           id="path4236"
           d="m 18.7285,14.6665 0.4365,-0.6582 -0.6548,-0.4932 0.2183,1.1514" />
      </g>
    </g>
    <path
       transform="matrix(0.73285715,0,0,0.73285715,-0.40179,17.07643)"
       style="fill:url(#linearGradient3849);fill-opacity:1;stroke:none"
       d="M 10.01171,8.2406045 C 13.187169,5.0062304 17.609294,3 22.5,3 27.420827,3 31.867284,5.0310189 35.04682,8.3005047 39.956425,20.414464 4.9739842,20.49958 10.01171,8.2406045 z"
       id="path3076"
       inkscape:connector-curvature="0"
       sodipodi:nodetypes="cscc" />
  </g>
</svg>
