<?xml version="1.0" encoding="UTF-8" standalone="no"?>
<!-- Created with Inkscape (http://www.inkscape.org/) -->

<svg
   xmlns:dc="http://purl.org/dc/elements/1.1/"
   xmlns:cc="http://creativecommons.org/ns#"
   xmlns:rdf="http://www.w3.org/1999/02/22-rdf-syntax-ns#"
   xmlns:svg="http://www.w3.org/2000/svg"
   xmlns="http://www.w3.org/2000/svg"
   xmlns:xlink="http://www.w3.org/1999/xlink"
   xmlns:sodipodi="http://sodipodi.sourceforge.net/DTD/sodipodi-0.dtd"
   xmlns:inkscape="http://www.inkscape.org/namespaces/inkscape"
   width="620"
   height="620"
   id="svg3993"
   sodipodi:version="0.32"
   inkscape:version="0.48.1 r9760"
   sodipodi:docname="hash-quote-diffuse.svg"
   inkscape:output_extension="org.inkscape.output.svg.inkscape"
   version="1.0"
   inkscape:export-filename="hash-quote-diffuse-24x24.png"
   inkscape:export-xdpi="3.48"
   inkscape:export-ydpi="3.48">
  <defs
     id="defs3995">
    <linearGradient
       id="linearGradient3200">
      <stop
         style="stop-color:#ffffff;stop-opacity:1;"
         offset="0"
         id="stop3202" />
      <stop
         style="stop-color:#ffffff;stop-opacity:0;"
         offset="1"
         id="stop3204" />
    </linearGradient>
    <linearGradient
       id="diffuseColorGradient">
      <stop
         id="stop3635"
         offset="0"
         style="stop-color:#195018;stop-opacity:1;" />
      <stop
         id="stop3637"
         offset="1"
         style="stop-color:#288026;stop-opacity:1;" />
    </linearGradient>
    <linearGradient
       inkscape:collect="always"
       xlink:href="#diffuseColorGradient"
       id="linearGradient3802"
       x1="147.09624"
       y1="424.81082"
       x2="204.85309"
       y2="164.31621"
       gradientUnits="userSpaceOnUse" />
    <linearGradient
       inkscape:collect="always"
       xlink:href="#diffuseColorGradient"
       id="linearGradient3810"
       x1="204.85309"
       y1="164.31621"
       x2="147.09624"
       y2="424.81082"
       gradientUnits="userSpaceOnUse" />
    <filter
       inkscape:collect="always"
       id="filter4008">
      <feGaussianBlur
         inkscape:collect="always"
         stdDeviation="7.1530871"
         id="feGaussianBlur4010" />
    </filter>
    <radialGradient
       inkscape:collect="always"
       xlink:href="#linearGradient3200"
       id="radialGradient4157"
       cx="152.29536"
       cy="537.34039"
       fx="152.29536"
       fy="537.34039"
       r="156.73828"
       gradientTransform="matrix(-1.0036087,-0.11570683,0.15200351,-0.88023122,329.57796,658.35823)"
       gradientUnits="userSpaceOnUse" />
    <linearGradient
       inkscape:collect="always"
       xlink:href="#diffuseColorGradient"
       id="linearGradient3002"
       gradientUnits="userSpaceOnUse"
       x1="147.09624"
       y1="424.81082"
       x2="204.85309"
       y2="164.31621" />
    <linearGradient
       inkscape:collect="always"
       xlink:href="#diffuseColorGradient"
       id="linearGradient3004"
       gradientUnits="userSpaceOnUse"
       x1="204.85309"
       y1="164.31621"
       x2="147.09624"
       y2="424.81082" />
    <linearGradient
       inkscape:collect="always"
       xlink:href="#diffuseColorGradient"
       id="linearGradient3006"
       gradientUnits="userSpaceOnUse"
       x1="147.09624"
       y1="424.81082"
       x2="204.85309"
       y2="164.31621" />
    <linearGradient
       inkscape:collect="always"
       xlink:href="#diffuseColorGradient"
       id="linearGradient3008"
       gradientUnits="userSpaceOnUse"
       x1="204.85309"
       y1="164.31621"
       x2="147.09624"
       y2="424.81082" />
    <radialGradient
       inkscape:collect="always"
       xlink:href="#linearGradient3200"
       id="radialGradient3010"
       gradientUnits="userSpaceOnUse"
       gradientTransform="matrix(-1.0036087,-0.11570683,0.15200351,-0.88023122,329.57796,658.35823)"
       cx="152.29536"
       cy="537.34039"
       fx="152.29536"
       fy="537.34039"
       r="156.73828" />
    <radialGradient
       inkscape:collect="always"
       xlink:href="#linearGradient3200"
       id="radialGradient3012"
       gradientUnits="userSpaceOnUse"
       gradientTransform="matrix(-1.0036087,-0.11570683,0.15200351,-0.88023122,329.57796,658.35823)"
       cx="152.29536"
       cy="537.34039"
       fx="152.29536"
       fy="537.34039"
       r="156.73828" />
    <filter
       inkscape:collect="always"
       id="filter3784"
       x="-0.6761318"
       width="2.3522636"
       y="-0.39772457"
       height="1.7954491">
      <feGaussianBlur
         inkscape:collect="always"
         stdDeviation="14.306174"
         id="feGaussianBlur3786" />
    </filter>
    <filter
       inkscape:collect="always"
       id="filter3788"
       x="-0.15434088"
       width="1.3086818"
       y="-0.1341941"
       height="1.2683882">
      <feGaussianBlur
         inkscape:collect="always"
         stdDeviation="14.306174"
         id="feGaussianBlur3790" />
    </filter>
  </defs>
  <sodipodi:namedview
     id="base"
     pagecolor="#ffffff"
     bordercolor="#666666"
     borderopacity="1.0"
     gridtolerance="10000"
     guidetolerance="10"
     objecttolerance="10"
     inkscape:pageopacity="0.0"
     inkscape:pageshadow="2"
     inkscape:zoom="0.70710678"
     inkscape:cx="138.63708"
     inkscape:cy="363.90756"
     inkscape:document-units="px"
     inkscape:current-layer="layer1"
     showgrid="false"
     inkscape:window-width="1184"
     inkscape:window-height="799"
     inkscape:window-x="476"
     inkscape:window-y="96"
     inkscape:window-maximized="0" />
  <metadata
     id="metadata3998">
    <rdf:RDF>
      <cc:Work
         rdf:about="">
        <dc:format>image/svg+xml</dc:format>
        <dc:type
           rdf:resource="http://purl.org/dc/dcmitype/StillImage" />
        <dc:title />
      </cc:Work>
    </rdf:RDF>
  </metadata>
  <g
     inkscape:label="Layer 1"
     inkscape:groupmode="layer"
     id="layer1">
    <g
       id="g3792">
      <path
         transform="matrix(1.6812193,0,0,2.057574,-13.009276,-283.77819)"
         d="m 255.15625,238.45814 -7.61719,35.15625 -36.13281,0 -10.74219,48.4375 40.42969,0 -8.78906,35.15625 -38.86719,0 -15.23438,67.57812 -39.0625,0 14.25782,-67.57812 -44.72656,0 -14.45313,67.57812 -39.0625,0 13.867187,-67.57812 -36.328125,0 7.226563,-35.15625 36.71875,0 10.351562,-48.4375 -39.453125,0 6.640625,-35.15625 40.039063,0 14.45313,-69.53125 40.03906,0 -14.45313,69.53125 44.72656,0 14.84375,-69.53125 39.64844,0 -14.45312,69.53125 36.13281,0 m -83.20313,35.15625 -45.31249,0 -10.74219,48.4375 45.11718,0 10.9375,-48.4375"
         id="path3024-6"
         inkscape:connector-curvature="0"
         style="font-size:400px;font-style:normal;font-variant:normal;font-weight:bold;font-stretch:normal;text-align:start;line-height:125%;letter-spacing:0px;word-spacing:0px;writing-mode:lr-tb;text-anchor:start;fill:#000000;fill-opacity:0.78431373;stroke:none;filter:url(#filter3788);font-family:Segoe UI;-inkscape-font-specification:Segoe UI Bold" />
      <path
         transform="matrix(1.6812193,0,0,2.057574,-13.009276,-283.77819)"
         d="m 346.17187,163.65345 -6.05468,86.32813 -39.0625,0 -5.66407,-86.32813 50.78125,0"
         id="path3026-8"
         inkscape:connector-curvature="0"
         style="font-size:400px;font-style:normal;font-variant:normal;font-weight:bold;font-stretch:normal;text-align:start;line-height:125%;letter-spacing:0px;word-spacing:0px;writing-mode:lr-tb;text-anchor:start;fill:#000000;fill-opacity:0.78431373;stroke:none;filter:url(#filter3784);font-family:Segoe UI;-inkscape-font-specification:Segoe UI Bold" />
    </g>
    <g
       style="font-size:400px;font-style:normal;font-variant:normal;font-weight:bold;font-stretch:normal;text-align:start;line-height:125%;letter-spacing:0px;word-spacing:0px;writing-mode:lr-tb;text-anchor:start;fill:url(#linearGradient3802);fill-opacity:1;stroke:url(#linearGradient3810);stroke-width:6.45195484;stroke-miterlimit:4;stroke-dasharray:none;font-family:Segoe UI;-inkscape-font-specification:Segoe UI Bold"
       id="flowRoot3015"
       transform="matrix(1.6812193,0,0,2.057574,4.597384,-322.98226)">
      <path
         d="m 255.15625,238.45814 -7.61719,35.15625 -36.13281,0 -10.74219,48.4375 40.42969,0 -8.78906,35.15625 -38.86719,0 -15.23438,67.57812 -39.0625,0 14.25782,-67.57812 -44.72656,0 -14.45313,67.57812 -39.0625,0 13.867187,-67.57812 -36.328125,0 7.226563,-35.15625 36.71875,0 10.351562,-48.4375 -39.453125,0 6.640625,-35.15625 40.039063,0 14.45313,-69.53125 40.03906,0 -14.45313,69.53125 44.72656,0 14.84375,-69.53125 39.64844,0 -14.45312,69.53125 36.13281,0 m -83.20313,35.15625 -45.31249,0 -10.74219,48.4375 45.11718,0 10.9375,-48.4375"
         id="path3024"
         inkscape:connector-curvature="0"
         style="fill:url(#linearGradient3002);fill-opacity:1;stroke:url(#linearGradient3004);stroke-width:6.45195484;stroke-miterlimit:4;stroke-dasharray:none" />
      <path
         d="m 346.17187,163.65345 -6.05468,86.32813 -39.0625,0 -5.66407,-86.32813 50.78125,0"
         id="path3026"
         inkscape:connector-curvature="0"
         style="fill:url(#linearGradient3006);fill-opacity:1;stroke:url(#linearGradient3008);stroke-width:6.45195484;stroke-miterlimit:4;stroke-dasharray:none" />
    </g>
    <g
       style="font-size:400px;font-style:normal;font-variant:normal;font-weight:bold;font-stretch:normal;text-align:start;line-height:125%;letter-spacing:0px;word-spacing:0px;writing-mode:lr-tb;text-anchor:start;fill:url(#radialGradient4157);fill-opacity:1;stroke:none;font-family:Segoe UI;-inkscape-font-specification:Segoe UI Bold"
       id="flowRoot3015-87"
       transform="matrix(1.6812193,0,0,2.057574,5.3754968,-323.37616)">
      <path
         d="m 250.1004,241.13119 -5.83278,29.56714 -36.43021,0.24301 -12.2292,54.02661 39.83488,0.486 -6.70724,28.83813 -38.56979,0 -15.23438,67.57812 -32.22222,-0.243 14.25782,-67.09211 -51.86424,0 -14.750532,67.33511 -31.032613,-0.486 12.677574,-66.84911 -35.138512,-0.72901 5.739547,-28.35213 36.421347,-0.243 11.541174,-54.26961 -40.345334,0.97202 6.343222,-30.53916 40.039063,-0.48601 14.597454,-68.86836 32.67871,0.17183 -13.82225,69.01576 50.61485,0.68732 15.47463,-70.04674 32.91898,0.17183 -14.39591,69.27098 m -39.14248,30.13654 -52.45017,0 -11.9318,53.29759 52.25486,0.24301"
         id="path3024-60"
         inkscape:connector-curvature="0"
         style="fill:url(#radialGradient3010);fill-opacity:1;stroke:none"
         sodipodi:nodetypes="cccccccccccccccccccccccccccccccc" />
      <path
         d="m 341.96595,166.57456 -5.42379,80.48591 -32.54333,0.17183 -6.08466,-80.82957"
         id="path3026-4"
         inkscape:connector-curvature="0"
         style="fill:url(#radialGradient3012);fill-opacity:1;stroke:none"
         sodipodi:nodetypes="cccc" />
    </g>
  </g>
</svg>
