<?xml version="1.0" encoding="UTF-8" standalone="no"?>
<!-- Created with Inkscape (http://www.inkscape.org/) -->

<svg
   xmlns:dc="http://purl.org/dc/elements/1.1/"
   xmlns:cc="http://creativecommons.org/ns#"
   xmlns:rdf="http://www.w3.org/1999/02/22-rdf-syntax-ns#"
   xmlns:svg="http://www.w3.org/2000/svg"
   xmlns="http://www.w3.org/2000/svg"
   xmlns:xlink="http://www.w3.org/1999/xlink"
   xmlns:sodipodi="http://sodipodi.sourceforge.net/DTD/sodipodi-0.dtd"
   xmlns:inkscape="http://www.inkscape.org/namespaces/inkscape"
   width="32"
   height="32"
   id="svg3993"
   sodipodi:version="0.32"
   inkscape:version="0.48.1 r9760"
   sodipodi:docname="magnifying-glass-diffuse.svg"
   inkscape:output_extension="org.inkscape.output.svg.inkscape"
   version="1.0"
   inkscape:export-filename="magnifying-glass.png"
   inkscape:export-xdpi="2.3199999"
   inkscape:export-ydpi="2.3199999">
  <defs
     id="defs3995">
    <linearGradient
       id="linearGradient3785">
      <stop
         style="stop-color:#e0ecf2;stop-opacity:0.22047244;"
         offset="0"
         id="stop3787" />
      <stop
         style="stop-color:#b9e0e0;stop-opacity:0.22834645;"
         offset="1"
         id="stop3789" />
    </linearGradient>
    <linearGradient
       id="linearGradient7777">
      <stop
         style="stop-color:#7f6440;stop-opacity:1;"
         offset="0"
         id="stop4296" />
      <stop
         style="stop-color:#ff6000;stop-opacity:1;"
         offset="1"
         id="stop4298" />
    </linearGradient>
    <linearGradient
       id="linearGradient4232">
      <stop
         id="stop4234"
         offset="0"
         style="stop-color:#bbbbbb;stop-opacity:1;" />
      <stop
         id="stop4236"
         offset="1"
         style="stop-color:#000000;stop-opacity:1;" />
    </linearGradient>
    <linearGradient
       id="linearGradient3200">
      <stop
         style="stop-color:#ffffff;stop-opacity:1;"
         offset="0"
         id="stop3202" />
      <stop
         style="stop-color:#ffffff;stop-opacity:0;"
         offset="1"
         id="stop3204" />
    </linearGradient>
    <linearGradient
       inkscape:collect="always"
       xlink:href="#linearGradient7777"
       id="linearGradient4246"
       x1="427.37592"
       y1="542.37195"
       x2="560.3678"
       y2="263.70697"
       gradientUnits="userSpaceOnUse"
       gradientTransform="matrix(0.05223845,0,0,0.05147921,1.3515626,586.9776)" />
    <radialGradient
       inkscape:collect="always"
       xlink:href="#linearGradient3200"
       id="radialGradient3861"
       cx="460.99557"
       cy="570.78461"
       fx="460.99557"
       fy="570.78461"
       r="89.649117"
       gradientTransform="matrix(-0.06634226,-0.05060288,0.01995221,-0.02615809,46.748942,648.02446)"
       gradientUnits="userSpaceOnUse" />
    <linearGradient
       inkscape:collect="always"
       xlink:href="#linearGradient7777"
       id="linearGradient3865"
       x1="500.59576"
       y1="422.90002"
       x2="362.65445"
       y2="725.495"
       gradientUnits="userSpaceOnUse"
       gradientTransform="matrix(0.05,0,0,0.05,1.3641226,587.92326)" />
    <radialGradient
       inkscape:collect="always"
       xlink:href="#linearGradient3785"
       id="radialGradient3820"
       cx="304.76562"
       cy="231.79688"
       fx="304.76562"
       fy="231.79688"
       r="157.67188"
       gradientTransform="matrix(0.05,0,0,0.04866217,0.15682524,588.24437)"
       gradientUnits="userSpaceOnUse" />
    <radialGradient
       inkscape:collect="always"
       xlink:href="#linearGradient4232"
       id="radialGradient3831"
       cx="301.32986"
       cy="234.6981"
       fx="301.32986"
       fy="234.6981"
       r="226.98438"
       gradientTransform="matrix(0.06152394,1.14977e-4,-1.16733e-4,0.0624638,-3.1161048,584.97113)"
       gradientUnits="userSpaceOnUse" />
    <filter
       inkscape:collect="always"
       id="filter3835"
       color-interpolation-filters="sRGB">
      <feGaussianBlur
         inkscape:collect="always"
         stdDeviation="4.7369766"
         id="feGaussianBlur3837" />
    </filter>
    <linearGradient
       inkscape:collect="always"
       xlink:href="#linearGradient7777"
       id="linearGradient3859"
       gradientUnits="userSpaceOnUse"
       gradientTransform="translate(14.142136,-14.142136)"
       x1="500.59576"
       y1="422.90002"
       x2="362.65445"
       y2="725.495" />
    <linearGradient
       inkscape:collect="always"
       xlink:href="#linearGradient7777"
       id="linearGradient3863"
       gradientUnits="userSpaceOnUse"
       gradientTransform="translate(-14.142135,31.112698)"
       x1="500.59576"
       y1="422.90002"
       x2="362.65445"
       y2="725.495" />
    <linearGradient
       id="linearGradient7777-9">
      <stop
         style="stop-color:#7f6440;stop-opacity:1;"
         offset="0"
         id="stop4296-7" />
      <stop
         style="stop-color:#ff6000;stop-opacity:1;"
         offset="1"
         id="stop4298-6" />
    </linearGradient>
    <linearGradient
       id="linearGradient3799">
      <stop
         style="stop-color:#7f6440;stop-opacity:1;"
         offset="0"
         id="stop3801" />
      <stop
         style="stop-color:#ff6000;stop-opacity:1;"
         offset="1"
         id="stop3803" />
    </linearGradient>
    <radialGradient
       inkscape:collect="always"
       xlink:href="#linearGradient4232-0"
       id="radialGradient3831-2"
       cx="301.32986"
       cy="234.6981"
       fx="301.32986"
       fy="234.6981"
       r="226.98438"
       gradientTransform="matrix(1.2304788,0.00229954,-0.00233466,1.249276,-65.458514,-59.26267)"
       gradientUnits="userSpaceOnUse" />
    <linearGradient
       id="linearGradient4232-0">
      <stop
         id="stop4234-6"
         offset="0"
         style="stop-color:#bbbbbb;stop-opacity:1;" />
      <stop
         id="stop4236-4"
         offset="1"
         style="stop-color:#000000;stop-opacity:1;" />
    </linearGradient>
    <linearGradient
       inkscape:collect="always"
       xlink:href="#linearGradient3200"
       id="linearGradient3866"
       x1="378.61853"
       y1="-2.9549165"
       x2="259.21289"
       y2="599.50006"
       gradientUnits="userSpaceOnUse" />
    <linearGradient
       inkscape:collect="always"
       xlink:href="#linearGradient3831"
       id="linearGradient3837"
       x1="338.73737"
       y1="49.157681"
       x2="262.19125"
       y2="390.72629"
       gradientUnits="userSpaceOnUse" />
    <linearGradient
       id="linearGradient3831">
      <stop
         style="stop-color:#ffffff;stop-opacity:1;"
         offset="0"
         id="stop3833" />
      <stop
         id="stop3853"
         offset="0.21438295"
         style="stop-color:#ffffff;stop-opacity:0;" />
      <stop
         id="stop3843"
         offset="0.87306166"
         style="stop-color:#ffffff;stop-opacity:0;" />
      <stop
         style="stop-color:#ffffff;stop-opacity:1;"
         offset="1"
         id="stop3835" />
    </linearGradient>
    <filter
       color-interpolation-filters="sRGB"
       inkscape:collect="always"
       id="filter3849">
      <feGaussianBlur
         inkscape:collect="always"
         stdDeviation="5.3472423"
         id="feGaussianBlur3851" />
    </filter>
    <linearGradient
       y2="390.72629"
       x2="262.19125"
       y1="49.157681"
       x1="338.73737"
       gradientUnits="userSpaceOnUse"
       id="linearGradient3052"
       xlink:href="#linearGradient3831"
       inkscape:collect="always" />
    <filter
       inkscape:collect="always"
       id="filter3810"
       color-interpolation-filters="sRGB">
      <feGaussianBlur
         inkscape:collect="always"
         stdDeviation="18.957036"
         id="feGaussianBlur3812" />
    </filter>
  </defs>
  <sodipodi:namedview
     id="base"
     pagecolor="#ffffff"
     bordercolor="#666666"
     borderopacity="1.0"
     gridtolerance="10000"
     guidetolerance="10"
     objecttolerance="10"
     inkscape:pageopacity="0.0"
     inkscape:pageshadow="2"
     inkscape:zoom="16.240646"
     inkscape:cx="13.672354"
     inkscape:cy="20.898962"
     inkscape:document-units="px"
     inkscape:current-layer="layer1"
     showgrid="false"
     inkscape:window-width="1870"
     inkscape:window-height="1056"
     inkscape:window-x="50"
     inkscape:window-y="24"
     inkscape:window-maximized="1" />
  <metadata
     id="metadata3998">
    <rdf:RDF>
      <cc:Work
         rdf:about="">
        <dc:format>image/svg+xml</dc:format>
        <dc:type
           rdf:resource="http://purl.org/dc/dcmitype/StillImage" />
        <dc:title />
      </cc:Work>
    </rdf:RDF>
  </metadata>
  <g
     inkscape:label="Layer 1"
     inkscape:groupmode="layer"
     id="layer1"
     transform="translate(0,-588)">
    <g
       id="g3806"
       style="filter:url(#filter3810)"
       transform="matrix(0.05,0,0,0.05,0.43966524,587.65142)">
      <path
         inkscape:connector-curvature="0"
         id="path3022-3"
         d="m 276.8796,47.915393 c -125.3583,0 -226.968752,100.360047 -226.968752,224.156257 0,123.7962 101.610452,224.15625 226.968752,224.15625 125.3583,0 227,-100.36005 227,-224.15625 0,-123.79621 -101.6417,-224.156257 -227,-224.156257 z m 1.40625,69.281247 c 5.44293,0 10.8241,0.28865 16.125,0.8125 5.3009,0.52385 10.5238,1.29051 15.65625,2.3125 5.13245,1.022 10.18742,2.28683 15.125,3.78125 4.93758,1.49443 9.78371,3.2151 14.5,5.15625 4.71629,1.94115 9.31267,4.10659 13.78125,6.46875 4.46858,2.36217 8.80556,4.93003 13,7.6875 4.19444,2.75747 8.23111,5.71669 12.125,8.84375 3.89389,3.12706 7.62058,6.43531 11.1875,9.90626 3.56692,3.47095 6.97398,7.08588 10.1875,10.875 3.21352,3.78912 6.26004,7.73091 9.09375,11.8125 2.83371,4.08159 5.44752,8.30791 7.875,12.65625 2.42748,4.34834 4.66143,8.81686 6.65625,13.40625 1.99482,4.58939 3.7455,9.28902 5.28125,14.09375 1.53575,4.80473 2.856,9.72439 3.90625,14.71875 1.05025,4.99436 1.83666,10.09172 2.375,15.25 0.53834,5.15828 0.8125,10.39101 0.8125,15.6875 0,5.29649 -0.27416,10.52922 -0.8125,15.6875 -0.53834,5.15828 -1.32475,10.22439 -2.375,15.21875 -1.05025,4.99436 -2.3705,9.91402 -3.90625,14.71875 -1.53575,4.80473 -3.28643,9.50436 -5.28125,14.09375 -1.99482,4.58939 -4.22877,9.05791 -6.65625,13.40625 -2.42748,4.34834 -5.04129,8.57466 -7.875,12.65625 -2.83371,4.08159 -5.88023,8.02338 -9.09375,11.8125 -3.21352,3.78912 -6.62058,7.4353 -10.1875,10.90625 -3.56692,3.47095 -7.29361,6.74794 -11.1875,9.875 -3.89389,3.12706 -7.93056,6.08628 -12.125,8.84375 -4.19444,2.75747 -8.53142,5.32534 -13,7.6875 -4.46858,2.36216 -9.06496,4.5276 -13.78125,6.46875 -4.71629,1.94115 -9.56242,3.66182 -14.5,5.15625 -4.93758,1.49443 -9.99255,2.75926 -15.125,3.78125 -5.13245,1.02199 -10.35535,1.78865 -15.65625,2.3125 -5.3009,0.52385 -10.68207,0.8125 -16.125,0.8125 -5.44293,0 -10.79285,-0.28865 -16.09375,-0.8125 -5.3009,-0.52385 -10.55505,-1.29051 -15.6875,-2.3125 -5.13245,-1.02199 -10.15617,-2.28682 -15.09375,-3.78125 -4.93758,-1.49443 -9.78371,-3.2151 -14.5,-5.15625 -4.71629,-1.94115 -9.31267,-4.10659 -13.78125,-6.46875 -4.46858,-2.36216 -8.80556,-4.93003 -13,-7.6875 -4.19444,-2.75747 -8.23111,-5.71669 -12.125,-8.84375 -3.89389,-3.12706 -7.65183,-6.40405 -11.21875,-9.875 -3.56692,-3.47095 -6.94273,-7.11713 -10.15625,-10.90625 -3.21352,-3.78912 -6.26004,-7.73091 -9.09375,-11.8125 -2.83371,-4.08159 -5.44752,-8.30791 -7.875,-12.65625 -2.42748,-4.34834 -4.66143,-8.81686 -6.65625,-13.40625 -1.99482,-4.58939 -3.77675,-9.28902 -5.3125,-14.09375 -1.53575,-4.80473 -2.82475,-9.72439 -3.875,-14.71875 -1.05025,-4.99436 -1.83666,-10.06047 -2.375,-15.21875 -0.53834,-5.15828 -0.8125,-10.39101 -0.8125,-15.6875 0,-5.29649 0.27416,-10.52922 0.8125,-15.6875 0.53834,-5.15828 1.32475,-10.25564 2.375,-15.25 1.05025,-4.99436 2.33925,-9.91402 3.875,-14.71875 1.53575,-4.80473 3.31768,-9.50436 5.3125,-14.09375 1.99482,-4.58939 4.22877,-9.05791 6.65625,-13.40625 2.42748,-4.34834 5.04129,-8.57466 7.875,-12.65625 2.83371,-4.08159 5.88023,-8.02338 9.09375,-11.8125 3.21352,-3.78912 6.58933,-7.40405 10.15625,-10.875 3.56692,-3.47095 7.32486,-6.7792 11.21875,-9.90626 3.89389,-3.12706 7.93056,-6.08628 12.125,-8.84375 4.19444,-2.75747 8.53142,-5.32533 13,-7.6875 4.46858,-2.36216 9.06496,-4.5276 13.78125,-6.46875 4.71629,-1.94115 9.56242,-3.66182 14.5,-5.15625 4.93758,-1.49442 9.9613,-2.75925 15.09375,-3.78125 5.13245,-1.02199 10.3866,-1.78865 15.6875,-2.3125 5.3009,-0.52385 10.65082,-0.8125 16.09375,-0.8125 z"
         style="fill:#000000;fill-opacity:0.78431373;stroke:none" />
      <path
         sodipodi:nodetypes="ccccc"
         inkscape:connector-curvature="0"
         id="path4238-36"
         d="m 384.54253,480.42344 c 30.53389,-15.56049 55.62717,-36.77783 72.39881,-56.78601 L 570.7109,548.85788 c -9.35767,57.27137 -65.99619,75.22934 -98.99429,62.61022 z"
         style="fill:#000000;fill-opacity:0.78431373;stroke:none" />
    </g>
    <path
       style="fill:url(#radialGradient3831);fill-opacity:1;stroke:none"
       d="m 15.324015,588.38739 c -6.2679198,0 -11.3484398,5.018 -11.3484398,11.20781 0,6.18981 5.08052,11.20781 11.3484398,11.20781 6.26791,0 11.35,-5.018 11.35,-11.20781 0,-6.18981 -5.08209,-11.20781 -11.35,-11.20781 z m 0.0703,3.46406 c 0.27215,0 0.54121,0.0144 0.80625,0.0406 0.26505,0.0262 0.52619,0.0645 0.78281,0.11562 0.25663,0.0511 0.50937,0.11434 0.75625,0.18906 0.24688,0.0747 0.48919,0.16076 0.725,0.25782 0.23582,0.0971 0.46564,0.20533 0.68907,0.32343 0.22342,0.11811 0.44027,0.24651 0.65,0.38438 0.20972,0.13787 0.41155,0.28583 0.60625,0.44219 0.19469,0.15635 0.38102,0.32176 0.55937,0.49531 0.17835,0.17355 0.3487,0.35429 0.50938,0.54375 0.16067,0.18945 0.313,0.38654 0.45468,0.59062 0.14169,0.20408 0.27238,0.4154 0.39375,0.63282 0.12138,0.21741 0.23307,0.44084 0.33282,0.67031 0.0997,0.22947 0.18727,0.46445 0.26406,0.70469 0.0768,0.24023 0.1428,0.48622 0.19531,0.73593 0.0525,0.24972 0.0918,0.50459 0.11875,0.7625 0.0269,0.25792 0.0406,0.51955 0.0406,0.78438 0,0.26482 -0.0137,0.52646 -0.0406,0.78437 -0.0269,0.25792 -0.0662,0.51122 -0.11875,0.76094 -0.0525,0.24972 -0.11852,0.4957 -0.19531,0.73594 -0.0768,0.24024 -0.16432,0.47522 -0.26406,0.70469 -0.0998,0.22947 -0.21144,0.45289 -0.33282,0.67031 -0.12137,0.21742 -0.25206,0.42873 -0.39375,0.63281 -0.14168,0.20408 -0.29401,0.40117 -0.45468,0.59063 -0.16068,0.18945 -0.33103,0.37176 -0.50938,0.54531 -0.17835,0.17355 -0.36468,0.3374 -0.55937,0.49375 -0.1947,0.15635 -0.39653,0.30431 -0.60625,0.44219 -0.20973,0.13787 -0.42658,0.26626 -0.65,0.38437 -0.22343,0.11811 -0.45325,0.22638 -0.68907,0.32344 -0.23581,0.0971 -0.47812,0.18309 -0.725,0.25781 -0.24688,0.0747 -0.49962,0.13796 -0.75625,0.18906 -0.25662,0.0511 -0.51776,0.0894 -0.78281,0.11563 -0.26504,0.0262 -0.5341,0.0406 -0.80625,0.0406 -0.27215,0 -0.53964,-0.0144 -0.80469,-0.0406 -0.26504,-0.0262 -0.52775,-0.0645 -0.78437,-0.11563 -0.25662,-0.0511 -0.50781,-0.11434 -0.75469,-0.18906 -0.24688,-0.0747 -0.48918,-0.16075 -0.725,-0.25781 -0.23581,-0.0971 -0.46563,-0.20533 -0.68906,-0.32344 -0.22343,-0.11811 -0.44028,-0.2465 -0.65,-0.38437 -0.20972,-0.13788 -0.41156,-0.28584 -0.60625,-0.44219 -0.1947,-0.15635 -0.3825898,-0.3202 -0.5609398,-0.49375 -0.17835,-0.17355 -0.34714,-0.35586 -0.50781,-0.54531 -0.16068,-0.18946 -0.313,-0.38655 -0.45469,-0.59063 -0.14168,-0.20408 -0.27238,-0.41539 -0.39375,-0.63281 -0.12137,-0.21742 -0.23307,-0.44084 -0.33281,-0.67031 -0.0997,-0.22947 -0.18884,-0.46445 -0.26563,-0.70469 -0.0768,-0.24024 -0.14123,-0.48622 -0.19375,-0.73594 -0.0525,-0.24972 -0.0918,-0.50302 -0.11875,-0.76094 -0.0269,-0.25791 -0.0406,-0.51955 -0.0406,-0.78437 0,-0.26483 0.0137,-0.52646 0.0406,-0.78438 0.0269,-0.25791 0.0662,-0.51278 0.11875,-0.7625 0.0525,-0.24971 0.11697,-0.4957 0.19375,-0.73593 0.0768,-0.24024 0.16589,-0.47522 0.26563,-0.70469 0.0997,-0.22947 0.21144,-0.4529 0.33281,-0.67031 0.12137,-0.21742 0.25207,-0.42874 0.39375,-0.63282 0.14169,-0.20408 0.29401,-0.40117 0.45469,-0.59062 0.16067,-0.18946 0.32946,-0.3702 0.50781,-0.54375 0.17835,-0.17355 0.3662398,-0.33896 0.5609398,-0.49531 0.19469,-0.15636 0.39653,-0.30432 0.60625,-0.44219 0.20972,-0.13787 0.42657,-0.26627 0.65,-0.38438 0.22343,-0.1181 0.45325,-0.22638 0.68906,-0.32343 0.23582,-0.0971 0.47812,-0.1831 0.725,-0.25782 0.24688,-0.0747 0.49807,-0.13796 0.75469,-0.18906 0.25662,-0.0511 0.51933,-0.0894 0.78437,-0.11562 0.26505,-0.0262 0.53254,-0.0406 0.80469,-0.0406 z"
       id="path3022"
       inkscape:connector-curvature="0" />
    <path
       style="fill:url(#radialGradient3820);fill-opacity:1;stroke:none"
       d="m 15.394325,591.85145 c -0.27215,0 -0.53964,0.0144 -0.80469,0.0406 -0.26504,0.0262 -0.52775,0.0645 -0.78437,0.11562 -0.25662,0.0511 -0.50781,0.11434 -0.75469,0.18906 -0.24688,0.0747 -0.48918,0.16076 -0.725,0.25782 -0.23581,0.0971 -0.46563,0.20533 -0.68906,0.32343 -0.22343,0.11811 -0.44028,0.24651 -0.65,0.38438 -0.20972,0.13787 -0.41156,0.28583 -0.60625,0.44219 -0.1947,0.15635 -0.3825898,0.32176 -0.5609398,0.49531 -0.17835,0.17355 -0.34714,0.35429 -0.50781,0.54375 -0.16068,0.18945 -0.313,0.38654 -0.45469,0.59062 -0.14168,0.20408 -0.27238,0.4154 -0.39375,0.63282 -0.12137,0.21741 -0.23307,0.44084 -0.33281,0.67031 -0.0997,0.22947 -0.18884,0.46445 -0.26563,0.70469 -0.0768,0.24023 -0.14123,0.48622 -0.19375,0.73593 -0.0525,0.24972 -0.0918,0.50459 -0.11875,0.7625 -0.0269,0.25792 -0.0406,0.51955 -0.0406,0.78438 0,0.26482 0.0137,0.52646 0.0406,0.78437 0.0269,0.25792 0.0662,0.51122 0.11875,0.76094 0.0525,0.24972 0.11697,0.4957 0.19375,0.73594 0.0768,0.24024 0.16589,0.47522 0.26563,0.70469 0.0997,0.22947 0.21144,0.45289 0.33281,0.67031 0.12137,0.21742 0.25207,0.42873 0.39375,0.63281 0.14169,0.20408 0.29401,0.40117 0.45469,0.59063 0.16067,0.18945 0.32946,0.37176 0.50781,0.54531 0.17835,0.17355 0.3662398,0.3374 0.5609398,0.49375 0.19469,0.15635 0.39653,0.30431 0.60625,0.44219 0.20972,0.13787 0.42657,0.26626 0.65,0.38437 0.22343,0.11811 0.45325,0.22638 0.68906,0.32344 0.23582,0.0971 0.47812,0.18309 0.725,0.25781 0.24688,0.0747 0.49807,0.13796 0.75469,0.18906 0.25662,0.0511 0.51933,0.0894 0.78437,0.11563 0.26505,0.0262 0.53254,0.0406 0.80469,0.0406 0.27215,0 0.54121,-0.0144 0.80625,-0.0406 0.26505,-0.0262 0.52619,-0.0645 0.78281,-0.11563 0.25663,-0.0511 0.50937,-0.11434 0.75625,-0.18906 0.24688,-0.0747 0.48919,-0.16075 0.725,-0.25781 0.23582,-0.0971 0.46564,-0.20533 0.68907,-0.32344 0.22342,-0.11811 0.44027,-0.2465 0.65,-0.38437 0.20972,-0.13788 0.41155,-0.28584 0.60625,-0.44219 0.19469,-0.15635 0.38102,-0.3202 0.55937,-0.49375 0.17835,-0.17355 0.3487,-0.35586 0.50938,-0.54531 0.16067,-0.18946 0.313,-0.38655 0.45468,-0.59063 0.14169,-0.20408 0.27238,-0.41539 0.39375,-0.63281 0.12138,-0.21742 0.23307,-0.44084 0.33282,-0.67031 0.0997,-0.22947 0.18727,-0.46445 0.26406,-0.70469 0.0768,-0.24024 0.1428,-0.48622 0.19531,-0.73594 0.0525,-0.24972 0.0918,-0.50302 0.11875,-0.76094 0.0269,-0.25791 0.0406,-0.51955 0.0406,-0.78437 0,-0.26483 -0.0137,-0.52646 -0.0406,-0.78438 -0.0269,-0.25791 -0.0662,-0.51278 -0.11875,-0.7625 -0.0525,-0.24971 -0.11852,-0.4957 -0.19531,-0.73593 -0.0768,-0.24024 -0.16432,-0.47522 -0.26406,-0.70469 -0.0998,-0.22947 -0.21144,-0.4529 -0.33282,-0.67031 -0.12137,-0.21742 -0.25206,-0.42874 -0.39375,-0.63282 -0.14168,-0.20408 -0.29401,-0.40117 -0.45468,-0.59062 -0.16068,-0.18946 -0.33103,-0.3702 -0.50938,-0.54375 -0.17835,-0.17355 -0.36468,-0.33896 -0.55937,-0.49531 -0.1947,-0.15636 -0.39653,-0.30432 -0.60625,-0.44219 -0.20973,-0.13787 -0.42658,-0.26627 -0.65,-0.38438 -0.22343,-0.1181 -0.45325,-0.22638 -0.68907,-0.32343 -0.23581,-0.0971 -0.47812,-0.1831 -0.725,-0.25782 -0.24688,-0.0747 -0.49962,-0.13796 -0.75625,-0.18906 -0.25662,-0.0511 -0.51776,-0.0894 -0.78281,-0.11562 -0.26504,-0.0262 -0.5341,-0.0406 -0.80625,-0.0406 z"
       id="path3810"
       inkscape:connector-curvature="0" />
    <path
       style="fill:url(#linearGradient4246);fill-opacity:1;stroke:url(#linearGradient3865);stroke-width:1;stroke-miterlimit:4;stroke-dasharray:none"
       d="m 20.707162,610.01279 c 1.52669,-0.77802 2.78136,-1.83889 3.61994,-2.8393 l 5.68848,6.26102 c -0.46789,2.86357 -3.29981,3.76147 -4.94972,3.13052 z"
       id="path4238"
       inkscape:connector-curvature="0"
       sodipodi:nodetypes="ccccc" />
    <path
       style="fill:url(#radialGradient3861);fill-opacity:1;stroke:none"
       d="m 21.458031,610.16933 c 1.34992,-0.83106 1.736778,-1.15083 2.867334,-2.25502 l 5.134004,5.66555 c -0.849566,2.51078 -2.265476,2.85162 -4.093923,2.55516 z"
       id="path4238-3"
       inkscape:connector-curvature="0"
       sodipodi:nodetypes="ccccc" />
    <path
       id="path3833"
       d="M 303.34375,9.0625 C 177.98545,9.0625 76.375,109.42255 76.375,233.21875 c 0,123.7962 101.61045,224.15625 226.96875,224.15625 125.3583,0 227,-100.36005 227,-224.15625 0,-123.7962 -101.6417,-224.15625 -227,-224.15625 z"
       style="fill:none;stroke:url(#linearGradient3866);stroke-width:12;stroke-miterlimit:4;stroke-opacity:1;stroke-dasharray:none;filter:url(#filter3835)"
       inkscape:connector-curvature="0"
       sodipodi:nodetypes="sssss"
       transform="matrix(0.05,0,0,0.05,0.15682524,587.93426)" />
    <path
       sodipodi:type="arc"
       style="fill:none;stroke:url(#linearGradient3052);stroke-width:12;stroke-miterlimit:4;stroke-opacity:1;stroke-dasharray:none;filter:url(#filter3849)"
       id="path3817"
       sodipodi:cx="305"
       sodipodi:cy="223.5"
       sodipodi:rx="180"
       sodipodi:ry="176.5"
       d="m 485,223.5 a 180,176.5 0 1 1 -360,0 180,176.5 0 1 1 360,0 z"
       transform="matrix(0.05240268,0,0,0.05344183,-0.55248476,586.83747)" />
  </g>
</svg>
