<?xml version="1.0" encoding="UTF-8" standalone="no"?>
<!-- Created with Inkscape (http://www.inkscape.org/) -->

<svg
   xmlns:dc="http://purl.org/dc/elements/1.1/"
   xmlns:cc="http://creativecommons.org/ns#"
   xmlns:rdf="http://www.w3.org/1999/02/22-rdf-syntax-ns#"
   xmlns:svg="http://www.w3.org/2000/svg"
   xmlns="http://www.w3.org/2000/svg"
   xmlns:xlink="http://www.w3.org/1999/xlink"
   xmlns:sodipodi="http://sodipodi.sourceforge.net/DTD/sodipodi-0.dtd"
   xmlns:inkscape="http://www.inkscape.org/namespaces/inkscape"
   width="32"
   height="32"
   id="svg3993"
   sodipodi:version="0.32"
   inkscape:version="0.48.1 r9760"
   sodipodi:docname="magnifying-glass-shiny.svg"
   inkscape:output_extension="org.inkscape.output.svg.inkscape"
   version="1.0"
   inkscape:export-filename="magnifying-glass.png"
   inkscape:export-xdpi="2.3199999"
   inkscape:export-ydpi="2.3199999">
  <defs
     id="defs3995">
    <linearGradient
       id="linearGradient3831">
      <stop
         style="stop-color:#ffffff;stop-opacity:1;"
         offset="0"
         id="stop3833" />
      <stop
         id="stop3853"
         offset="0.21438295"
         style="stop-color:#ffffff;stop-opacity:0;" />
      <stop
         id="stop3843"
         offset="0.87306166"
         style="stop-color:#ffffff;stop-opacity:0;" />
      <stop
         style="stop-color:#ffffff;stop-opacity:1;"
         offset="1"
         id="stop3835" />
    </linearGradient>
    <linearGradient
       id="linearGradient3785">
      <stop
         style="stop-color:#e0ecf2;stop-opacity:0.22047244;"
         offset="0"
         id="stop3787" />
      <stop
         id="stop3807"
         offset="0.70465863"
         style="stop-color:#e3f1f3;stop-opacity:0.36220473;" />
      <stop
         style="stop-color:#b9e0e0;stop-opacity:0.22834645;"
         offset="1"
         id="stop3789" />
    </linearGradient>
    <linearGradient
       id="linearGradient7777">
      <stop
         style="stop-color:#7f6440;stop-opacity:1;"
         offset="0"
         id="stop4296" />
      <stop
         style="stop-color:#ff6000;stop-opacity:1;"
         offset="1"
         id="stop4298" />
    </linearGradient>
    <linearGradient
       id="linearGradient4232">
      <stop
         id="stop4234"
         offset="0"
         style="stop-color:#bbbbbb;stop-opacity:1;" />
      <stop
         id="stop4236"
         offset="1"
         style="stop-color:#000000;stop-opacity:1;" />
    </linearGradient>
    <linearGradient
       id="linearGradient3200">
      <stop
         style="stop-color:#ffffff;stop-opacity:1;"
         offset="0"
         id="stop3202" />
      <stop
         style="stop-color:#ffffff;stop-opacity:0;"
         offset="1"
         id="stop3204" />
    </linearGradient>
    <linearGradient
       inkscape:collect="always"
       xlink:href="#linearGradient7777"
       id="linearGradient4246"
       x1="427.37592"
       y1="542.37195"
       x2="560.3678"
       y2="263.70697"
       gradientUnits="userSpaceOnUse"
       gradientTransform="matrix(0.05223845,0,0,0.05147921,1.6242364,586.87932)" />
    <radialGradient
       inkscape:collect="always"
       xlink:href="#linearGradient3785"
       id="radialGradient3820"
       cx="304.76562"
       cy="231.79688"
       fx="304.76562"
       fy="231.79688"
       r="157.67188"
       gradientTransform="matrix(0.05,0,0,0.04866217,0.35940762,588.21038)"
       gradientUnits="userSpaceOnUse" />
    <radialGradient
       inkscape:collect="always"
       xlink:href="#linearGradient4232"
       id="radialGradient3831"
       cx="301.32986"
       cy="234.6981"
       fx="301.32986"
       fy="234.6981"
       r="226.98438"
       gradientTransform="matrix(0.06152394,1.14977e-4,-1.16733e-4,0.0624638,-2.9135124,584.93714)"
       gradientUnits="userSpaceOnUse" />
    <filter
       inkscape:collect="always"
       id="filter3835"
       color-interpolation-filters="sRGB">
      <feGaussianBlur
         inkscape:collect="always"
         stdDeviation="4.7369766"
         id="feGaussianBlur3837" />
    </filter>
    <linearGradient
       id="linearGradient7778">
      <stop
         style="stop-color:#ff6101;stop-opacity:1;"
         offset="0"
         id="stop4296-7" />
      <stop
         style="stop-color:#523d1a;stop-opacity:0;"
         offset="1"
         id="stop4298-6" />
    </linearGradient>
    <linearGradient
       inkscape:collect="always"
       xlink:href="#linearGradient3200"
       id="linearGradient3866"
       x1="360.58765"
       y1="2.2424862"
       x2="233.83633"
       y2="601.47168"
       gradientUnits="userSpaceOnUse" />
    <linearGradient
       inkscape:collect="always"
       xlink:href="#linearGradient3200"
       id="linearGradient3842"
       x1="470.61496"
       y1="683.4682"
       x2="511.98843"
       y2="454.6236"
       gradientUnits="userSpaceOnUse" />
    <radialGradient
       inkscape:collect="always"
       xlink:href="#linearGradient7778"
       id="radialGradient3873"
       cx="524.43884"
       cy="529.97742"
       fx="524.43884"
       fy="529.97742"
       r="84.939293"
       gradientTransform="matrix(0.06101228,0.05767167,-0.02801741,0.02964032,8.3078464,568.80135)"
       gradientUnits="userSpaceOnUse" />
    <linearGradient
       inkscape:collect="always"
       xlink:href="#linearGradient3831"
       id="linearGradient3837"
       x1="338.73737"
       y1="49.157681"
       x2="262.19125"
       y2="390.72629"
       gradientUnits="userSpaceOnUse" />
    <filter
       inkscape:collect="always"
       id="filter3849"
       color-interpolation-filters="sRGB">
      <feGaussianBlur
         inkscape:collect="always"
         stdDeviation="5.3472423"
         id="feGaussianBlur3851" />
    </filter>
    <filter
       inkscape:collect="always"
       id="filter3807"
       color-interpolation-filters="sRGB">
      <feGaussianBlur
         inkscape:collect="always"
         stdDeviation="18.957036"
         id="feGaussianBlur3809" />
    </filter>
    <filter
       inkscape:collect="always"
       id="filter3799"
       color-interpolation-filters="sRGB">
      <feGaussianBlur
         inkscape:collect="always"
         stdDeviation="3.2043148"
         id="feGaussianBlur3801" />
    </filter>
    <radialGradient
       inkscape:collect="always"
       xlink:href="#linearGradient3200"
       id="radialGradient3803"
       cx="460.87302"
       cy="422.51767"
       fx="460.87302"
       fy="422.51767"
       r="71.993492"
       gradientTransform="matrix(-0.12456595,-0.05095717,0.0191803,-0.04688668,75.78026,651.20673)"
       gradientUnits="userSpaceOnUse" />
    <linearGradient
       inkscape:collect="always"
       xlink:href="#linearGradient7777"
       id="linearGradient3812"
       x1="489.03317"
       y1="635.05096"
       x2="483.74493"
       y2="709.20807"
       gradientUnits="userSpaceOnUse"
       gradientTransform="matrix(0.05,0,0,0.05,0.50646644,588.00531)" />
  </defs>
  <sodipodi:namedview
     id="base"
     pagecolor="#ffffff"
     bordercolor="#666666"
     borderopacity="1.0"
     gridtolerance="10000"
     guidetolerance="10"
     objecttolerance="10"
     inkscape:pageopacity="0.0"
     inkscape:pageshadow="2"
     inkscape:zoom="16.829141"
     inkscape:cx="4.0700442"
     inkscape:cy="10.811941"
     inkscape:document-units="px"
     inkscape:current-layer="layer1"
     showgrid="false"
     inkscape:window-width="1870"
     inkscape:window-height="1056"
     inkscape:window-x="50"
     inkscape:window-y="24"
     inkscape:window-maximized="1" />
  <metadata
     id="metadata3998">
    <rdf:RDF>
      <cc:Work
         rdf:about="">
        <dc:format>image/svg+xml</dc:format>
        <dc:type
           rdf:resource="http://purl.org/dc/dcmitype/StillImage" />
        <dc:title />
      </cc:Work>
    </rdf:RDF>
  </metadata>
  <g
     inkscape:label="Layer 1"
     inkscape:groupmode="layer"
     id="layer1"
     transform="translate(0,-588)">
    <g
       id="g3803"
       style="filter:url(#filter3807)"
       transform="matrix(0.05,0,0,0.05,0.56108762,587.56414)">
      <path
         inkscape:connector-curvature="0"
         id="path3022-3"
         d="m 276.8796,47.915393 c -125.3583,0 -226.968752,100.360047 -226.968752,224.156257 0,123.7962 101.610452,224.15625 226.968752,224.15625 125.3583,0 227,-100.36005 227,-224.15625 0,-123.79621 -101.6417,-224.156257 -227,-224.156257 z m 1.40625,69.281247 c 5.44293,0 10.8241,0.28865 16.125,0.8125 5.3009,0.52385 10.5238,1.29051 15.65625,2.3125 5.13245,1.022 10.18742,2.28683 15.125,3.78125 4.93758,1.49443 9.78371,3.2151 14.5,5.15625 4.71629,1.94115 9.31267,4.10659 13.78125,6.46875 4.46858,2.36217 8.80556,4.93003 13,7.6875 4.19444,2.75747 8.23111,5.71669 12.125,8.84375 3.89389,3.12706 7.62058,6.43531 11.1875,9.90626 3.56692,3.47095 6.97398,7.08588 10.1875,10.875 3.21352,3.78912 6.26004,7.73091 9.09375,11.8125 2.83371,4.08159 5.44752,8.30791 7.875,12.65625 2.42748,4.34834 4.66143,8.81686 6.65625,13.40625 1.99482,4.58939 3.7455,9.28902 5.28125,14.09375 1.53575,4.80473 2.856,9.72439 3.90625,14.71875 1.05025,4.99436 1.83666,10.09172 2.375,15.25 0.53834,5.15828 0.8125,10.39101 0.8125,15.6875 0,5.29649 -0.27416,10.52922 -0.8125,15.6875 -0.53834,5.15828 -1.32475,10.22439 -2.375,15.21875 -1.05025,4.99436 -2.3705,9.91402 -3.90625,14.71875 -1.53575,4.80473 -3.28643,9.50436 -5.28125,14.09375 -1.99482,4.58939 -4.22877,9.05791 -6.65625,13.40625 -2.42748,4.34834 -5.04129,8.57466 -7.875,12.65625 -2.83371,4.08159 -5.88023,8.02338 -9.09375,11.8125 -3.21352,3.78912 -6.62058,7.4353 -10.1875,10.90625 -3.56692,3.47095 -7.29361,6.74794 -11.1875,9.875 -3.89389,3.12706 -7.93056,6.08628 -12.125,8.84375 -4.19444,2.75747 -8.53142,5.32534 -13,7.6875 -4.46858,2.36216 -9.06496,4.5276 -13.78125,6.46875 -4.71629,1.94115 -9.56242,3.66182 -14.5,5.15625 -4.93758,1.49443 -9.99255,2.75926 -15.125,3.78125 -5.13245,1.02199 -10.35535,1.78865 -15.65625,2.3125 -5.3009,0.52385 -10.68207,0.8125 -16.125,0.8125 -5.44293,0 -10.79285,-0.28865 -16.09375,-0.8125 -5.3009,-0.52385 -10.55505,-1.29051 -15.6875,-2.3125 -5.13245,-1.02199 -10.15617,-2.28682 -15.09375,-3.78125 -4.93758,-1.49443 -9.78371,-3.2151 -14.5,-5.15625 -4.71629,-1.94115 -9.31267,-4.10659 -13.78125,-6.46875 -4.46858,-2.36216 -8.80556,-4.93003 -13,-7.6875 -4.19444,-2.75747 -8.23111,-5.71669 -12.125,-8.84375 -3.89389,-3.12706 -7.65183,-6.40405 -11.21875,-9.875 -3.56692,-3.47095 -6.94273,-7.11713 -10.15625,-10.90625 -3.21352,-3.78912 -6.26004,-7.73091 -9.09375,-11.8125 -2.83371,-4.08159 -5.44752,-8.30791 -7.875,-12.65625 -2.42748,-4.34834 -4.66143,-8.81686 -6.65625,-13.40625 -1.99482,-4.58939 -3.77675,-9.28902 -5.3125,-14.09375 -1.53575,-4.80473 -2.82475,-9.72439 -3.875,-14.71875 -1.05025,-4.99436 -1.83666,-10.06047 -2.375,-15.21875 -0.53834,-5.15828 -0.8125,-10.39101 -0.8125,-15.6875 0,-5.29649 0.27416,-10.52922 0.8125,-15.6875 0.53834,-5.15828 1.32475,-10.25564 2.375,-15.25 1.05025,-4.99436 2.33925,-9.91402 3.875,-14.71875 1.53575,-4.80473 3.31768,-9.50436 5.3125,-14.09375 1.99482,-4.58939 4.22877,-9.05791 6.65625,-13.40625 2.42748,-4.34834 5.04129,-8.57466 7.875,-12.65625 2.83371,-4.08159 5.88023,-8.02338 9.09375,-11.8125 3.21352,-3.78912 6.58933,-7.40405 10.15625,-10.875 3.56692,-3.47095 7.32486,-6.7792 11.21875,-9.90626 3.89389,-3.12706 7.93056,-6.08628 12.125,-8.84375 4.19444,-2.75747 8.53142,-5.32533 13,-7.6875 4.46858,-2.36216 9.06496,-4.5276 13.78125,-6.46875 4.71629,-1.94115 9.56242,-3.66182 14.5,-5.15625 4.93758,-1.49442 9.9613,-2.75925 15.09375,-3.78125 5.13245,-1.02199 10.3866,-1.78865 15.6875,-2.3125 5.3009,-0.52385 10.65082,-0.8125 16.09375,-0.8125 z"
         style="fill:#000000;fill-opacity:0.78431373;stroke:none" />
      <path
         sodipodi:nodetypes="ccccc"
         inkscape:connector-curvature="0"
         id="path4238-36"
         d="m 385.94436,479.13772 c 30.53389,-15.56049 55.62717,-36.77783 72.39881,-56.78601 l 113.76956,125.22045 c -9.35767,57.27137 -65.99619,75.22934 -98.99429,62.61022 z"
         style="fill:#000000;fill-opacity:0.78431373;stroke:none" />
    </g>
    <path
       style="fill:url(#radialGradient3831);fill-opacity:1;stroke:none"
       d="m 15.526598,588.3534 c -6.2679204,0 -11.3484404,5.018 -11.3484404,11.20781 0,6.18981 5.08052,11.20781 11.3484404,11.20781 6.26791,0 11.35,-5.018 11.35,-11.20781 0,-6.18981 -5.08209,-11.20781 -11.35,-11.20781 z m 0.0703,3.46406 c 0.27215,0 0.54121,0.0144 0.80625,0.0406 0.26505,0.0262 0.52619,0.0645 0.78281,0.11563 0.25663,0.0511 0.50938,0.11434 0.75625,0.18906 0.24688,0.0747 0.48919,0.16076 0.725,0.25781 0.23582,0.0971 0.46564,0.20533 0.68907,0.32344 0.22343,0.11811 0.44027,0.2465 0.65,0.38438 0.20972,0.13787 0.41155,0.28583 0.60625,0.44218 0.19469,0.15636 0.38103,0.32177 0.55937,0.49532 0.17835,0.17354 0.3487,0.35429 0.50938,0.54375 0.16067,0.18945 0.313,0.38654 0.45468,0.59062 0.14169,0.20408 0.27238,0.4154 0.39375,0.63281 0.12138,0.21742 0.23308,0.44085 0.33282,0.67032 0.0997,0.22947 0.18727,0.46445 0.26406,0.70468 0.0768,0.24024 0.1428,0.48622 0.19531,0.73594 0.0525,0.24972 0.0918,0.50459 0.11875,0.7625 0.0269,0.25792 0.0406,0.51955 0.0406,0.78438 0,0.26482 -0.0137,0.52646 -0.0406,0.78437 -0.0269,0.25792 -0.0662,0.51122 -0.11875,0.76094 -0.0525,0.24972 -0.11852,0.4957 -0.19531,0.73594 -0.0768,0.24023 -0.16432,0.47522 -0.26406,0.70468 -0.0997,0.22947 -0.21144,0.4529 -0.33282,0.67032 -0.12137,0.21741 -0.25206,0.42873 -0.39375,0.63281 -0.14168,0.20408 -0.29401,0.40117 -0.45468,0.59062 -0.16068,0.18946 -0.33103,0.37177 -0.50938,0.54532 -0.17834,0.17354 -0.36468,0.33739 -0.55937,0.49375 -0.1947,0.15635 -0.39653,0.30431 -0.60625,0.44218 -0.20973,0.13788 -0.42657,0.26627 -0.65,0.38438 -0.22343,0.11811 -0.45325,0.22638 -0.68907,0.32344 -0.23581,0.0971 -0.47812,0.18309 -0.725,0.25781 -0.24687,0.0747 -0.49962,0.13796 -0.75625,0.18906 -0.25662,0.0511 -0.51776,0.0894 -0.78281,0.11563 -0.26504,0.0262 -0.5341,0.0406 -0.80625,0.0406 -0.27214,0 -0.53964,-0.0144 -0.80469,-0.0406 -0.26504,-0.0262 -0.52775,-0.0645 -0.78437,-0.11563 -0.25662,-0.0511 -0.50781,-0.11434 -0.75469,-0.18906 -0.24688,-0.0747 -0.48918,-0.16076 -0.725,-0.25781 -0.23581,-0.0971 -0.46563,-0.20533 -0.68906,-0.32344 -0.22343,-0.11811 -0.44028,-0.2465 -0.65,-0.38438 -0.20972,-0.13787 -0.41156,-0.28583 -0.60625,-0.44218 -0.1947,-0.15636 -0.38259,-0.32021 -0.56094,-0.49375 -0.1783404,-0.17355 -0.3471304,-0.35586 -0.5078104,-0.54532 -0.16068,-0.18945 -0.313,-0.38654 -0.45469,-0.59062 -0.14168,-0.20408 -0.27237,-0.4154 -0.39375,-0.63281 -0.12137,-0.21742 -0.23307,-0.44085 -0.33281,-0.67032 -0.0997,-0.22946 -0.18884,-0.46445 -0.26563,-0.70468 -0.0768,-0.24024 -0.14123,-0.48622 -0.19375,-0.73594 -0.0525,-0.24972 -0.0918,-0.50302 -0.11875,-0.76094 -0.0269,-0.25791 -0.0406,-0.51955 -0.0406,-0.78437 0,-0.26483 0.0137,-0.52646 0.0406,-0.78438 0.0269,-0.25791 0.0662,-0.51278 0.11875,-0.7625 0.0525,-0.24972 0.11697,-0.4957 0.19375,-0.73594 0.0768,-0.24023 0.16589,-0.47521 0.26563,-0.70468 0.0997,-0.22947 0.21144,-0.4529 0.33281,-0.67032 0.12138,-0.21741 0.25207,-0.42873 0.39375,-0.63281 0.14169,-0.20408 0.29401,-0.40117 0.45469,-0.59062 0.16068,-0.18946 0.32947,-0.37021 0.5078104,-0.54375 0.17835,-0.17355 0.36624,-0.33896 0.56094,-0.49532 0.19469,-0.15635 0.39653,-0.30431 0.60625,-0.44218 0.20972,-0.13788 0.42657,-0.26627 0.65,-0.38438 0.22343,-0.11811 0.45325,-0.22638 0.68906,-0.32344 0.23582,-0.097 0.47812,-0.18309 0.725,-0.25781 0.24688,-0.0747 0.49807,-0.13796 0.75469,-0.18906 0.25662,-0.0511 0.51933,-0.0894 0.78437,-0.11563 0.26505,-0.0262 0.53255,-0.0406 0.80469,-0.0406 z"
       id="path3022"
       inkscape:connector-curvature="0" />
    <path
       style="fill:url(#radialGradient3820);fill-opacity:1;stroke:none"
       d="m 15.596908,591.81746 c -0.27214,0 -0.53964,0.0144 -0.80469,0.0406 -0.26504,0.0262 -0.52775,0.0645 -0.78437,0.11563 -0.25662,0.0511 -0.50781,0.11434 -0.75469,0.18906 -0.24688,0.0747 -0.48918,0.16076 -0.725,0.25781 -0.23581,0.0971 -0.46563,0.20533 -0.68906,0.32344 -0.22343,0.11811 -0.44028,0.2465 -0.65,0.38438 -0.20972,0.13787 -0.41156,0.28583 -0.60625,0.44218 -0.1947,0.15636 -0.38259,0.32177 -0.56094,0.49532 -0.1783404,0.17354 -0.3471304,0.35429 -0.5078104,0.54375 -0.16068,0.18945 -0.313,0.38654 -0.45469,0.59062 -0.14168,0.20408 -0.27237,0.4154 -0.39375,0.63281 -0.12137,0.21742 -0.23307,0.44085 -0.33281,0.67032 -0.0997,0.22947 -0.18884,0.46445 -0.26563,0.70468 -0.0768,0.24024 -0.14123,0.48622 -0.19375,0.73594 -0.0525,0.24972 -0.0918,0.50459 -0.11875,0.7625 -0.0269,0.25792 -0.0406,0.51955 -0.0406,0.78438 0,0.26482 0.0137,0.52646 0.0406,0.78437 0.0269,0.25792 0.0662,0.51122 0.11875,0.76094 0.0525,0.24972 0.11697,0.4957 0.19375,0.73594 0.0768,0.24023 0.16589,0.47522 0.26563,0.70468 0.0997,0.22947 0.21144,0.4529 0.33281,0.67032 0.12138,0.21741 0.25207,0.42873 0.39375,0.63281 0.14169,0.20408 0.29401,0.40117 0.45469,0.59062 0.16068,0.18946 0.32947,0.37177 0.5078104,0.54532 0.17835,0.17354 0.36624,0.33739 0.56094,0.49375 0.19469,0.15635 0.39653,0.30431 0.60625,0.44218 0.20972,0.13788 0.42657,0.26627 0.65,0.38438 0.22343,0.11811 0.45325,0.22638 0.68906,0.32344 0.23582,0.0971 0.47812,0.18309 0.725,0.25781 0.24688,0.0747 0.49807,0.13796 0.75469,0.18906 0.25662,0.0511 0.51933,0.0894 0.78437,0.11563 0.26505,0.0262 0.53255,0.0406 0.80469,0.0406 0.27215,0 0.54121,-0.0144 0.80625,-0.0406 0.26505,-0.0262 0.52619,-0.0645 0.78281,-0.11563 0.25663,-0.0511 0.50938,-0.11434 0.75625,-0.18906 0.24688,-0.0747 0.48919,-0.16076 0.725,-0.25781 0.23582,-0.0971 0.46564,-0.20533 0.68907,-0.32344 0.22343,-0.11811 0.44027,-0.2465 0.65,-0.38438 0.20972,-0.13787 0.41155,-0.28583 0.60625,-0.44218 0.19469,-0.15636 0.38103,-0.32021 0.55937,-0.49375 0.17835,-0.17355 0.3487,-0.35586 0.50938,-0.54532 0.16067,-0.18945 0.313,-0.38654 0.45468,-0.59062 0.14169,-0.20408 0.27238,-0.4154 0.39375,-0.63281 0.12138,-0.21742 0.23308,-0.44085 0.33282,-0.67032 0.0997,-0.22946 0.18727,-0.46445 0.26406,-0.70468 0.0768,-0.24024 0.1428,-0.48622 0.19531,-0.73594 0.0525,-0.24972 0.0918,-0.50302 0.11875,-0.76094 0.0269,-0.25791 0.0406,-0.51955 0.0406,-0.78437 0,-0.26483 -0.0137,-0.52646 -0.0406,-0.78438 -0.0269,-0.25791 -0.0662,-0.51278 -0.11875,-0.7625 -0.0525,-0.24972 -0.11852,-0.4957 -0.19531,-0.73594 -0.0768,-0.24023 -0.16432,-0.47521 -0.26406,-0.70468 -0.0997,-0.22947 -0.21144,-0.4529 -0.33282,-0.67032 -0.12137,-0.21741 -0.25206,-0.42873 -0.39375,-0.63281 -0.14168,-0.20408 -0.29401,-0.40117 -0.45468,-0.59062 -0.16068,-0.18946 -0.33103,-0.37021 -0.50938,-0.54375 -0.17834,-0.17355 -0.36468,-0.33896 -0.55937,-0.49532 -0.1947,-0.15635 -0.39653,-0.30431 -0.60625,-0.44218 -0.20973,-0.13788 -0.42657,-0.26627 -0.65,-0.38438 -0.22343,-0.11811 -0.45325,-0.22638 -0.68907,-0.32344 -0.23581,-0.097 -0.47812,-0.18309 -0.725,-0.25781 -0.24687,-0.0747 -0.49962,-0.13796 -0.75625,-0.18906 -0.25662,-0.0511 -0.51776,-0.0894 -0.78281,-0.11563 -0.26504,-0.0262 -0.5341,-0.0406 -0.80625,-0.0406 z"
       id="path3810"
       inkscape:connector-curvature="0" />
    <path
       style="fill:url(#linearGradient4246);fill-opacity:1;stroke:url(#linearGradient3812);stroke-width:1;stroke-miterlimit:4;stroke-opacity:1;stroke-dasharray:none"
       d="m 20.979837,609.91451 c 1.52669,-0.77802 2.78136,-1.83889 3.61994,-2.8393 l 5.68848,6.26102 c -0.46789,2.86357 -3.29981,3.76147 -4.94972,3.13051 z"
       id="path4238"
       inkscape:connector-curvature="0"
       sodipodi:nodetypes="ccccc" />
    <path
       id="path3833"
       d="M 303.34375,9.0625 C 177.98545,9.0625 76.375,109.42255 76.375,233.21875 c 0,123.7962 101.61045,224.15625 226.96875,224.15625 125.3583,0 227,-100.36005 227,-224.15625 0,-123.7962 -101.6417,-224.15625 -227,-224.15625 z"
       style="fill:none;stroke:url(#linearGradient3866);stroke-width:12;stroke-miterlimit:4;stroke-opacity:1;stroke-dasharray:none;filter:url(#filter3835)"
       inkscape:connector-curvature="0"
       sodipodi:nodetypes="sssss"
       transform="matrix(0.05,0,0,0.05,0.35940762,587.90027)" />
    <path
       style="fill:url(#radialGradient3873);fill-opacity:1;stroke:none"
       d="m 21.702365,610.05431 c 1.34991,-0.83106 1.698842,-1.15488 2.890972,-2.24368 l 5.170184,5.68774 c -0.444758,1.86227 -2.336606,2.98295 -4.029222,2.50042 z"
       id="path4238-3-3"
       inkscape:connector-curvature="0"
       sodipodi:nodetypes="ccccc" />
    <path
       style="fill:none;stroke:url(#linearGradient3842);stroke-width:12;stroke-miterlimit:4;stroke-opacity:1;stroke-dasharray:none;filter:url(#filter3799)"
       d="m 434.22067,443.62448 c 26.99836,-16.62116 23.89287,-12.92948 47.73557,-34.70542 l 94.49595,101.90613 c -14.52535,31.19506 -30.84971,45.3731 -67.22302,42.27726 z"
       id="path4238-3-0"
       inkscape:connector-curvature="0"
       sodipodi:nodetypes="ccccc"
       transform="matrix(0.05,0,0,0.05,0.50646644,588.00531)" />
    <path
       sodipodi:type="arc"
       style="fill:none;stroke:url(#linearGradient3837);stroke-width:12;stroke-miterlimit:4;stroke-opacity:1;stroke-dasharray:none;filter:url(#filter3849)"
       id="path3817"
       sodipodi:cx="305"
       sodipodi:cy="223.5"
       sodipodi:rx="180"
       sodipodi:ry="176.5"
       d="m 485,223.5 a 180,176.5 0 1 1 -360,0 180,176.5 0 1 1 360,0 z"
       transform="matrix(0.05240268,0,0,0.05344183,-0.20077239,586.79789)" />
    <path
       style="fill:url(#radialGradient3803);fill-opacity:1;stroke:none"
       d="m 22.44545,609.61644 c 0.736839,-0.5085 1.551742,-1.07125 2.132998,-1.82402 l 5.178578,5.74657 c -4.35015,-3.5753 -3.745496,-1.48423 -7.311576,-3.92255 z"
       id="path4238-3"
       inkscape:connector-curvature="0"
       sodipodi:nodetypes="cccc" />
  </g>
</svg>
