<?xml version="1.0" encoding="UTF-8" standalone="no"?>
<!-- Created with Inkscape (http://www.inkscape.org/) -->

<svg
   xmlns:dc="http://purl.org/dc/elements/1.1/"
   xmlns:cc="http://creativecommons.org/ns#"
   xmlns:rdf="http://www.w3.org/1999/02/22-rdf-syntax-ns#"
   xmlns:svg="http://www.w3.org/2000/svg"
   xmlns="http://www.w3.org/2000/svg"
   xmlns:xlink="http://www.w3.org/1999/xlink"
   xmlns:sodipodi="http://sodipodi.sourceforge.net/DTD/sodipodi-0.dtd"
   xmlns:inkscape="http://www.inkscape.org/namespaces/inkscape"
   width="620"
   height="620"
   id="svg3993"
   sodipodi:version="0.32"
   inkscape:version="0.48.1 r9760"
   sodipodi:docname="magnifying-glass-shiny.svg"
   inkscape:output_extension="org.inkscape.output.svg.inkscape"
   version="1.0"
   inkscape:export-filename="magnifying-glass.png"
   inkscape:export-xdpi="2.3199999"
   inkscape:export-ydpi="2.3199999">
  <defs
     id="defs3995">
    <linearGradient
       id="linearGradient3831">
      <stop
         style="stop-color:#ffffff;stop-opacity:1;"
         offset="0"
         id="stop3833" />
      <stop
         id="stop3853"
         offset="0.21438295"
         style="stop-color:#ffffff;stop-opacity:0;" />
      <stop
         id="stop3843"
         offset="0.87306166"
         style="stop-color:#ffffff;stop-opacity:0;" />
      <stop
         style="stop-color:#ffffff;stop-opacity:1;"
         offset="1"
         id="stop3835" />
    </linearGradient>
    <linearGradient
       id="linearGradient3785">
      <stop
         style="stop-color:#e0ecf2;stop-opacity:0.22047244;"
         offset="0"
         id="stop3787" />
      <stop
         id="stop3807"
         offset="0.70465863"
         style="stop-color:#e3f1f3;stop-opacity:0.36220473;" />
      <stop
         style="stop-color:#b9e0e0;stop-opacity:0.22834645;"
         offset="1"
         id="stop3789" />
    </linearGradient>
    <linearGradient
       id="diffuseColorGradient">
      <stop
         style="stop-color:#7f6440;stop-opacity:1;"
         offset="0"
         id="stop4296" />
      <stop
         style="stop-color:#ff6000;stop-opacity:1;"
         offset="1"
         id="stop4298" />
    </linearGradient>
    <linearGradient
       id="linearGradient4232">
      <stop
         id="stop4234"
         offset="0"
         style="stop-color:#bbbbbb;stop-opacity:1;" />
      <stop
         id="stop4236"
         offset="1"
         style="stop-color:#000000;stop-opacity:1;" />
    </linearGradient>
    <linearGradient
       id="linearGradient3200">
      <stop
         style="stop-color:#ffffff;stop-opacity:1;"
         offset="0"
         id="stop3202" />
      <stop
         style="stop-color:#ffffff;stop-opacity:0;"
         offset="1"
         id="stop3204" />
    </linearGradient>
    <linearGradient
       inkscape:collect="always"
       xlink:href="#diffuseColorGradient"
       id="linearGradient4246"
       x1="427.37592"
       y1="542.37195"
       x2="560.3678"
       y2="263.70697"
       gradientUnits="userSpaceOnUse"
       gradientTransform="matrix(1.0447691,0,0,1.0295841,22.355336,-22.519839)" />
    <radialGradient
       inkscape:collect="always"
       xlink:href="#linearGradient3785"
       id="radialGradient3820"
       cx="304.76562"
       cy="231.79688"
       fx="304.76562"
       fy="231.79688"
       r="157.67188"
       gradientTransform="matrix(1,0,0,0.97324348,0,6.2020767)"
       gradientUnits="userSpaceOnUse" />
    <radialGradient
       inkscape:collect="always"
       xlink:href="#linearGradient4232"
       id="radialGradient3831"
       cx="301.32986"
       cy="234.6981"
       fx="301.32986"
       fy="234.6981"
       r="226.98438"
       gradientTransform="matrix(1.2304788,0.00229954,-0.00233466,1.249276,-65.458514,-59.26267)"
       gradientUnits="userSpaceOnUse" />
    <filter
       inkscape:collect="always"
       id="filter3835">
      <feGaussianBlur
         inkscape:collect="always"
         stdDeviation="4.7369766"
         id="feGaussianBlur3837" />
    </filter>
    <linearGradient
       id="undershineGradient">
      <stop
         style="stop-color:#ff6101;stop-opacity:1;"
         offset="0"
         id="stop4296-7" />
      <stop
         style="stop-color:#523d1a;stop-opacity:0;"
         offset="1"
         id="stop4298-6" />
    </linearGradient>
    <linearGradient
       inkscape:collect="always"
       xlink:href="#linearGradient3200"
       id="linearGradient3866"
       x1="360.58765"
       y1="2.2424862"
       x2="233.83633"
       y2="601.47168"
       gradientUnits="userSpaceOnUse" />
    <linearGradient
       inkscape:collect="always"
       xlink:href="#linearGradient3200"
       id="linearGradient3842"
       x1="470.61496"
       y1="683.4682"
       x2="511.98843"
       y2="454.6236"
       gradientUnits="userSpaceOnUse" />
    <radialGradient
       inkscape:collect="always"
       xlink:href="#undershineGradient"
       id="radialGradient3873"
       cx="524.43884"
       cy="529.97742"
       fx="524.43884"
       fy="529.97742"
       r="84.939293"
       gradientTransform="matrix(1.2202457,1.1534333,-0.56034826,0.59280638,156.02759,-384.07923)"
       gradientUnits="userSpaceOnUse" />
    <linearGradient
       inkscape:collect="always"
       xlink:href="#linearGradient3831"
       id="linearGradient3837"
       x1="338.73737"
       y1="49.157681"
       x2="262.19125"
       y2="390.72629"
       gradientUnits="userSpaceOnUse" />
    <filter
       inkscape:collect="always"
       id="filter3849">
      <feGaussianBlur
         inkscape:collect="always"
         stdDeviation="5.3472423"
         id="feGaussianBlur3851" />
    </filter>
    <filter
       inkscape:collect="always"
       id="filter3807">
      <feGaussianBlur
         inkscape:collect="always"
         stdDeviation="18.957036"
         id="feGaussianBlur3809" />
    </filter>
    <filter
       inkscape:collect="always"
       id="filter3799">
      <feGaussianBlur
         inkscape:collect="always"
         stdDeviation="3.2043148"
         id="feGaussianBlur3801" />
    </filter>
    <radialGradient
       inkscape:collect="always"
       xlink:href="#linearGradient3200"
       id="radialGradient3803"
       cx="460.87302"
       cy="422.51767"
       fx="460.87302"
       fy="422.51767"
       r="71.993492"
       gradientTransform="matrix(-2.3845642,-0.98985924,0.36716816,-0.91078867,1422.8869,1245.2476)"
       gradientUnits="userSpaceOnUse" />
    <linearGradient
       inkscape:collect="always"
       xlink:href="#diffuseColorGradient"
       id="linearGradient3812"
       x1="489.03317"
       y1="635.05096"
       x2="483.74493"
       y2="709.20807"
       gradientUnits="userSpaceOnUse" />
  </defs>
  <sodipodi:namedview
     id="base"
     pagecolor="#ffffff"
     bordercolor="#666666"
     borderopacity="1.0"
     gridtolerance="10000"
     guidetolerance="10"
     objecttolerance="10"
     inkscape:pageopacity="0.0"
     inkscape:pageshadow="2"
     inkscape:zoom="0.52591067"
     inkscape:cx="419.07721"
     inkscape:cy="200.21799"
     inkscape:document-units="px"
     inkscape:current-layer="layer1"
     showgrid="false"
     inkscape:window-width="1167"
     inkscape:window-height="761"
     inkscape:window-x="302"
     inkscape:window-y="186"
     inkscape:window-maximized="0" />
  <metadata
     id="metadata3998">
    <rdf:RDF>
      <cc:Work
         rdf:about="">
        <dc:format>image/svg+xml</dc:format>
        <dc:type
           rdf:resource="http://purl.org/dc/dcmitype/StillImage" />
        <dc:title />
      </cc:Work>
    </rdf:RDF>
  </metadata>
  <g
     inkscape:label="Layer 1"
     inkscape:groupmode="layer"
     id="layer1">
    <g
       id="g3803"
       style="filter:url(#filter3807)"
       transform="translate(4.0336134,-6.7226891)">
      <path
         inkscape:connector-curvature="0"
         id="path3022-3"
         d="m 276.8796,47.915393 c -125.3583,0 -226.968752,100.360047 -226.968752,224.156257 0,123.7962 101.610452,224.15625 226.968752,224.15625 125.3583,0 227,-100.36005 227,-224.15625 0,-123.79621 -101.6417,-224.156257 -227,-224.156257 z m 1.40625,69.281247 c 5.44293,0 10.8241,0.28865 16.125,0.8125 5.3009,0.52385 10.5238,1.29051 15.65625,2.3125 5.13245,1.022 10.18742,2.28683 15.125,3.78125 4.93758,1.49443 9.78371,3.2151 14.5,5.15625 4.71629,1.94115 9.31267,4.10659 13.78125,6.46875 4.46858,2.36217 8.80556,4.93003 13,7.6875 4.19444,2.75747 8.23111,5.71669 12.125,8.84375 3.89389,3.12706 7.62058,6.43531 11.1875,9.90626 3.56692,3.47095 6.97398,7.08588 10.1875,10.875 3.21352,3.78912 6.26004,7.73091 9.09375,11.8125 2.83371,4.08159 5.44752,8.30791 7.875,12.65625 2.42748,4.34834 4.66143,8.81686 6.65625,13.40625 1.99482,4.58939 3.7455,9.28902 5.28125,14.09375 1.53575,4.80473 2.856,9.72439 3.90625,14.71875 1.05025,4.99436 1.83666,10.09172 2.375,15.25 0.53834,5.15828 0.8125,10.39101 0.8125,15.6875 0,5.29649 -0.27416,10.52922 -0.8125,15.6875 -0.53834,5.15828 -1.32475,10.22439 -2.375,15.21875 -1.05025,4.99436 -2.3705,9.91402 -3.90625,14.71875 -1.53575,4.80473 -3.28643,9.50436 -5.28125,14.09375 -1.99482,4.58939 -4.22877,9.05791 -6.65625,13.40625 -2.42748,4.34834 -5.04129,8.57466 -7.875,12.65625 -2.83371,4.08159 -5.88023,8.02338 -9.09375,11.8125 -3.21352,3.78912 -6.62058,7.4353 -10.1875,10.90625 -3.56692,3.47095 -7.29361,6.74794 -11.1875,9.875 -3.89389,3.12706 -7.93056,6.08628 -12.125,8.84375 -4.19444,2.75747 -8.53142,5.32534 -13,7.6875 -4.46858,2.36216 -9.06496,4.5276 -13.78125,6.46875 -4.71629,1.94115 -9.56242,3.66182 -14.5,5.15625 -4.93758,1.49443 -9.99255,2.75926 -15.125,3.78125 -5.13245,1.02199 -10.35535,1.78865 -15.65625,2.3125 -5.3009,0.52385 -10.68207,0.8125 -16.125,0.8125 -5.44293,0 -10.79285,-0.28865 -16.09375,-0.8125 -5.3009,-0.52385 -10.55505,-1.29051 -15.6875,-2.3125 -5.13245,-1.02199 -10.15617,-2.28682 -15.09375,-3.78125 -4.93758,-1.49443 -9.78371,-3.2151 -14.5,-5.15625 -4.71629,-1.94115 -9.31267,-4.10659 -13.78125,-6.46875 -4.46858,-2.36216 -8.80556,-4.93003 -13,-7.6875 -4.19444,-2.75747 -8.23111,-5.71669 -12.125,-8.84375 -3.89389,-3.12706 -7.65183,-6.40405 -11.21875,-9.875 -3.56692,-3.47095 -6.94273,-7.11713 -10.15625,-10.90625 -3.21352,-3.78912 -6.26004,-7.73091 -9.09375,-11.8125 -2.83371,-4.08159 -5.44752,-8.30791 -7.875,-12.65625 -2.42748,-4.34834 -4.66143,-8.81686 -6.65625,-13.40625 -1.99482,-4.58939 -3.77675,-9.28902 -5.3125,-14.09375 -1.53575,-4.80473 -2.82475,-9.72439 -3.875,-14.71875 -1.05025,-4.99436 -1.83666,-10.06047 -2.375,-15.21875 -0.53834,-5.15828 -0.8125,-10.39101 -0.8125,-15.6875 0,-5.29649 0.27416,-10.52922 0.8125,-15.6875 0.53834,-5.15828 1.32475,-10.25564 2.375,-15.25 1.05025,-4.99436 2.33925,-9.91402 3.875,-14.71875 1.53575,-4.80473 3.31768,-9.50436 5.3125,-14.09375 1.99482,-4.58939 4.22877,-9.05791 6.65625,-13.40625 2.42748,-4.34834 5.04129,-8.57466 7.875,-12.65625 2.83371,-4.08159 5.88023,-8.02338 9.09375,-11.8125 3.21352,-3.78912 6.58933,-7.40405 10.15625,-10.875 3.56692,-3.47095 7.32486,-6.7792 11.21875,-9.90626 3.89389,-3.12706 7.93056,-6.08628 12.125,-8.84375 4.19444,-2.75747 8.53142,-5.32533 13,-7.6875 4.46858,-2.36216 9.06496,-4.5276 13.78125,-6.46875 4.71629,-1.94115 9.56242,-3.66182 14.5,-5.15625 4.93758,-1.49442 9.9613,-2.75925 15.09375,-3.78125 5.13245,-1.02199 10.3866,-1.78865 15.6875,-2.3125 5.3009,-0.52385 10.65082,-0.8125 16.09375,-0.8125 z"
         style="fill:#000000;fill-opacity:0.78431373;stroke:none" />
      <path
         sodipodi:nodetypes="ccccc"
         inkscape:connector-curvature="0"
         id="path4238-36"
         d="m 383.00318,477.03688 c 30.53389,-15.56049 55.62717,-36.77783 72.39881,-56.78601 l 113.76956,125.22045 c -9.35767,57.27137 -65.99619,75.22934 -98.99429,62.61022 z"
         style="fill:#000000;fill-opacity:0.78431373;stroke:none" />
    </g>
    <path
       style="fill:url(#radialGradient3831);fill-opacity:1;stroke:none"
       d="M 303.34375,9.0625 C 177.98545,9.0625 76.375,109.42255 76.375,233.21875 c 0,123.7962 101.61045,224.15625 226.96875,224.15625 125.3583,0 227,-100.36005 227,-224.15625 0,-123.7962 -101.6417,-224.15625 -227,-224.15625 z M 304.75,78.34375 c 5.44293,0 10.8241,0.288649 16.125,0.8125 5.3009,0.523851 10.5238,1.290507 15.65625,2.3125 5.13245,1.021993 10.18742,2.286824 15.125,3.78125 4.93758,1.494426 9.78371,3.215101 14.5,5.15625 4.71629,1.941149 9.31267,4.106587 13.78125,6.46875 4.46858,2.362163 8.80556,4.93003 13,7.6875 4.19444,2.75747 8.23111,5.71669 12.125,8.84375 3.89389,3.12706 7.62058,6.4353 11.1875,9.90625 3.56692,3.47095 6.97398,7.08588 10.1875,10.875 3.21352,3.78912 6.26004,7.73091 9.09375,11.8125 2.83371,4.08159 5.44752,8.30791 7.875,12.65625 2.42748,4.34834 4.66143,8.81686 6.65625,13.40625 1.99482,4.58939 3.7455,9.28902 5.28125,14.09375 1.53575,4.80473 2.856,9.72439 3.90625,14.71875 1.05025,4.99436 1.83666,10.09172 2.375,15.25 0.53834,5.15828 0.8125,10.39101 0.8125,15.6875 0,5.29649 -0.27416,10.52922 -0.8125,15.6875 -0.53834,5.15828 -1.32475,10.22439 -2.375,15.21875 -1.05025,4.99436 -2.3705,9.91402 -3.90625,14.71875 -1.53575,4.80473 -3.28643,9.50436 -5.28125,14.09375 -1.99482,4.58939 -4.22877,9.05791 -6.65625,13.40625 -2.42748,4.34834 -5.04129,8.57466 -7.875,12.65625 -2.83371,4.08159 -5.88023,8.02338 -9.09375,11.8125 -3.21352,3.78912 -6.62058,7.4353 -10.1875,10.90625 -3.56692,3.47095 -7.29361,6.74794 -11.1875,9.875 -3.89389,3.12706 -7.93056,6.08628 -12.125,8.84375 -4.19444,2.75747 -8.53142,5.32534 -13,7.6875 -4.46858,2.36216 -9.06496,4.5276 -13.78125,6.46875 -4.71629,1.94115 -9.56242,3.66182 -14.5,5.15625 -4.93758,1.49443 -9.99255,2.75926 -15.125,3.78125 -5.13245,1.02199 -10.35535,1.78865 -15.65625,2.3125 -5.3009,0.52385 -10.68207,0.8125 -16.125,0.8125 -5.44293,0 -10.79285,-0.28865 -16.09375,-0.8125 -5.3009,-0.52385 -10.55505,-1.29051 -15.6875,-2.3125 -5.13245,-1.02199 -10.15617,-2.28682 -15.09375,-3.78125 -4.93758,-1.49443 -9.78371,-3.2151 -14.5,-5.15625 -4.71629,-1.94115 -9.31267,-4.10659 -13.78125,-6.46875 -4.46858,-2.36216 -8.80556,-4.93003 -13,-7.6875 -4.19444,-2.75747 -8.23111,-5.71669 -12.125,-8.84375 -3.89389,-3.12706 -7.65183,-6.40405 -11.21875,-9.875 -3.56692,-3.47095 -6.94273,-7.11713 -10.15625,-10.90625 -3.21352,-3.78912 -6.26004,-7.73091 -9.09375,-11.8125 -2.83371,-4.08159 -5.44752,-8.30791 -7.875,-12.65625 -2.42748,-4.34834 -4.66143,-8.81686 -6.65625,-13.40625 -1.99482,-4.58939 -3.77675,-9.28902 -5.3125,-14.09375 -1.53575,-4.80473 -2.82475,-9.72439 -3.875,-14.71875 -1.05025,-4.99436 -1.83666,-10.06047 -2.375,-15.21875 -0.53834,-5.15828 -0.8125,-10.39101 -0.8125,-15.6875 0,-5.29649 0.27416,-10.52922 0.8125,-15.6875 0.53834,-5.15828 1.32475,-10.25564 2.375,-15.25 1.05025,-4.99436 2.33925,-9.91402 3.875,-14.71875 1.53575,-4.80473 3.31768,-9.50436 5.3125,-14.09375 1.99482,-4.58939 4.22877,-9.05791 6.65625,-13.40625 2.42748,-4.34834 5.04129,-8.57466 7.875,-12.65625 2.83371,-4.08159 5.88023,-8.02338 9.09375,-11.8125 3.21352,-3.78912 6.58933,-7.40405 10.15625,-10.875 3.56692,-3.47095 7.32486,-6.77919 11.21875,-9.90625 3.89389,-3.12706 7.93056,-6.08628 12.125,-8.84375 4.19444,-2.75747 8.53142,-5.325337 13,-7.6875 4.46858,-2.362163 9.06496,-4.527601 13.78125,-6.46875 4.71629,-1.941149 9.56242,-3.661824 14.5,-5.15625 4.93758,-1.494426 9.9613,-2.759257 15.09375,-3.78125 5.13245,-1.021993 10.3866,-1.788649 15.6875,-2.3125 5.3009,-0.523851 10.65082,-0.8125 16.09375,-0.8125 z"
       id="path3022"
       inkscape:connector-curvature="0" />
    <path
       style="fill:url(#radialGradient3820);fill-opacity:1;stroke:none"
       d="M 304.75 78.34375 C 299.30707 78.34375 293.95715 78.632399 288.65625 79.15625 C 283.35535 79.680101 278.1012 80.446757 272.96875 81.46875 C 267.8363 82.490743 262.81258 83.755574 257.875 85.25 C 252.93742 86.744426 248.09129 88.465101 243.375 90.40625 C 238.65871 92.347399 234.06233 94.512837 229.59375 96.875 C 225.12517 99.237163 220.78819 101.80503 216.59375 104.5625 C 212.39931 107.31997 208.36264 110.27919 204.46875 113.40625 C 200.57486 116.53331 196.81692 119.84155 193.25 123.3125 C 189.68308 126.78345 186.30727 130.39838 183.09375 134.1875 C 179.88023 137.97662 176.83371 141.91841 174 146 C 171.16629 150.08159 168.55248 154.30791 166.125 158.65625 C 163.69752 163.00459 161.46357 167.47311 159.46875 172.0625 C 157.47393 176.65189 155.692 181.35152 154.15625 186.15625 C 152.6205 190.96098 151.3315 195.88064 150.28125 200.875 C 149.231 205.86936 148.44459 210.96672 147.90625 216.125 C 147.36791 221.28328 147.09375 226.51601 147.09375 231.8125 C 147.09375 237.10899 147.36791 242.34172 147.90625 247.5 C 148.44459 252.65828 149.231 257.72439 150.28125 262.71875 C 151.3315 267.71311 152.6205 272.63277 154.15625 277.4375 C 155.692 282.24223 157.47393 286.94186 159.46875 291.53125 C 161.46357 296.12064 163.69752 300.58916 166.125 304.9375 C 168.55248 309.28584 171.16629 313.51216 174 317.59375 C 176.83371 321.67534 179.88023 325.61713 183.09375 329.40625 C 186.30727 333.19537 189.68308 336.84155 193.25 340.3125 C 196.81692 343.78345 200.57486 347.06044 204.46875 350.1875 C 208.36264 353.31456 212.39931 356.27378 216.59375 359.03125 C 220.78819 361.78872 225.12517 364.35659 229.59375 366.71875 C 234.06233 369.08091 238.65871 371.24635 243.375 373.1875 C 248.09129 375.12865 252.93742 376.84932 257.875 378.34375 C 262.81258 379.83818 267.8363 381.10301 272.96875 382.125 C 278.1012 383.14699 283.35535 383.91365 288.65625 384.4375 C 293.95715 384.96135 299.30707 385.25 304.75 385.25 C 310.19293 385.25 315.5741 384.96135 320.875 384.4375 C 326.1759 383.91365 331.3988 383.14699 336.53125 382.125 C 341.6637 381.10301 346.71867 379.83818 351.65625 378.34375 C 356.59383 376.84932 361.43996 375.12865 366.15625 373.1875 C 370.87254 371.24635 375.46892 369.08091 379.9375 366.71875 C 384.40608 364.35659 388.74306 361.78872 392.9375 359.03125 C 397.13194 356.27378 401.16861 353.31456 405.0625 350.1875 C 408.95639 347.06044 412.68308 343.78345 416.25 340.3125 C 419.81692 336.84155 423.22398 333.19537 426.4375 329.40625 C 429.65102 325.61713 432.69754 321.67534 435.53125 317.59375 C 438.36496 313.51216 440.97877 309.28584 443.40625 304.9375 C 445.83373 300.58916 448.06768 296.12064 450.0625 291.53125 C 452.05732 286.94186 453.808 282.24223 455.34375 277.4375 C 456.8795 272.63277 458.19975 267.71311 459.25 262.71875 C 460.30025 257.72439 461.08666 252.65828 461.625 247.5 C 462.16334 242.34172 462.4375 237.10899 462.4375 231.8125 C 462.4375 226.51601 462.16334 221.28328 461.625 216.125 C 461.08666 210.96672 460.30025 205.86936 459.25 200.875 C 458.19975 195.88064 456.8795 190.96098 455.34375 186.15625 C 453.808 181.35152 452.05732 176.65189 450.0625 172.0625 C 448.06768 167.47311 445.83373 163.00459 443.40625 158.65625 C 440.97877 154.30791 438.36496 150.08159 435.53125 146 C 432.69754 141.91841 429.65102 137.97662 426.4375 134.1875 C 423.22398 130.39838 419.81692 126.78345 416.25 123.3125 C 412.68308 119.84155 408.95639 116.53331 405.0625 113.40625 C 401.16861 110.27919 397.13194 107.31997 392.9375 104.5625 C 388.74306 101.80503 384.40608 99.237163 379.9375 96.875 C 375.46892 94.512837 370.87254 92.347399 366.15625 90.40625 C 361.43996 88.465101 356.59383 86.744426 351.65625 85.25 C 346.71867 83.755574 341.6637 82.490743 336.53125 81.46875 C 331.3988 80.446757 326.1759 79.680101 320.875 79.15625 C 315.5741 78.632399 310.19293 78.34375 304.75 78.34375 z "
       id="path3810" />
    <path
       style="fill:url(#linearGradient4246);fill-opacity:1;stroke:url(#linearGradient3812);stroke-width:12;stroke-miterlimit:4;stroke-dasharray:none;stroke-opacity:1"
       d="m 409.46733,438.18398 c 30.53389,-15.56049 55.62717,-36.77783 72.39881,-56.78601 L 595.6357,506.61842 c -9.35767,57.27137 -65.99619,75.22934 -98.99429,62.61022 z"
       id="path4238"
       inkscape:connector-curvature="0"
       sodipodi:nodetypes="ccccc" />
    <path
       id="path3833"
       d="M 303.34375,9.0625 C 177.98545,9.0625 76.375,109.42255 76.375,233.21875 c 0,123.7962 101.61045,224.15625 226.96875,224.15625 125.3583,0 227,-100.36005 227,-224.15625 0,-123.7962 -101.6417,-224.15625 -227,-224.15625 z"
       style="fill:none;stroke:url(#linearGradient3866);stroke-width:12;stroke-miterlimit:4;stroke-opacity:1;stroke-dasharray:none;filter:url(#filter3835)"
       inkscape:connector-curvature="0"
       sodipodi:nodetypes="sssss" />
    <path
       style="fill:url(#radialGradient3873);fill-opacity:1;stroke:none"
       d="m 418.0355,440.13948 c 26.99835,-16.62115 39.85926,-27.71938 63.70195,-49.49532 l 107.18504,119.21705 c -8.47493,46.06901 -56.39594,66.38151 -88.98773,54.21003 z"
       id="path4238-3-3"
       inkscape:connector-curvature="0"
       sodipodi:nodetypes="ccccc" />
    <path
       style="fill:none;stroke:url(#linearGradient3842);stroke-width:12;stroke-miterlimit:4;stroke-opacity:1;stroke-dasharray:none;filter:url(#filter3799)"
       d="m 430.01899,442.36398 c 26.99836,-16.62116 28.09455,-21.33285 51.93725,-43.10879 l 99.1178,111.14983 c -12.84468,33.2959 -35.89173,49.57478 -75.20621,46.47894 z"
       id="path4238-3-0"
       inkscape:connector-curvature="0"
       sodipodi:nodetypes="ccccc" />
    <path
       sodipodi:type="arc"
       style="fill:none;stroke:url(#linearGradient3837);stroke-width:12;stroke-miterlimit:4;stroke-opacity:1;stroke-dasharray:none;filter:url(#filter3849)"
       id="path3817"
       sodipodi:cx="305"
       sodipodi:cy="223.5"
       sodipodi:rx="180"
       sodipodi:ry="176.5"
       d="m 485,223.5 a 180,176.5 0 1 1 -360,0 180,176.5 0 1 1 360,0 z"
       transform="matrix(1.0480536,0,0,1.0688365,-11.203588,-22.047739)" />
    <path
       style="fill:url(#radialGradient3803);fill-opacity:1;stroke:none"
       d="m 401.89946,437.34304 c 11.29011,-8.24549 27.6941,-20.80947 40.42971,-35.02414 l 103.55727,116.11794 c -83.27483,-69.45132 -75.72157,-33.72876 -143.98698,-81.0938 z"
       id="path4238-3"
       inkscape:connector-curvature="0"
       sodipodi:nodetypes="cccc"
       transform="matrix(1.0447691,0,0,1.0295841,19.72792,-23.941191)" />
  </g>
</svg>
