<?xml version="1.0" encoding="UTF-8" standalone="no"?>
<!-- Created with Inkscape (http://www.inkscape.org/) -->

<svg
   xmlns:dc="http://purl.org/dc/elements/1.1/"
   xmlns:cc="http://creativecommons.org/ns#"
   xmlns:rdf="http://www.w3.org/1999/02/22-rdf-syntax-ns#"
   xmlns:svg="http://www.w3.org/2000/svg"
   xmlns="http://www.w3.org/2000/svg"
   xmlns:xlink="http://www.w3.org/1999/xlink"
   xmlns:sodipodi="http://sodipodi.sourceforge.net/DTD/sodipodi-0.dtd"
   xmlns:inkscape="http://www.inkscape.org/namespaces/inkscape"
   width="32"
   height="32"
   id="svg3993"
   sodipodi:version="0.32"
   inkscape:version="0.48.1 r9760"
   sodipodi:docname="magnifying-glass-left-shiny.svg"
   inkscape:output_extension="org.inkscape.output.svg.inkscape"
   version="1.0"
   inkscape:export-filename="magnifying-glass.png"
   inkscape:export-xdpi="2.3199999"
   inkscape:export-ydpi="2.3199999">
  <defs
     id="defs3995">
    <linearGradient
       id="linearGradient3831">
      <stop
         style="stop-color:#ffffff;stop-opacity:1;"
         offset="0"
         id="stop3833" />
      <stop
         id="stop3853"
         offset="0.21438295"
         style="stop-color:#ffffff;stop-opacity:0;" />
      <stop
         id="stop3843"
         offset="0.87306166"
         style="stop-color:#ffffff;stop-opacity:0;" />
      <stop
         style="stop-color:#ffffff;stop-opacity:1;"
         offset="1"
         id="stop3835" />
    </linearGradient>
    <linearGradient
       id="linearGradient3785">
      <stop
         style="stop-color:#e0ecf2;stop-opacity:0.22047244;"
         offset="0"
         id="stop3787" />
      <stop
         id="stop3807"
         offset="0.70465863"
         style="stop-color:#e3f1f3;stop-opacity:0.36220473;" />
      <stop
         style="stop-color:#b9e0e0;stop-opacity:0.22834645;"
         offset="1"
         id="stop3789" />
    </linearGradient>
    <linearGradient
       id="linearGradient7777">
      <stop
         style="stop-color:#7f6440;stop-opacity:1;"
         offset="0"
         id="stop4296" />
      <stop
         style="stop-color:#ff6000;stop-opacity:1;"
         offset="1"
         id="stop4298" />
    </linearGradient>
    <linearGradient
       id="linearGradient4232">
      <stop
         id="stop4234"
         offset="0"
         style="stop-color:#bbbbbb;stop-opacity:1;" />
      <stop
         id="stop4236"
         offset="1"
         style="stop-color:#000000;stop-opacity:1;" />
    </linearGradient>
    <linearGradient
       id="linearGradient3200">
      <stop
         style="stop-color:#ffffff;stop-opacity:0.78431374;"
         offset="0"
         id="stop3202" />
      <stop
         style="stop-color:#ffffff;stop-opacity:0;"
         offset="1"
         id="stop3204" />
    </linearGradient>
    <linearGradient
       inkscape:collect="always"
       xlink:href="#linearGradient7777"
       id="linearGradient4246"
       x1="427.37592"
       y1="542.37195"
       x2="560.3678"
       y2="263.70697"
       gradientUnits="userSpaceOnUse"
       gradientTransform="matrix(-0.05223845,0,0,0.05147921,32.593368,587.07717)" />
    <radialGradient
       inkscape:collect="always"
       xlink:href="#linearGradient3785"
       id="radialGradient3820"
       cx="304.76562"
       cy="231.79688"
       fx="304.76562"
       fy="231.79688"
       r="157.67188"
       gradientTransform="matrix(0.05,0,0,0.04866217,3.4559845,588.36201)"
       gradientUnits="userSpaceOnUse" />
    <radialGradient
       inkscape:collect="always"
       xlink:href="#linearGradient4232"
       id="radialGradient3831"
       cx="301.32986"
       cy="234.6981"
       fx="301.32986"
       fy="234.6981"
       r="226.98438"
       gradientTransform="matrix(0.06152394,1.14977e-4,-1.16733e-4,0.0624638,0.18305448,585.08877)"
       gradientUnits="userSpaceOnUse" />
    <filter
       inkscape:collect="always"
       id="filter3835"
       color-interpolation-filters="sRGB">
      <feGaussianBlur
         inkscape:collect="always"
         stdDeviation="4.7369766"
         id="feGaussianBlur3837" />
    </filter>
    <linearGradient
       id="linearGradient7778">
      <stop
         style="stop-color:#ff6101;stop-opacity:1;"
         offset="0"
         id="stop4296-7" />
      <stop
         style="stop-color:#523d1a;stop-opacity:0;"
         offset="1"
         id="stop4298-6" />
    </linearGradient>
    <linearGradient
       inkscape:collect="always"
       xlink:href="#linearGradient3200"
       id="linearGradient3866"
       x1="360.58765"
       y1="2.2424862"
       x2="233.83633"
       y2="601.47168"
       gradientUnits="userSpaceOnUse"
       gradientTransform="translate(43.02521,-8.0672269)" />
    <linearGradient
       inkscape:collect="always"
       xlink:href="#linearGradient3200"
       id="linearGradient3842"
       x1="511.7807"
       y1="590.34906"
       x2="471.27594"
       y2="381.41388"
       gradientUnits="userSpaceOnUse"
       gradientTransform="translate(43.02521,-8.0672269)" />
    <radialGradient
       inkscape:collect="always"
       xlink:href="#linearGradient7778"
       id="radialGradient3873"
       cx="539.73773"
       cy="558.62531"
       fx="539.73773"
       fy="558.62531"
       r="84.939293"
       gradientTransform="matrix(-0.06276169,-0.05576281,-0.03688312,0.04151237,61.223028,622.19672)"
       gradientUnits="userSpaceOnUse" />
    <linearGradient
       inkscape:collect="always"
       xlink:href="#linearGradient3831"
       id="linearGradient3837"
       x1="338.73737"
       y1="49.157681"
       x2="262.19125"
       y2="390.72629"
       gradientUnits="userSpaceOnUse" />
    <filter
       inkscape:collect="always"
       id="filter3849"
       color-interpolation-filters="sRGB">
      <feGaussianBlur
         inkscape:collect="always"
         stdDeviation="5.3472423"
         id="feGaussianBlur3851" />
    </filter>
    <linearGradient
       inkscape:collect="always"
       xlink:href="#linearGradient7777"
       id="linearGradient3805"
       x1="131.8707"
       y1="631.85138"
       x2="140.45921"
       y2="665.46478"
       gradientUnits="userSpaceOnUse"
       gradientTransform="matrix(0.05,0,0,0.05,1.1366572,588.5393)" />
    <filter
       inkscape:collect="always"
       id="filter3807"
       color-interpolation-filters="sRGB">
      <feGaussianBlur
         inkscape:collect="always"
         stdDeviation="3.3981986"
         id="feGaussianBlur3809" />
    </filter>
    <radialGradient
       inkscape:collect="always"
       xlink:href="#linearGradient3200"
       id="radialGradient3811"
       cx="154.23318"
       cy="460.03857"
       fx="154.23318"
       fy="460.03857"
       r="69.834312"
       gradientTransform="matrix(-0.07474472,0.03838494,-0.0164823,-0.03209502,28.474916,617.61104)"
       gradientUnits="userSpaceOnUse" />
    <filter
       inkscape:collect="always"
       id="filter3799">
      <feGaussianBlur
         inkscape:collect="always"
         stdDeviation="19.045271"
         id="feGaussianBlur3801" />
    </filter>
  </defs>
  <sodipodi:namedview
     id="base"
     pagecolor="#ffffff"
     bordercolor="#666666"
     borderopacity="1.0"
     gridtolerance="10000"
     guidetolerance="10"
     objecttolerance="10"
     inkscape:pageopacity="0.0"
     inkscape:pageshadow="2"
     inkscape:zoom="2.9749999"
     inkscape:cx="-42.606403"
     inkscape:cy="-8.8320495"
     inkscape:document-units="px"
     inkscape:current-layer="layer1"
     showgrid="false"
     inkscape:window-width="1870"
     inkscape:window-height="1056"
     inkscape:window-x="50"
     inkscape:window-y="24"
     inkscape:window-maximized="1" />
  <metadata
     id="metadata3998">
    <rdf:RDF>
      <cc:Work
         rdf:about="">
        <dc:format>image/svg+xml</dc:format>
        <dc:type
           rdf:resource="http://purl.org/dc/dcmitype/StillImage" />
        <dc:title />
      </cc:Work>
    </rdf:RDF>
  </metadata>
  <g
     inkscape:label="Layer 1"
     inkscape:groupmode="layer"
     id="layer1"
     transform="translate(0,-588)">
    <g
       id="g3803"
       transform="matrix(-0.05,0,0,0.05,31.586575,587.783)"
       style="filter:url(#filter3799)">
      <path
         inkscape:connector-curvature="0"
         id="path3022-3"
         d="m 276.8796,47.915393 c -125.3583,0 -226.968752,100.360047 -226.968752,224.156257 0,123.7962 101.610452,224.15625 226.968752,224.15625 125.3583,0 227,-100.36005 227,-224.15625 0,-123.79621 -101.6417,-224.156257 -227,-224.156257 z m 1.40625,69.281247 c 5.44293,0 10.8241,0.28865 16.125,0.8125 5.3009,0.52385 10.5238,1.29051 15.65625,2.3125 5.13245,1.022 10.18742,2.28683 15.125,3.78125 4.93758,1.49443 9.78371,3.2151 14.5,5.15625 4.71629,1.94115 9.31267,4.10659 13.78125,6.46875 4.46858,2.36217 8.80556,4.93003 13,7.6875 4.19444,2.75747 8.23111,5.71669 12.125,8.84375 3.89389,3.12706 7.62058,6.43531 11.1875,9.90626 3.56692,3.47095 6.97398,7.08588 10.1875,10.875 3.21352,3.78912 6.26004,7.73091 9.09375,11.8125 2.83371,4.08159 5.44752,8.30791 7.875,12.65625 2.42748,4.34834 4.66143,8.81686 6.65625,13.40625 1.99482,4.58939 3.7455,9.28902 5.28125,14.09375 1.53575,4.80473 2.856,9.72439 3.90625,14.71875 1.05025,4.99436 1.83666,10.09172 2.375,15.25 0.53834,5.15828 0.8125,10.39101 0.8125,15.6875 0,5.29649 -0.27416,10.52922 -0.8125,15.6875 -0.53834,5.15828 -1.32475,10.22439 -2.375,15.21875 -1.05025,4.99436 -2.3705,9.91402 -3.90625,14.71875 -1.53575,4.80473 -3.28643,9.50436 -5.28125,14.09375 -1.99482,4.58939 -4.22877,9.05791 -6.65625,13.40625 -2.42748,4.34834 -5.04129,8.57466 -7.875,12.65625 -2.83371,4.08159 -5.88023,8.02338 -9.09375,11.8125 -3.21352,3.78912 -6.62058,7.4353 -10.1875,10.90625 -3.56692,3.47095 -7.29361,6.74794 -11.1875,9.875 -3.89389,3.12706 -7.93056,6.08628 -12.125,8.84375 -4.19444,2.75747 -8.53142,5.32534 -13,7.6875 -4.46858,2.36216 -9.06496,4.5276 -13.78125,6.46875 -4.71629,1.94115 -9.56242,3.66182 -14.5,5.15625 -4.93758,1.49443 -9.99255,2.75926 -15.125,3.78125 -5.13245,1.02199 -10.35535,1.78865 -15.65625,2.3125 -5.3009,0.52385 -10.68207,0.8125 -16.125,0.8125 -5.44293,0 -10.79285,-0.28865 -16.09375,-0.8125 -5.3009,-0.52385 -10.55505,-1.29051 -15.6875,-2.3125 -5.13245,-1.02199 -10.15617,-2.28682 -15.09375,-3.78125 -4.93758,-1.49443 -9.78371,-3.2151 -14.5,-5.15625 -4.71629,-1.94115 -9.31267,-4.10659 -13.78125,-6.46875 -4.46858,-2.36216 -8.80556,-4.93003 -13,-7.6875 -4.19444,-2.75747 -8.23111,-5.71669 -12.125,-8.84375 -3.89389,-3.12706 -7.65183,-6.40405 -11.21875,-9.875 -3.56692,-3.47095 -6.94273,-7.11713 -10.15625,-10.90625 -3.21352,-3.78912 -6.26004,-7.73091 -9.09375,-11.8125 -2.83371,-4.08159 -5.44752,-8.30791 -7.875,-12.65625 -2.42748,-4.34834 -4.66143,-8.81686 -6.65625,-13.40625 -1.99482,-4.58939 -3.77675,-9.28902 -5.3125,-14.09375 -1.53575,-4.80473 -2.82475,-9.72439 -3.875,-14.71875 -1.05025,-4.99436 -1.83666,-10.06047 -2.375,-15.21875 -0.53834,-5.15828 -0.8125,-10.39101 -0.8125,-15.6875 0,-5.29649 0.27416,-10.52922 0.8125,-15.6875 0.53834,-5.15828 1.32475,-10.25564 2.375,-15.25 1.05025,-4.99436 2.33925,-9.91402 3.875,-14.71875 1.53575,-4.80473 3.31768,-9.50436 5.3125,-14.09375 1.99482,-4.58939 4.22877,-9.05791 6.65625,-13.40625 2.42748,-4.34834 5.04129,-8.57466 7.875,-12.65625 2.83371,-4.08159 5.88023,-8.02338 9.09375,-11.8125 3.21352,-3.78912 6.58933,-7.40405 10.15625,-10.875 3.56692,-3.47095 7.32486,-6.7792 11.21875,-9.90626 3.89389,-3.12706 7.93056,-6.08628 12.125,-8.84375 4.19444,-2.75747 8.53142,-5.32533 13,-7.6875 4.46858,-2.36216 9.06496,-4.5276 13.78125,-6.46875 4.71629,-1.94115 9.56242,-3.66182 14.5,-5.15625 4.93758,-1.49442 9.9613,-2.75925 15.09375,-3.78125 5.13245,-1.02199 10.3866,-1.78865 15.6875,-2.3125 5.3009,-0.52385 10.65082,-0.8125 16.09375,-0.8125 z"
         style="fill:#000000;fill-opacity:0.78431373;stroke:none" />
      <path
         sodipodi:nodetypes="ccccc"
         inkscape:connector-curvature="0"
         id="path4238-36"
         d="m 386.36452,478.71755 c 30.53389,-15.56049 55.62717,-36.77783 72.39881,-56.78601 l 113.76956,125.22045 c -9.35767,57.27137 -65.99619,75.22934 -98.99429,62.61022 z"
         style="fill:#000000;fill-opacity:0.78431373;stroke:none" />
    </g>
    <path
       style="fill:url(#radialGradient3831);fill-opacity:1;stroke:none"
       d="m 18.623175,588.50503 c -6.26792,0 -11.3484405,5.018 -11.3484405,11.20781 0,6.18981 5.0805205,11.20782 11.3484405,11.20782 6.26791,0 11.35,-5.01801 11.35,-11.20782 0,-6.18981 -5.08209,-11.20781 -11.35,-11.20781 z m 0.0703,3.46406 c 0.27215,0 0.54121,0.0144 0.80625,0.0406 0.26505,0.0262 0.52619,0.0645 0.78281,0.11562 0.25663,0.0511 0.50937,0.11435 0.75625,0.18907 0.24688,0.0747 0.48919,0.16075 0.725,0.25781 0.23582,0.0971 0.46564,0.20533 0.68907,0.32344 0.22342,0.1181 0.44027,0.2465 0.65,0.38437 0.20972,0.13787 0.41155,0.28584 0.60625,0.44219 0.19469,0.15635 0.38102,0.32176 0.55937,0.49531 0.17835,0.17355 0.3487,0.3543 0.50938,0.54375 0.16067,0.18946 0.313,0.38655 0.45468,0.59063 0.14169,0.20408 0.27238,0.41539 0.39375,0.63281 0.12138,0.21742 0.23307,0.44084 0.33282,0.67031 0.0997,0.22947 0.18727,0.46445 0.26406,0.70469 0.0768,0.24024 0.1428,0.48622 0.19531,0.73594 0.0525,0.24971 0.0918,0.50458 0.11875,0.7625 0.0269,0.25791 0.0406,0.51955 0.0406,0.78437 0,0.26483 -0.0137,0.52646 -0.0406,0.78438 -0.0269,0.25791 -0.0662,0.51122 -0.11875,0.76093 -0.0525,0.24972 -0.11852,0.49571 -0.19531,0.73594 -0.0768,0.24024 -0.16432,0.47522 -0.26406,0.70469 -0.0998,0.22947 -0.21144,0.45289 -0.33282,0.67031 -0.12137,0.21742 -0.25206,0.42873 -0.39375,0.63281 -0.14168,0.20408 -0.29401,0.40117 -0.45468,0.59063 -0.16068,0.18946 -0.33103,0.37176 -0.50938,0.54531 -0.17835,0.17355 -0.36468,0.3374 -0.55937,0.49375 -0.1947,0.15635 -0.39653,0.30432 -0.60625,0.44219 -0.20973,0.13787 -0.42658,0.26627 -0.65,0.38437 -0.22343,0.11811 -0.45325,0.22638 -0.68907,0.32344 -0.23581,0.0971 -0.47812,0.18309 -0.725,0.25781 -0.24688,0.0747 -0.49962,0.13797 -0.75625,0.18907 -0.25662,0.0511 -0.51776,0.0894 -0.78281,0.11562 -0.26504,0.0262 -0.5341,0.0406 -0.80625,0.0406 -0.27215,0 -0.53964,-0.0144 -0.80469,-0.0406 -0.26504,-0.0262 -0.52775,-0.0645 -0.78437,-0.11562 -0.25662,-0.0511 -0.50781,-0.11434 -0.75469,-0.18907 -0.24688,-0.0747 -0.48919,-0.16075 -0.725,-0.25781 -0.23581,-0.0971 -0.46563,-0.20533 -0.68906,-0.32344 -0.22343,-0.1181 -0.44028,-0.2465 -0.65,-0.38437 -0.20972,-0.13787 -0.41156,-0.28584 -0.60625,-0.44219 -0.1947,-0.15635 -0.38259,-0.3202 -0.56094,-0.49375 -0.17835,-0.17355 -0.34714,-0.35585 -0.50781,-0.54531 -0.16068,-0.18946 -0.313,-0.38655 -0.45469,-0.59063 -0.14169,-0.20408 -0.27238,-0.41539 -0.39375,-0.63281 -0.12137,-0.21742 -0.23307,-0.44084 -0.33281,-0.67031 -0.0997,-0.22947 -0.18884,-0.46445 -0.26563,-0.70469 -0.0768,-0.24023 -0.14123,-0.48622 -0.19375,-0.73594 -0.0525,-0.24971 -0.0918,-0.50302 -0.11875,-0.76093 -0.0269,-0.25792 -0.0406,-0.51955 -0.0406,-0.78438 0,-0.26482 0.0137,-0.52646 0.0406,-0.78437 0.0269,-0.25792 0.0662,-0.51279 0.11875,-0.7625 0.0525,-0.24972 0.11697,-0.4957 0.19375,-0.73594 0.0768,-0.24024 0.16589,-0.47522 0.26563,-0.70469 0.0997,-0.22947 0.21144,-0.45289 0.33281,-0.67031 0.12137,-0.21742 0.25206,-0.42873 0.39375,-0.63281 0.14169,-0.20408 0.29401,-0.40117 0.45469,-0.59063 0.16067,-0.18945 0.32946,-0.3702 0.50781,-0.54375 0.17835,-0.17355 0.36624,-0.33896 0.56094,-0.49531 0.19469,-0.15635 0.39653,-0.30432 0.60625,-0.44219 0.20972,-0.13787 0.42657,-0.26627 0.65,-0.38437 0.22343,-0.11811 0.45325,-0.22638 0.68906,-0.32344 0.23581,-0.0971 0.47812,-0.18309 0.725,-0.25781 0.24688,-0.0747 0.49807,-0.13797 0.75469,-0.18907 0.25662,-0.0511 0.51933,-0.0894 0.78437,-0.11562 0.26505,-0.0262 0.53254,-0.0406 0.80469,-0.0406 z"
       id="path3022"
       inkscape:connector-curvature="0" />
    <path
       style="fill:url(#radialGradient3820);fill-opacity:1;stroke:none"
       d="m 18.693485,591.96909 c -0.27215,0 -0.53964,0.0144 -0.80469,0.0406 -0.26504,0.0262 -0.52775,0.0645 -0.78437,0.11562 -0.25662,0.0511 -0.50781,0.11435 -0.75469,0.18907 -0.24688,0.0747 -0.48919,0.16075 -0.725,0.25781 -0.23581,0.0971 -0.46563,0.20533 -0.68906,0.32344 -0.22343,0.1181 -0.44028,0.2465 -0.65,0.38437 -0.20972,0.13787 -0.41156,0.28584 -0.60625,0.44219 -0.1947,0.15635 -0.38259,0.32176 -0.56094,0.49531 -0.17835,0.17355 -0.34714,0.3543 -0.50781,0.54375 -0.16068,0.18946 -0.313,0.38655 -0.45469,0.59063 -0.14169,0.20408 -0.27238,0.41539 -0.39375,0.63281 -0.12137,0.21742 -0.23307,0.44084 -0.33281,0.67031 -0.0997,0.22947 -0.18884,0.46445 -0.26563,0.70469 -0.0768,0.24024 -0.14123,0.48622 -0.19375,0.73594 -0.0525,0.24971 -0.0918,0.50458 -0.11875,0.7625 -0.0269,0.25791 -0.0406,0.51955 -0.0406,0.78437 0,0.26483 0.0137,0.52646 0.0406,0.78438 0.0269,0.25791 0.0662,0.51122 0.11875,0.76093 0.0525,0.24972 0.11697,0.49571 0.19375,0.73594 0.0768,0.24024 0.16589,0.47522 0.26563,0.70469 0.0997,0.22947 0.21144,0.45289 0.33281,0.67031 0.12137,0.21742 0.25206,0.42873 0.39375,0.63281 0.14169,0.20408 0.29401,0.40117 0.45469,0.59063 0.16067,0.18946 0.32946,0.37176 0.50781,0.54531 0.17835,0.17355 0.36624,0.3374 0.56094,0.49375 0.19469,0.15635 0.39653,0.30432 0.60625,0.44219 0.20972,0.13787 0.42657,0.26627 0.65,0.38437 0.22343,0.11811 0.45325,0.22638 0.68906,0.32344 0.23581,0.0971 0.47812,0.18309 0.725,0.25781 0.24688,0.0747 0.49807,0.13797 0.75469,0.18907 0.25662,0.0511 0.51933,0.0894 0.78437,0.11562 0.26505,0.0262 0.53254,0.0406 0.80469,0.0406 0.27215,0 0.54121,-0.0144 0.80625,-0.0406 0.26505,-0.0262 0.52619,-0.0645 0.78281,-0.11562 0.25663,-0.0511 0.50937,-0.11434 0.75625,-0.18907 0.24688,-0.0747 0.48919,-0.16075 0.725,-0.25781 0.23582,-0.0971 0.46564,-0.20533 0.68907,-0.32344 0.22342,-0.1181 0.44027,-0.2465 0.65,-0.38437 0.20972,-0.13787 0.41155,-0.28584 0.60625,-0.44219 0.19469,-0.15635 0.38102,-0.3202 0.55937,-0.49375 0.17835,-0.17355 0.3487,-0.35585 0.50938,-0.54531 0.16067,-0.18946 0.313,-0.38655 0.45468,-0.59063 0.14169,-0.20408 0.27238,-0.41539 0.39375,-0.63281 0.12138,-0.21742 0.23307,-0.44084 0.33282,-0.67031 0.0997,-0.22947 0.18727,-0.46445 0.26406,-0.70469 0.0768,-0.24023 0.1428,-0.48622 0.19531,-0.73594 0.0525,-0.24971 0.0918,-0.50302 0.11875,-0.76093 0.0269,-0.25792 0.0406,-0.51955 0.0406,-0.78438 0,-0.26482 -0.0137,-0.52646 -0.0406,-0.78437 -0.0269,-0.25792 -0.0662,-0.51279 -0.11875,-0.7625 -0.0525,-0.24972 -0.11852,-0.4957 -0.19531,-0.73594 -0.0768,-0.24024 -0.16432,-0.47522 -0.26406,-0.70469 -0.0998,-0.22947 -0.21144,-0.45289 -0.33282,-0.67031 -0.12137,-0.21742 -0.25206,-0.42873 -0.39375,-0.63281 -0.14168,-0.20408 -0.29401,-0.40117 -0.45468,-0.59063 -0.16068,-0.18945 -0.33103,-0.3702 -0.50938,-0.54375 -0.17835,-0.17355 -0.36468,-0.33896 -0.55937,-0.49531 -0.1947,-0.15635 -0.39653,-0.30432 -0.60625,-0.44219 -0.20973,-0.13787 -0.42658,-0.26627 -0.65,-0.38437 -0.22343,-0.11811 -0.45325,-0.22638 -0.68907,-0.32344 -0.23581,-0.0971 -0.47812,-0.18309 -0.725,-0.25781 -0.24688,-0.0747 -0.49962,-0.13797 -0.75625,-0.18907 -0.25662,-0.0511 -0.51776,-0.0894 -0.78281,-0.11562 -0.26504,-0.0262 -0.5341,-0.0406 -0.80625,-0.0406 z"
       id="path3810"
       inkscape:connector-curvature="0" />
    <path
       style="fill:url(#linearGradient4246);fill-opacity:1;stroke:url(#linearGradient3805);stroke-width:1;stroke-miterlimit:4;stroke-opacity:1;stroke-dasharray:none"
       d="m 13.237768,610.11236 c -1.52669,-0.77802 -2.78136,-1.83889 -3.6199402,-2.8393 l -5.6884805,6.26102 c 0.46789,2.86357 3.29981,3.76147 4.94972,3.13052 z"
       id="path4238"
       inkscape:connector-curvature="0"
       sodipodi:nodetypes="ccccc" />
    <path
       style="fill:url(#radialGradient3873);fill-opacity:1;stroke:none"
       d="m 12.485785,610.26871 c -1.34992,-0.83105 -1.688142,-1.16619 -2.880282,-2.25499 l -5.0848113,5.6747 c 0.4506393,2.18613 2.2041297,2.79134 4.0463453,2.47086 z"
       id="path4238-3-3"
       inkscape:connector-curvature="0"
       sodipodi:nodetypes="ccccc" />
    <path
       style="fill:none;stroke:url(#linearGradient3842);stroke-width:12;stroke-miterlimit:4;stroke-opacity:1;stroke-dasharray:none;filter:url(#filter3807)"
       d="m 477.87476,435.61101 c 26.99836,-16.62116 22.29462,-13.22249 46.13732,-34.99843 l 95.95801,102.81518 c -21.02536,36.46571 -36.79675,43.23907 -68.71186,40.2032 z"
       id="path4238-3-0"
       inkscape:connector-curvature="0"
       sodipodi:nodetypes="ccccc"
       transform="matrix(-0.05,0,0,0.05,35.862398,588.60652)" />
    <path
       style="fill:url(#radialGradient3811);fill-opacity:1;stroke:none"
       d="m 12.520639,610.22114 c -1.299857,-0.65919 -1.835052,-1.19502 -2.8973576,-2.23094 l -3.7889687,4.18668 c 3.9467905,-2.63412 3.1202463,0.48258 6.6863263,-1.95574 z"
       id="path4238-3"
       inkscape:connector-curvature="0"
       sodipodi:nodetypes="cccc" />
    <path
       id="path3833"
       d="m 346.36896,0.99527311 c -125.3583,0 -226.96875,100.36005689 -226.96875,224.15625689 0,123.7962 101.61045,224.15625 226.96875,224.15625 125.3583,0 227,-100.36005 227,-224.15625 0,-123.7962 -101.6417,-224.15625689 -227,-224.15625689 z"
       style="fill:none;stroke:url(#linearGradient3866);stroke-width:12;stroke-miterlimit:4;stroke-opacity:1;stroke-dasharray:none;filter:url(#filter3835)"
       inkscape:connector-curvature="0"
       sodipodi:nodetypes="sssss"
       transform="matrix(0.05,0,0,0.05,1.3047245,588.45527)" />
    <path
       sodipodi:type="arc"
       style="fill:none;stroke:url(#linearGradient3837);stroke-width:12;stroke-miterlimit:4;stroke-opacity:1;stroke-dasharray:none;filter:url(#filter3849)"
       id="path3817"
       sodipodi:cx="305"
       sodipodi:cy="223.5"
       sodipodi:rx="180"
       sodipodi:ry="176.5"
       d="m 485,223.5 a 180,176.5 0 1 1 -360,0 180,176.5 0 1 1 360,0 z"
       transform="matrix(0.05240268,0,0,0.05344183,2.8958045,586.94952)" />
  </g>
</svg>
