<?xml version="1.0" encoding="UTF-8" standalone="no"?>
<!-- Created with Inkscape (http://www.inkscape.org/) -->

<svg
   xmlns:dc="http://purl.org/dc/elements/1.1/"
   xmlns:cc="http://creativecommons.org/ns#"
   xmlns:rdf="http://www.w3.org/1999/02/22-rdf-syntax-ns#"
   xmlns:svg="http://www.w3.org/2000/svg"
   xmlns="http://www.w3.org/2000/svg"
   xmlns:xlink="http://www.w3.org/1999/xlink"
   xmlns:sodipodi="http://sodipodi.sourceforge.net/DTD/sodipodi-0.dtd"
   xmlns:inkscape="http://www.inkscape.org/namespaces/inkscape"
   width="32"
   height="32"
   id="svg3993"
   sodipodi:version="0.32"
   inkscape:version="0.48.1 r9760"
   sodipodi:docname="magnifying-glass-shiny.svg"
   inkscape:output_extension="org.inkscape.output.svg.inkscape"
   version="1.0"
   inkscape:export-filename="magnifying-glass.png"
   inkscape:export-xdpi="2.3199999"
   inkscape:export-ydpi="2.3199999">
  <defs
     id="defs3995">
    <linearGradient
       id="linearGradient3831">
      <stop
         style="stop-color:#ffffff;stop-opacity:1;"
         offset="0"
         id="stop3833" />
      <stop
         id="stop3853"
         offset="0.21438295"
         style="stop-color:#ffffff;stop-opacity:0;" />
      <stop
         id="stop3843"
         offset="0.87306166"
         style="stop-color:#ffffff;stop-opacity:0;" />
      <stop
         style="stop-color:#ffffff;stop-opacity:1;"
         offset="1"
         id="stop3835" />
    </linearGradient>
    <linearGradient
       id="linearGradient3785">
      <stop
         style="stop-color:#e0ecf2;stop-opacity:0.22047244;"
         offset="0"
         id="stop3787" />
      <stop
         id="stop3807"
         offset="0.70465863"
         style="stop-color:#e3f1f3;stop-opacity:0.36220473;" />
      <stop
         style="stop-color:#b9e0e0;stop-opacity:0.22834645;"
         offset="1"
         id="stop3789" />
    </linearGradient>
    <linearGradient
       id="linearGradient7777">
      <stop
         style="stop-color:#7f6440;stop-opacity:1;"
         offset="0"
         id="stop4296" />
      <stop
         style="stop-color:#ff6000;stop-opacity:1;"
         offset="1"
         id="stop4298" />
    </linearGradient>
    <linearGradient
       id="linearGradient4232">
      <stop
         id="stop4234"
         offset="0"
         style="stop-color:#bbbbbb;stop-opacity:1;" />
      <stop
         id="stop4236"
         offset="1"
         style="stop-color:#000000;stop-opacity:1;" />
    </linearGradient>
    <linearGradient
       id="linearGradient3200">
      <stop
         style="stop-color:#ffffff;stop-opacity:1;"
         offset="0"
         id="stop3202" />
      <stop
         style="stop-color:#ffffff;stop-opacity:0;"
         offset="1"
         id="stop3204" />
    </linearGradient>
    <linearGradient
       inkscape:collect="always"
       xlink:href="#linearGradient7777"
       id="linearGradient4246"
       x1="427.37592"
       y1="542.37195"
       x2="560.3678"
       y2="263.70697"
       gradientUnits="userSpaceOnUse"
       gradientTransform="matrix(0.05223845,0,0,0.05147921,1.6242364,586.87932)" />
    <radialGradient
       inkscape:collect="always"
       xlink:href="#linearGradient3785"
       id="radialGradient3820"
       cx="304.76562"
       cy="231.79688"
       fx="304.76562"
       fy="231.79688"
       r="157.67188"
       gradientTransform="matrix(0.05,0,0,0.04866217,-0.88842791,589.45822)"
       gradientUnits="userSpaceOnUse" />
    <radialGradient
       inkscape:collect="always"
       xlink:href="#linearGradient4232"
       id="radialGradient3831"
       cx="301.32986"
       cy="234.6981"
       fx="301.32986"
       fy="234.6981"
       r="226.98438"
       gradientTransform="matrix(0.06152394,1.14977e-4,-1.16733e-4,0.0624638,-2.9135124,584.93714)"
       gradientUnits="userSpaceOnUse" />
    <linearGradient
       id="linearGradient7778">
      <stop
         style="stop-color:#ff6101;stop-opacity:1;"
         offset="0"
         id="stop4296-7" />
      <stop
         style="stop-color:#523d1a;stop-opacity:0;"
         offset="1"
         id="stop4298-6" />
    </linearGradient>
    <linearGradient
       inkscape:collect="always"
       xlink:href="#linearGradient3200"
       id="linearGradient3866"
       x1="360.58765"
       y1="2.2424862"
       x2="233.83633"
       y2="601.47168"
       gradientUnits="userSpaceOnUse" />
    <linearGradient
       inkscape:collect="always"
       xlink:href="#linearGradient3200"
       id="linearGradient3842"
       x1="470.61496"
       y1="683.4682"
       x2="511.98843"
       y2="454.6236"
       gradientUnits="userSpaceOnUse" />
    <radialGradient
       inkscape:collect="always"
       xlink:href="#linearGradient7778"
       id="radialGradient3873"
       cx="540.43597"
       cy="527.87958"
       fx="540.43597"
       fy="527.87958"
       r="84.939293"
       gradientTransform="matrix(0.08395237,7.201475e-4,-7.3429356e-4,0.08560569,-19.430101,570.2564)"
       gradientUnits="userSpaceOnUse" />
    <linearGradient
       inkscape:collect="always"
       xlink:href="#linearGradient3831"
       id="linearGradient3837"
       x1="305.06149"
       y1="49.157681"
       x2="307.09241"
       y2="392.29871"
       gradientUnits="userSpaceOnUse" />
    <filter
       inkscape:collect="always"
       id="filter3849"
       color-interpolation-filters="sRGB">
      <feGaussianBlur
         inkscape:collect="always"
         stdDeviation="5.3472423"
         id="feGaussianBlur3851" />
    </filter>
    <radialGradient
       inkscape:collect="always"
       xlink:href="#linearGradient3200"
       id="radialGradient3803"
       cx="460.87302"
       cy="422.51767"
       fx="460.87302"
       fy="422.51767"
       r="71.993492"
       gradientTransform="matrix(-0.12456595,-0.05095717,0.0191803,-0.04688668,74.532425,652.45457)"
       gradientUnits="userSpaceOnUse" />
    <linearGradient
       inkscape:collect="always"
       xlink:href="#linearGradient7777"
       id="linearGradient3812"
       x1="489.03317"
       y1="635.05096"
       x2="483.74493"
       y2="709.20807"
       gradientUnits="userSpaceOnUse"
       gradientTransform="matrix(0.05,0,0,0.05,0.50646644,588.00531)" />
    <radialGradient
       inkscape:collect="always"
       xlink:href="#linearGradient4232"
       id="radialGradient3812"
       gradientUnits="userSpaceOnUse"
       gradientTransform="matrix(0.06152394,1.14977e-4,-1.16733e-4,0.0624638,-4.1613479,586.18498)"
       cx="301.32986"
       cy="234.6981"
       fx="301.32986"
       fy="234.6981"
       r="226.98438" />
    <linearGradient
       inkscape:collect="always"
       xlink:href="#linearGradient7777"
       id="linearGradient3814"
       gradientUnits="userSpaceOnUse"
       gradientTransform="matrix(0.05223845,0,0,0.05147921,0.37640085,588.12716)"
       x1="484.25043"
       y1="575.8457"
       x2="480.74347"
       y2="239.46736" />
    <linearGradient
       inkscape:collect="always"
       xlink:href="#linearGradient7777"
       id="linearGradient3816"
       gradientUnits="userSpaceOnUse"
       gradientTransform="matrix(0.05,0,0,0.05,-0.74136909,589.25315)"
       x1="483.09109"
       y1="509.07901"
       x2="483.74493"
       y2="709.20807" />
    <filter
       inkscape:collect="always"
       id="filter3806">
      <feGaussianBlur
         inkscape:collect="always"
         stdDeviation="0.56392576"
         id="feGaussianBlur3808" />
    </filter>
    <filter
       inkscape:collect="always"
       id="filter3810"
       x="-0.18265627"
       width="1.3653125"
       y="-0.17741988"
       height="1.3548398">
      <feGaussianBlur
         inkscape:collect="always"
         stdDeviation="0.70843388"
         id="feGaussianBlur3812" />
    </filter>
    <linearGradient
       inkscape:collect="always"
       xlink:href="#linearGradient3200"
       id="linearGradient3802"
       x1="24.762535"
       y1="607.29724"
       x2="22.543901"
       y2="613.00165"
       gradientUnits="userSpaceOnUse" />
  </defs>
  <sodipodi:namedview
     id="base"
     pagecolor="#ffffff"
     bordercolor="#666666"
     borderopacity="1.0"
     gridtolerance="10000"
     guidetolerance="10"
     objecttolerance="10"
     inkscape:pageopacity="0.0"
     inkscape:pageshadow="2"
     inkscape:zoom="4.2072853"
     inkscape:cx="-68.900104"
     inkscape:cy="8.3431978"
     inkscape:document-units="px"
     inkscape:current-layer="layer1"
     showgrid="false"
     inkscape:window-width="1870"
     inkscape:window-height="1056"
     inkscape:window-x="50"
     inkscape:window-y="24"
     inkscape:window-maximized="1" />
  <metadata
     id="metadata3998">
    <rdf:RDF>
      <cc:Work
         rdf:about="">
        <dc:format>image/svg+xml</dc:format>
        <dc:type
           rdf:resource="http://purl.org/dc/dcmitype/StillImage" />
        <dc:title />
      </cc:Work>
    </rdf:RDF>
  </metadata>
  <g
     inkscape:label="Layer 1"
     inkscape:groupmode="layer"
     id="layer1"
     transform="translate(0,-588)">
    <path
       inkscape:connector-curvature="0"
       id="path3031"
       d="m 14.278763,589.60124 c -6.2679209,0 -11.3484409,5.018 -11.3484409,11.20781 0,6.18981 5.08052,11.20781 11.3484409,11.20781 6.26791,0 11.35,-5.018 11.35,-11.20781 0,-6.18981 -5.08209,-11.20781 -11.35,-11.20781 z m 0.0703,3.46406 c 0.27215,0 0.54121,0.0144 0.80625,0.0406 0.26505,0.0262 0.52619,0.0645 0.78281,0.11563 0.256631,0.0511 0.50938,0.11434 0.756251,0.18906 0.24688,0.0747 0.48919,0.16076 0.725,0.25781 0.23582,0.0971 0.46564,0.20533 0.68907,0.32344 0.22343,0.11811 0.44027,0.2465 0.65,0.38438 0.20972,0.13787 0.41155,0.28583 0.60625,0.44218 0.19469,0.15636 0.38103,0.32177 0.55937,0.49532 0.17835,0.17354 0.3487,0.35429 0.50938,0.54375 0.16067,0.18945 0.313,0.38654 0.45468,0.59062 0.14169,0.20408 0.27238,0.4154 0.39375,0.63281 0.12138,0.21742 0.23308,0.44085 0.33282,0.67032 0.0997,0.22947 0.18727,0.46445 0.26406,0.70468 0.0768,0.24024 0.1428,0.48622 0.19531,0.73594 0.0525,0.24972 0.0918,0.50459 0.11875,0.7625 0.0269,0.25792 0.0406,0.51955 0.0406,0.78438 0,0.26482 -0.0137,0.52646 -0.0406,0.78437 -0.0269,0.25792 -0.0662,0.51122 -0.11875,0.76094 -0.0525,0.24972 -0.11852,0.4957 -0.19531,0.73594 -0.0768,0.24023 -0.16432,0.47522 -0.26406,0.70468 -0.0997,0.22947 -0.21144,0.4529 -0.33282,0.67032 -0.12137,0.21741 -0.25206,0.42873 -0.39375,0.63281 -0.14168,0.20408 -0.29401,0.40117 -0.45468,0.59062 -0.16068,0.18946 -0.33103,0.37177 -0.50938,0.54532 -0.17834,0.17354 -0.36468,0.33739 -0.55937,0.49375 -0.1947,0.15635 -0.39653,0.30431 -0.60625,0.44218 -0.20973,0.13788 -0.42657,0.26627 -0.65,0.38438 -0.22343,0.11811 -0.45325,0.22638 -0.68907,0.32344 -0.23581,0.0971 -0.47812,0.18309 -0.725,0.25781 -0.246871,0.0747 -0.49962,0.13796 -0.756251,0.18906 -0.25662,0.0511 -0.517759,0.0894 -0.78281,0.11563 -0.26504,0.0262 -0.5341,0.0406 -0.80625,0.0406 -0.27214,0 -0.53964,-0.0144 -0.80469,-0.0406 -0.26504,-0.0262 -0.52775,-0.0645 -0.78437,-0.11563 -0.25662,-0.0511 -0.50781,-0.11434 -0.75469,-0.18906 -0.24688,-0.0747 -0.48918,-0.16076 -0.725,-0.25781 -0.23581,-0.0971 -0.46563,-0.20533 -0.68906,-0.32344 -0.22343,-0.11811 -0.44028,-0.2465 -0.65,-0.38438 -0.209719,-0.13787 -0.411559,-0.28583 -0.606249,-0.44218 -0.1947,-0.15636 -0.382591,-0.32021 -0.5609405,-0.49375 -0.1783404,-0.17355 -0.3471304,-0.35586 -0.5078104,-0.54532 -0.16068,-0.18945 -0.313,-0.38654 -0.45469,-0.59062 -0.14168,-0.20408 -0.27237,-0.4154 -0.39375,-0.63281 -0.12137,-0.21742 -0.23307,-0.44085 -0.33281,-0.67032 -0.0997,-0.22946 -0.18884,-0.46445 -0.26563,-0.70468 -0.0768,-0.24024 -0.14123,-0.48622 -0.19375,-0.73594 -0.0525,-0.24972 -0.0918,-0.50302 -0.11875,-0.76094 -0.0269,-0.25791 -0.0406,-0.51955 -0.0406,-0.78437 0,-0.26483 0.0137,-0.52646 0.0406,-0.78438 0.0269,-0.25791 0.0662,-0.51278 0.11875,-0.7625 0.0525,-0.24972 0.11697,-0.4957 0.19375,-0.73594 0.0768,-0.24023 0.16589,-0.47521 0.26563,-0.70468 0.0997,-0.22947 0.21144,-0.4529 0.33281,-0.67032 0.12138,-0.21741 0.25207,-0.42873 0.39375,-0.63281 0.14169,-0.20408 0.29401,-0.40117 0.45469,-0.59062 0.16068,-0.18946 0.32947,-0.37021 0.5078104,-0.54375 0.1783495,-0.17355 0.3662395,-0.33896 0.5609405,-0.49532 0.194689,-0.15635 0.39653,-0.30431 0.606249,-0.44218 0.20972,-0.13788 0.42657,-0.26627 0.65,-0.38438 0.22343,-0.11811 0.45325,-0.22638 0.68906,-0.32344 0.23582,-0.097 0.47812,-0.18309 0.725,-0.25781 0.24688,-0.0747 0.49807,-0.13796 0.75469,-0.18906 0.25662,-0.0511 0.51933,-0.0894 0.78437,-0.11563 0.26505,-0.0262 0.53255,-0.0406 0.80469,-0.0406 z"
       style="fill:#000000;fill-opacity:1;stroke:none;filter:url(#filter3806)" />
    <path
       sodipodi:nodetypes="ccccc"
       inkscape:connector-curvature="0"
       id="path3033"
       d="m 19.732002,611.16235 c 1.526689,-0.77802 2.781359,-1.83889 3.619939,-2.8393 l 5.688481,6.26102 c -0.46789,2.86357 -3.29981,3.76147 -4.94972,3.13051 z"
       style="fill:#000000;fill-opacity:1;stroke:none;filter:url(#filter3810)" />
    <path
       style="fill:url(#radialGradient3812);fill-opacity:1;stroke:none"
       d="m 14.278763,589.60124 c -6.2679209,0 -11.3484409,5.018 -11.3484409,11.20781 0,6.18981 5.08052,11.20781 11.3484409,11.20781 6.26791,0 11.35,-5.018 11.35,-11.20781 0,-6.18981 -5.08209,-11.20781 -11.35,-11.20781 z m 0.0703,3.46406 c 0.27215,0 0.54121,0.0144 0.80625,0.0406 0.26505,0.0262 0.52619,0.0645 0.78281,0.11563 0.25663,0.0511 0.50938,0.11434 0.75625,0.18906 0.24688,0.0747 0.48919,0.16076 0.725,0.25781 0.23582,0.0971 0.46564,0.20533 0.68907,0.32344 0.22343,0.11811 0.44027,0.2465 0.65,0.38438 0.20972,0.13787 0.41155,0.28583 0.60625,0.44218 0.19469,0.15636 0.38103,0.32177 0.55937,0.49532 0.17835,0.17354 0.3487,0.35429 0.50938,0.54375 0.16067,0.18945 0.313,0.38654 0.45468,0.59062 0.14169,0.20408 0.27238,0.4154 0.39375,0.63281 0.12138,0.21742 0.23308,0.44085 0.33282,0.67032 0.0997,0.22947 0.18727,0.46445 0.26406,0.70468 0.0768,0.24024 0.1428,0.48622 0.19531,0.73594 0.0525,0.24972 0.0918,0.50459 0.11875,0.7625 0.0269,0.25792 0.0406,0.51955 0.0406,0.78438 0,0.26482 -0.0137,0.52646 -0.0406,0.78437 -0.0269,0.25792 -0.0662,0.51122 -0.11875,0.76094 -0.0525,0.24972 -0.11852,0.4957 -0.19531,0.73594 -0.0768,0.24023 -0.16432,0.47522 -0.26406,0.70468 -0.0997,0.22947 -0.21144,0.4529 -0.33282,0.67032 -0.12137,0.21741 -0.25206,0.42873 -0.39375,0.63281 -0.14168,0.20408 -0.29401,0.40117 -0.45468,0.59062 -0.16068,0.18946 -0.33103,0.37177 -0.50938,0.54532 -0.17834,0.17354 -0.36468,0.33739 -0.55937,0.49375 -0.1947,0.15635 -0.39653,0.30431 -0.60625,0.44218 -0.20973,0.13788 -0.42657,0.26627 -0.65,0.38438 -0.22343,0.11811 -0.45325,0.22638 -0.68907,0.32344 -0.23581,0.0971 -0.47812,0.18309 -0.725,0.25781 -0.24687,0.0747 -0.49962,0.13796 -0.75625,0.18906 -0.25662,0.0511 -0.51776,0.0894 -0.78281,0.11563 -0.26504,0.0262 -0.5341,0.0406 -0.80625,0.0406 -0.27214,0 -0.53964,-0.0144 -0.80469,-0.0406 -0.26504,-0.0262 -0.52775,-0.0645 -0.78437,-0.11563 -0.25662,-0.0511 -0.50781,-0.11434 -0.75469,-0.18906 -0.24688,-0.0747 -0.48918,-0.16076 -0.725,-0.25781 -0.23581,-0.0971 -0.46563,-0.20533 -0.68906,-0.32344 -0.22343,-0.11811 -0.44028,-0.2465 -0.65,-0.38438 -0.20972,-0.13787 -0.41156,-0.28583 -0.60625,-0.44218 -0.1947,-0.15636 -0.38259,-0.32021 -0.5609405,-0.49375 -0.1783404,-0.17355 -0.3471304,-0.35586 -0.5078104,-0.54532 -0.16068,-0.18945 -0.313,-0.38654 -0.45469,-0.59062 -0.14168,-0.20408 -0.27237,-0.4154 -0.39375,-0.63281 -0.12137,-0.21742 -0.23307,-0.44085 -0.33281,-0.67032 -0.0997,-0.22946 -0.18884,-0.46445 -0.26563,-0.70468 -0.0768,-0.24024 -0.14123,-0.48622 -0.19375,-0.73594 -0.0525,-0.24972 -0.0918,-0.50302 -0.11875,-0.76094 -0.0269,-0.25791 -0.0406,-0.51955 -0.0406,-0.78437 0,-0.26483 0.0137,-0.52646 0.0406,-0.78438 0.0269,-0.25791 0.0662,-0.51278 0.11875,-0.7625 0.0525,-0.24972 0.11697,-0.4957 0.19375,-0.73594 0.0768,-0.24023 0.16589,-0.47521 0.26563,-0.70468 0.0997,-0.22947 0.21144,-0.4529 0.33281,-0.67032 0.12138,-0.21741 0.25207,-0.42873 0.39375,-0.63281 0.14169,-0.20408 0.29401,-0.40117 0.45469,-0.59062 0.16068,-0.18946 0.32947,-0.37021 0.5078104,-0.54375 0.1783505,-0.17355 0.3662405,-0.33896 0.5609405,-0.49532 0.19469,-0.15635 0.39653,-0.30431 0.60625,-0.44218 0.20972,-0.13788 0.42657,-0.26627 0.65,-0.38438 0.22343,-0.11811 0.45325,-0.22638 0.68906,-0.32344 0.23582,-0.097 0.47812,-0.18309 0.725,-0.25781 0.24688,-0.0747 0.49807,-0.13796 0.75469,-0.18906 0.25662,-0.0511 0.51933,-0.0894 0.78437,-0.11563 0.26505,-0.0262 0.53255,-0.0406 0.80469,-0.0406 z"
       id="path3022"
       inkscape:connector-curvature="0" />
    <path
       style="fill:url(#radialGradient3820);fill-opacity:1;stroke:none"
       d="m 14.349073,593.0653 c -0.27214,0 -0.53964,0.0144 -0.80469,0.0406 -0.26504,0.0262 -0.52775,0.0645 -0.78437,0.11563 -0.25662,0.0511 -0.50781,0.11434 -0.75469,0.18906 -0.24688,0.0747 -0.48918,0.16076 -0.725,0.25781 -0.23581,0.0971 -0.46563,0.20533 -0.68906,0.32344 -0.22343,0.11811 -0.44028,0.2465 -0.65,0.38438 -0.20972,0.13787 -0.41156,0.28583 -0.60625,0.44218 -0.1947,0.15636 -0.38259,0.32177 -0.5609405,0.49532 -0.1783404,0.17354 -0.3471304,0.35429 -0.5078104,0.54375 -0.16068,0.18945 -0.313,0.38654 -0.45469,0.59062 -0.14168,0.20408 -0.27237,0.4154 -0.39375,0.63281 -0.12137,0.21742 -0.23307,0.44085 -0.33281,0.67032 -0.0997,0.22947 -0.18884,0.46445 -0.26563,0.70468 -0.0768,0.24024 -0.14123,0.48622 -0.19375,0.73594 -0.0525,0.24972 -0.0918,0.50459 -0.11875,0.7625 -0.0269,0.25792 -0.0406,0.51955 -0.0406,0.78438 0,0.26482 0.0137,0.52646 0.0406,0.78437 0.0269,0.25792 0.0662,0.51122 0.11875,0.76094 0.0525,0.24972 0.11697,0.4957 0.19375,0.73594 0.0768,0.24023 0.16589,0.47522 0.26563,0.70468 0.0997,0.22947 0.21144,0.4529 0.33281,0.67032 0.12138,0.21741 0.25207,0.42873 0.39375,0.63281 0.14169,0.20408 0.29401,0.40117 0.45469,0.59062 0.16068,0.18946 0.32947,0.37177 0.5078104,0.54532 0.1783505,0.17354 0.3662405,0.33739 0.5609405,0.49375 0.19469,0.15635 0.39653,0.30431 0.60625,0.44218 0.20972,0.13788 0.42657,0.26627 0.65,0.38438 0.22343,0.11811 0.45325,0.22638 0.68906,0.32344 0.23582,0.0971 0.47812,0.18309 0.725,0.25781 0.24688,0.0747 0.49807,0.13796 0.75469,0.18906 0.25662,0.0511 0.51933,0.0894 0.78437,0.11563 0.26505,0.0262 0.53255,0.0406 0.80469,0.0406 0.27215,0 0.54121,-0.0144 0.80625,-0.0406 0.26505,-0.0262 0.52619,-0.0645 0.78281,-0.11563 0.25663,-0.0511 0.50938,-0.11434 0.75625,-0.18906 0.24688,-0.0747 0.48919,-0.16076 0.725,-0.25781 0.23582,-0.0971 0.46564,-0.20533 0.68907,-0.32344 0.22343,-0.11811 0.44027,-0.2465 0.65,-0.38438 0.20972,-0.13787 0.41155,-0.28583 0.60625,-0.44218 0.19469,-0.15636 0.38103,-0.32021 0.55937,-0.49375 0.17835,-0.17355 0.3487,-0.35586 0.50938,-0.54532 0.16067,-0.18945 0.313,-0.38654 0.45468,-0.59062 0.14169,-0.20408 0.27238,-0.4154 0.39375,-0.63281 0.12138,-0.21742 0.23308,-0.44085 0.33282,-0.67032 0.0997,-0.22946 0.18727,-0.46445 0.26406,-0.70468 0.0768,-0.24024 0.1428,-0.48622 0.19531,-0.73594 0.0525,-0.24972 0.0918,-0.50302 0.11875,-0.76094 0.0269,-0.25791 0.0406,-0.51955 0.0406,-0.78437 0,-0.26483 -0.0137,-0.52646 -0.0406,-0.78438 -0.0269,-0.25791 -0.0662,-0.51278 -0.11875,-0.7625 -0.0525,-0.24972 -0.11852,-0.4957 -0.19531,-0.73594 -0.0768,-0.24023 -0.16432,-0.47521 -0.26406,-0.70468 -0.0997,-0.22947 -0.21144,-0.4529 -0.33282,-0.67032 -0.12137,-0.21741 -0.25206,-0.42873 -0.39375,-0.63281 -0.14168,-0.20408 -0.29401,-0.40117 -0.45468,-0.59062 -0.16068,-0.18946 -0.33103,-0.37021 -0.50938,-0.54375 -0.17834,-0.17355 -0.36468,-0.33896 -0.55937,-0.49532 -0.1947,-0.15635 -0.39653,-0.30431 -0.60625,-0.44218 -0.20973,-0.13788 -0.42657,-0.26627 -0.65,-0.38438 -0.22343,-0.11811 -0.45325,-0.22638 -0.68907,-0.32344 -0.23581,-0.097 -0.47812,-0.18309 -0.725,-0.25781 -0.24687,-0.0747 -0.49962,-0.13796 -0.75625,-0.18906 -0.25662,-0.0511 -0.51776,-0.0894 -0.78281,-0.11563 -0.26504,-0.0262 -0.5341,-0.0406 -0.80625,-0.0406 z"
       id="path3810"
       inkscape:connector-curvature="0" />
    <path
       style="fill:url(#linearGradient3814);fill-opacity:1;stroke:url(#linearGradient3816);stroke-width:1;stroke-miterlimit:4;stroke-opacity:1;stroke-dasharray:none"
       d="m 19.732002,611.16235 c 1.52669,-0.77802 2.78136,-1.83889 3.61994,-2.8393 l 5.68848,6.26102 c -0.46789,2.86357 -3.29981,3.76147 -4.94972,3.13051 z"
       id="path4238"
       inkscape:connector-curvature="0"
       sodipodi:nodetypes="ccccc" />
    <path
       style="fill:url(#radialGradient3873);fill-opacity:1;stroke:none;stroke-width:0.75000000000000000;stroke-miterlimit:4;stroke-dasharray:none"
       d="m 20.45453,611.30215 c 1.34991,-0.83106 1.698842,-1.15488 2.890972,-2.24368 l 5.170184,5.68774 c -0.444758,1.86227 -2.336606,2.98295 -4.029222,2.50042 z"
       id="path4238-3-3"
       inkscape:connector-curvature="0"
       sodipodi:nodetypes="ccccc" />
    <path
       sodipodi:type="arc"
       style="fill:none;stroke:url(#linearGradient3837);stroke-width:12;stroke-miterlimit:4;stroke-opacity:1;stroke-dasharray:none;filter:url(#filter3849)"
       id="path3817"
       sodipodi:cx="305"
       sodipodi:cy="223.5"
       sodipodi:rx="180"
       sodipodi:ry="176.5"
       d="M 485,223.5 C 485,320.97826 404.41125,400 305,400 205.58875,400 125,320.97826 125,223.5 125,126.02174 205.58875,47 305,47 c 99.41125,0 180,79.02174 180,176.5 z"
       transform="matrix(0.05240268,0,0,0.05344183,-1.4486079,588.04573)" />
    <path
       sodipodi:nodetypes="cccsc"
       inkscape:connector-curvature="0"
       id="path3800"
       d="m 20.45453,611.30215 c 1.34991,-0.83106 1.698842,-1.15488 2.890972,-2.24368 l 5.170184,5.68774 c -1.197071,-1.25185 -2.30442,-1.11385 -4.300091,-2.02884 -1.436934,-0.65881 -2.410164,-1.84936 -3.761065,-1.41522 z"
       style="fill:url(#linearGradient3802);fill-opacity:1;stroke:none" />
  </g>
</svg>
