<?xml version="1.0" encoding="UTF-8" standalone="no"?>
<!-- Created with Inkscape (http://www.inkscape.org/) -->

<svg
   xmlns:dc="http://purl.org/dc/elements/1.1/"
   xmlns:cc="http://creativecommons.org/ns#"
   xmlns:rdf="http://www.w3.org/1999/02/22-rdf-syntax-ns#"
   xmlns:svg="http://www.w3.org/2000/svg"
   xmlns="http://www.w3.org/2000/svg"
   xmlns:xlink="http://www.w3.org/1999/xlink"
   xmlns:sodipodi="http://sodipodi.sourceforge.net/DTD/sodipodi-0.dtd"
   xmlns:inkscape="http://www.inkscape.org/namespaces/inkscape"
   width="620"
   height="620"
   id="svg3993"
   sodipodi:version="0.32"
   inkscape:version="0.48.1 r9760"
   sodipodi:docname="magnifying-glass-left-shiny.svg"
   inkscape:output_extension="org.inkscape.output.svg.inkscape"
   version="1.0"
   inkscape:export-filename="magnifying-glass.png"
   inkscape:export-xdpi="2.3199999"
   inkscape:export-ydpi="2.3199999">
  <defs
     id="defs3995">
    <linearGradient
       id="linearGradient3831">
      <stop
         style="stop-color:#ffffff;stop-opacity:1;"
         offset="0"
         id="stop3833" />
      <stop
         id="stop3853"
         offset="0.21438295"
         style="stop-color:#ffffff;stop-opacity:0;" />
      <stop
         id="stop3843"
         offset="0.87306166"
         style="stop-color:#ffffff;stop-opacity:0;" />
      <stop
         style="stop-color:#ffffff;stop-opacity:1;"
         offset="1"
         id="stop3835" />
    </linearGradient>
    <linearGradient
       id="linearGradient3785">
      <stop
         style="stop-color:#e0ecf2;stop-opacity:0.22047244;"
         offset="0"
         id="stop3787" />
      <stop
         id="stop3807"
         offset="0.70465863"
         style="stop-color:#e3f1f3;stop-opacity:0.36220473;" />
      <stop
         style="stop-color:#b9e0e0;stop-opacity:0.22834645;"
         offset="1"
         id="stop3789" />
    </linearGradient>
    <linearGradient
       id="diffuseColorGradient">
      <stop
         style="stop-color:#7f6440;stop-opacity:1;"
         offset="0"
         id="stop4296" />
      <stop
         style="stop-color:#ff6000;stop-opacity:1;"
         offset="1"
         id="stop4298" />
    </linearGradient>
    <linearGradient
       id="linearGradient4232">
      <stop
         id="stop4234"
         offset="0"
         style="stop-color:#bbbbbb;stop-opacity:1;" />
      <stop
         id="stop4236"
         offset="1"
         style="stop-color:#000000;stop-opacity:1;" />
    </linearGradient>
    <linearGradient
       id="linearGradient3200">
      <stop
         style="stop-color:#ffffff;stop-opacity:0.78431374;"
         offset="0"
         id="stop3202" />
      <stop
         style="stop-color:#ffffff;stop-opacity:0;"
         offset="1"
         id="stop3204" />
    </linearGradient>
    <linearGradient
       inkscape:collect="always"
       xlink:href="#diffuseColorGradient"
       id="linearGradient4246"
       x1="427.37592"
       y1="542.37195"
       x2="560.3678"
       y2="263.70697"
       gradientUnits="userSpaceOnUse"
       gradientTransform="matrix(-1.0447691,0,0,1.0295841,629.13424,-29.242528)" />
    <radialGradient
       inkscape:collect="always"
       xlink:href="#linearGradient3785"
       id="radialGradient3820"
       cx="304.76562"
       cy="231.79688"
       fx="304.76562"
       fy="231.79688"
       r="157.67188"
       gradientTransform="matrix(1,0,0,0.97324348,43.02521,-1.8651502)"
       gradientUnits="userSpaceOnUse" />
    <radialGradient
       inkscape:collect="always"
       xlink:href="#linearGradient4232"
       id="radialGradient3831"
       cx="301.32986"
       cy="234.6981"
       fx="301.32986"
       fy="234.6981"
       r="226.98438"
       gradientTransform="matrix(1.2304788,0.00229954,-0.00233466,1.249276,-22.433304,-67.329897)"
       gradientUnits="userSpaceOnUse" />
    <filter
       inkscape:collect="always"
       id="filter3835">
      <feGaussianBlur
         inkscape:collect="always"
         stdDeviation="4.7369766"
         id="feGaussianBlur3837" />
    </filter>
    <linearGradient
       id="undershineGradient">
      <stop
         style="stop-color:#ff6101;stop-opacity:1;"
         offset="0"
         id="stop4296-7" />
      <stop
         style="stop-color:#523d1a;stop-opacity:0;"
         offset="1"
         id="stop4298-6" />
    </linearGradient>
    <linearGradient
       inkscape:collect="always"
       xlink:href="#linearGradient3200"
       id="linearGradient3866"
       x1="360.58765"
       y1="2.2424862"
       x2="233.83633"
       y2="601.47168"
       gradientUnits="userSpaceOnUse"
       gradientTransform="translate(43.02521,-8.0672269)" />
    <linearGradient
       inkscape:collect="always"
       xlink:href="#linearGradient3200"
       id="linearGradient3842"
       x1="511.7807"
       y1="590.34906"
       x2="471.27594"
       y2="381.41388"
       gradientUnits="userSpaceOnUse"
       gradientTransform="translate(43.02521,-8.0672269)" />
    <radialGradient
       inkscape:collect="always"
       xlink:href="#undershineGradient"
       id="radialGradient3873"
       cx="539.73773"
       cy="558.62531"
       fx="539.73773"
       fy="558.62531"
       r="84.939293"
       gradientTransform="matrix(-1.2552338,-1.1152561,-0.73766234,0.83024746,1201.7274,673.14852)"
       gradientUnits="userSpaceOnUse" />
    <linearGradient
       inkscape:collect="always"
       xlink:href="#linearGradient3831"
       id="linearGradient3837"
       x1="338.73737"
       y1="49.157681"
       x2="262.19125"
       y2="390.72629"
       gradientUnits="userSpaceOnUse" />
    <filter
       inkscape:collect="always"
       id="filter3849">
      <feGaussianBlur
         inkscape:collect="always"
         stdDeviation="5.3472423"
         id="feGaussianBlur3851" />
    </filter>
    <filter
       inkscape:collect="always"
       id="filter3799"
       x="-0.10013552"
       width="1.200271"
       y="-0.092192517"
       height="1.184385">
      <feGaussianBlur
         inkscape:collect="always"
         stdDeviation="21.665184"
         id="feGaussianBlur3801" />
    </filter>
    <linearGradient
       inkscape:collect="always"
       xlink:href="#diffuseColorGradient"
       id="linearGradient3805"
       x1="131.8707"
       y1="631.85138"
       x2="140.45921"
       y2="665.46478"
       gradientUnits="userSpaceOnUse" />
    <filter
       inkscape:collect="always"
       id="filter3807">
      <feGaussianBlur
         inkscape:collect="always"
         stdDeviation="3.3981986"
         id="feGaussianBlur3809" />
    </filter>
    <radialGradient
       inkscape:collect="always"
       xlink:href="#linearGradient3200"
       id="radialGradient3811"
       cx="154.23318"
       cy="460.03857"
       fx="154.23318"
       fy="460.03857"
       r="69.834312"
       gradientTransform="matrix(-1.4948944,0.76769873,-0.32964609,-0.64190032,546.34495,581.85489)"
       gradientUnits="userSpaceOnUse" />
  </defs>
  <sodipodi:namedview
     id="base"
     pagecolor="#ffffff"
     bordercolor="#666666"
     borderopacity="1.0"
     gridtolerance="10000"
     guidetolerance="10"
     objecttolerance="10"
     inkscape:pageopacity="0.0"
     inkscape:pageshadow="2"
     inkscape:zoom="0.74374997"
     inkscape:cx="303.5451"
     inkscape:cy="215.49736"
     inkscape:document-units="px"
     inkscape:current-layer="layer1"
     showgrid="false"
     inkscape:window-width="1167"
     inkscape:window-height="761"
     inkscape:window-x="362"
     inkscape:window-y="206"
     inkscape:window-maximized="0" />
  <metadata
     id="metadata3998">
    <rdf:RDF>
      <cc:Work
         rdf:about="">
        <dc:format>image/svg+xml</dc:format>
        <dc:type
           rdf:resource="http://purl.org/dc/dcmitype/StillImage" />
        <dc:title />
      </cc:Work>
    </rdf:RDF>
  </metadata>
  <g
     inkscape:label="Layer 1"
     inkscape:groupmode="layer"
     id="layer1">
    <g
       id="g3803"
       transform="matrix(-1,0,0,1,605.63702,-13.445378)"
       style="filter:url(#filter3799)">
      <path
         inkscape:connector-curvature="0"
         id="path3022-3"
         d="m 276.8796,47.915393 c -125.3583,0 -226.968752,100.360047 -226.968752,224.156257 0,123.7962 101.610452,224.15625 226.968752,224.15625 125.3583,0 227,-100.36005 227,-224.15625 0,-123.79621 -101.6417,-224.156257 -227,-224.156257 z m 1.40625,69.281247 c 5.44293,0 10.8241,0.28865 16.125,0.8125 5.3009,0.52385 10.5238,1.29051 15.65625,2.3125 5.13245,1.022 10.18742,2.28683 15.125,3.78125 4.93758,1.49443 9.78371,3.2151 14.5,5.15625 4.71629,1.94115 9.31267,4.10659 13.78125,6.46875 4.46858,2.36217 8.80556,4.93003 13,7.6875 4.19444,2.75747 8.23111,5.71669 12.125,8.84375 3.89389,3.12706 7.62058,6.43531 11.1875,9.90626 3.56692,3.47095 6.97398,7.08588 10.1875,10.875 3.21352,3.78912 6.26004,7.73091 9.09375,11.8125 2.83371,4.08159 5.44752,8.30791 7.875,12.65625 2.42748,4.34834 4.66143,8.81686 6.65625,13.40625 1.99482,4.58939 3.7455,9.28902 5.28125,14.09375 1.53575,4.80473 2.856,9.72439 3.90625,14.71875 1.05025,4.99436 1.83666,10.09172 2.375,15.25 0.53834,5.15828 0.8125,10.39101 0.8125,15.6875 0,5.29649 -0.27416,10.52922 -0.8125,15.6875 -0.53834,5.15828 -1.32475,10.22439 -2.375,15.21875 -1.05025,4.99436 -2.3705,9.91402 -3.90625,14.71875 -1.53575,4.80473 -3.28643,9.50436 -5.28125,14.09375 -1.99482,4.58939 -4.22877,9.05791 -6.65625,13.40625 -2.42748,4.34834 -5.04129,8.57466 -7.875,12.65625 -2.83371,4.08159 -5.88023,8.02338 -9.09375,11.8125 -3.21352,3.78912 -6.62058,7.4353 -10.1875,10.90625 -3.56692,3.47095 -7.29361,6.74794 -11.1875,9.875 -3.89389,3.12706 -7.93056,6.08628 -12.125,8.84375 -4.19444,2.75747 -8.53142,5.32534 -13,7.6875 -4.46858,2.36216 -9.06496,4.5276 -13.78125,6.46875 -4.71629,1.94115 -9.56242,3.66182 -14.5,5.15625 -4.93758,1.49443 -9.99255,2.75926 -15.125,3.78125 -5.13245,1.02199 -10.35535,1.78865 -15.65625,2.3125 -5.3009,0.52385 -10.68207,0.8125 -16.125,0.8125 -5.44293,0 -10.79285,-0.28865 -16.09375,-0.8125 -5.3009,-0.52385 -10.55505,-1.29051 -15.6875,-2.3125 -5.13245,-1.02199 -10.15617,-2.28682 -15.09375,-3.78125 -4.93758,-1.49443 -9.78371,-3.2151 -14.5,-5.15625 -4.71629,-1.94115 -9.31267,-4.10659 -13.78125,-6.46875 -4.46858,-2.36216 -8.80556,-4.93003 -13,-7.6875 -4.19444,-2.75747 -8.23111,-5.71669 -12.125,-8.84375 -3.89389,-3.12706 -7.65183,-6.40405 -11.21875,-9.875 -3.56692,-3.47095 -6.94273,-7.11713 -10.15625,-10.90625 -3.21352,-3.78912 -6.26004,-7.73091 -9.09375,-11.8125 -2.83371,-4.08159 -5.44752,-8.30791 -7.875,-12.65625 -2.42748,-4.34834 -4.66143,-8.81686 -6.65625,-13.40625 -1.99482,-4.58939 -3.77675,-9.28902 -5.3125,-14.09375 -1.53575,-4.80473 -2.82475,-9.72439 -3.875,-14.71875 -1.05025,-4.99436 -1.83666,-10.06047 -2.375,-15.21875 -0.53834,-5.15828 -0.8125,-10.39101 -0.8125,-15.6875 0,-5.29649 0.27416,-10.52922 0.8125,-15.6875 0.53834,-5.15828 1.32475,-10.25564 2.375,-15.25 1.05025,-4.99436 2.33925,-9.91402 3.875,-14.71875 1.53575,-4.80473 3.31768,-9.50436 5.3125,-14.09375 1.99482,-4.58939 4.22877,-9.05791 6.65625,-13.40625 2.42748,-4.34834 5.04129,-8.57466 7.875,-12.65625 2.83371,-4.08159 5.88023,-8.02338 9.09375,-11.8125 3.21352,-3.78912 6.58933,-7.40405 10.15625,-10.875 3.56692,-3.47095 7.32486,-6.7792 11.21875,-9.90626 3.89389,-3.12706 7.93056,-6.08628 12.125,-8.84375 4.19444,-2.75747 8.53142,-5.32533 13,-7.6875 4.46858,-2.36216 9.06496,-4.5276 13.78125,-6.46875 4.71629,-1.94115 9.56242,-3.66182 14.5,-5.15625 4.93758,-1.49442 9.9613,-2.75925 15.09375,-3.78125 5.13245,-1.02199 10.3866,-1.78865 15.6875,-2.3125 5.3009,-0.52385 10.65082,-0.8125 16.09375,-0.8125 z"
         style="fill:#000000;fill-opacity:0.78431373;stroke:none" />
      <path
         sodipodi:nodetypes="ccccc"
         inkscape:connector-curvature="0"
         id="path4238-36"
         d="m 383.00318,477.03688 c 30.53389,-15.56049 55.62717,-36.77783 72.39881,-56.78601 l 113.76956,125.22045 c -9.35767,57.27137 -65.99619,75.22934 -98.99429,62.61022 z"
         style="fill:#000000;fill-opacity:0.78431373;stroke:none" />
    </g>
    <path
       style="fill:url(#radialGradient3831);fill-opacity:1;stroke:none"
       d="m 346.36896,0.99527311 c -125.3583,0 -226.96875,100.36005689 -226.96875,224.15625689 0,123.7962 101.61045,224.15625 226.96875,224.15625 125.3583,0 227,-100.36005 227,-224.15625 0,-123.7962 -101.6417,-224.15625689 -227,-224.15625689 z m 1.40625,69.28124989 c 5.44293,0 10.8241,0.288649 16.125,0.8125 5.3009,0.523851 10.5238,1.290507 15.65625,2.3125 5.13245,1.021993 10.18742,2.286824 15.125,3.78125 4.93758,1.494426 9.78371,3.215101 14.5,5.15625 4.71629,1.941149 9.31267,4.106587 13.78125,6.46875 4.46858,2.362163 8.80556,4.93003 13,7.6875 4.19444,2.75747 8.23111,5.716697 12.125,8.843757 3.89389,3.12706 7.62058,6.4353 11.1875,9.90625 3.56692,3.47095 6.97398,7.08588 10.1875,10.875 3.21352,3.78912 6.26004,7.73091 9.09375,11.8125 2.83371,4.08159 5.44752,8.30791 7.875,12.65625 2.42748,4.34834 4.66143,8.81686 6.65625,13.40625 1.99482,4.58939 3.7455,9.28902 5.28125,14.09375 1.53575,4.80473 2.856,9.72439 3.90625,14.71875 1.05025,4.99436 1.83666,10.09172 2.375,15.25 0.53834,5.15828 0.8125,10.39101 0.8125,15.6875 0,5.29649 -0.27416,10.52922 -0.8125,15.6875 -0.53834,5.15828 -1.32475,10.22439 -2.375,15.21875 -1.05025,4.99436 -2.3705,9.91402 -3.90625,14.71875 -1.53575,4.80473 -3.28643,9.50436 -5.28125,14.09375 -1.99482,4.58939 -4.22877,9.05791 -6.65625,13.40625 -2.42748,4.34834 -5.04129,8.57466 -7.875,12.65625 -2.83371,4.08159 -5.88023,8.02338 -9.09375,11.8125 -3.21352,3.78912 -6.62058,7.4353 -10.1875,10.90625 -3.56692,3.47095 -7.29361,6.74794 -11.1875,9.875 -3.89389,3.12706 -7.93056,6.08628 -12.125,8.84375 -4.19444,2.75747 -8.53142,5.32534 -13,7.6875 -4.46858,2.36216 -9.06496,4.5276 -13.78125,6.46875 -4.71629,1.94115 -9.56242,3.66182 -14.5,5.15625 -4.93758,1.49443 -9.99255,2.75926 -15.125,3.78125 -5.13245,1.02199 -10.35535,1.78865 -15.65625,2.3125 -5.3009,0.52385 -10.68207,0.8125 -16.125,0.8125 -5.44293,0 -10.79285,-0.28865 -16.09375,-0.8125 -5.3009,-0.52385 -10.55505,-1.29051 -15.6875,-2.3125 -5.13245,-1.02199 -10.15617,-2.28682 -15.09375,-3.78125 -4.93758,-1.49443 -9.78371,-3.2151 -14.5,-5.15625 -4.71629,-1.94115 -9.31267,-4.10659 -13.78125,-6.46875 -4.46858,-2.36216 -8.80556,-4.93003 -13,-7.6875 -4.19444,-2.75747 -8.23111,-5.71669 -12.125,-8.84375 -3.89389,-3.12706 -7.65183,-6.40405 -11.21875,-9.875 -3.56692,-3.47095 -6.94273,-7.11713 -10.15625,-10.90625 -3.21352,-3.78912 -6.26004,-7.73091 -9.09375,-11.8125 -2.83371,-4.08159 -5.44752,-8.30791 -7.875,-12.65625 -2.42748,-4.34834 -4.66143,-8.81686 -6.65625,-13.40625 -1.99482,-4.58939 -3.77675,-9.28902 -5.3125,-14.09375 -1.53575,-4.80473 -2.82475,-9.72439 -3.875,-14.71875 -1.05025,-4.99436 -1.83666,-10.06047 -2.375,-15.21875 -0.53834,-5.15828 -0.8125,-10.39101 -0.8125,-15.6875 0,-5.29649 0.27416,-10.52922 0.8125,-15.6875 0.53834,-5.15828 1.32475,-10.25564 2.375,-15.25 1.05025,-4.99436 2.33925,-9.91402 3.875,-14.71875 1.53575,-4.80473 3.31768,-9.50436 5.3125,-14.09375 1.99482,-4.58939 4.22877,-9.05791 6.65625,-13.40625 2.42748,-4.34834 5.04129,-8.57466 7.875,-12.65625 2.83371,-4.08159 5.88023,-8.02338 9.09375,-11.8125 3.21352,-3.78912 6.58933,-7.40405 10.15625,-10.875 3.56692,-3.47095 7.32486,-6.77919 11.21875,-9.90625 3.89389,-3.12706 7.93056,-6.086287 12.125,-8.843757 4.19444,-2.75747 8.53142,-5.325337 13,-7.6875 4.46858,-2.362163 9.06496,-4.527601 13.78125,-6.46875 4.71629,-1.941149 9.56242,-3.661824 14.5,-5.15625 4.93758,-1.494426 9.9613,-2.759257 15.09375,-3.78125 5.13245,-1.021993 10.3866,-1.788649 15.6875,-2.3125 5.3009,-0.523851 10.65082,-0.8125 16.09375,-0.8125 z"
       id="path3022"
       inkscape:connector-curvature="0" />
    <path
       style="fill:url(#radialGradient3820);fill-opacity:1;stroke:none"
       d="m 347.77521,70.276523 c -5.44293,0 -10.79285,0.288649 -16.09375,0.8125 -5.3009,0.523851 -10.55505,1.290507 -15.6875,2.3125 -5.13245,1.021993 -10.15617,2.286824 -15.09375,3.78125 -4.93758,1.494426 -9.78371,3.215101 -14.5,5.15625 -4.71629,1.941149 -9.31267,4.106587 -13.78125,6.46875 -4.46858,2.362163 -8.80556,4.93003 -13,7.6875 -4.19444,2.75747 -8.23111,5.716697 -12.125,8.843757 -3.89389,3.12706 -7.65183,6.4353 -11.21875,9.90625 -3.56692,3.47095 -6.94273,7.08588 -10.15625,10.875 -3.21352,3.78912 -6.26004,7.73091 -9.09375,11.8125 -2.83371,4.08159 -5.44752,8.30791 -7.875,12.65625 -2.42748,4.34834 -4.66143,8.81686 -6.65625,13.40625 -1.99482,4.58939 -3.77675,9.28902 -5.3125,14.09375 -1.53575,4.80473 -2.82475,9.72439 -3.875,14.71875 -1.05025,4.99436 -1.83666,10.09172 -2.375,15.25 -0.53834,5.15828 -0.8125,10.39101 -0.8125,15.6875 0,5.29649 0.27416,10.52922 0.8125,15.6875 0.53834,5.15828 1.32475,10.22439 2.375,15.21875 1.05025,4.99436 2.33925,9.91402 3.875,14.71875 1.53575,4.80473 3.31768,9.50436 5.3125,14.09375 1.99482,4.58939 4.22877,9.05791 6.65625,13.40625 2.42748,4.34834 5.04129,8.57466 7.875,12.65625 2.83371,4.08159 5.88023,8.02338 9.09375,11.8125 3.21352,3.78912 6.58933,7.4353 10.15625,10.90625 3.56692,3.47095 7.32486,6.74794 11.21875,9.875 3.89389,3.12706 7.93056,6.08628 12.125,8.84375 4.19444,2.75747 8.53142,5.32534 13,7.6875 4.46858,2.36216 9.06496,4.5276 13.78125,6.46875 4.71629,1.94115 9.56242,3.66182 14.5,5.15625 4.93758,1.49443 9.9613,2.75926 15.09375,3.78125 5.13245,1.02199 10.3866,1.78865 15.6875,2.3125 5.3009,0.52385 10.65082,0.8125 16.09375,0.8125 5.44293,0 10.8241,-0.28865 16.125,-0.8125 5.3009,-0.52385 10.5238,-1.29051 15.65625,-2.3125 5.13245,-1.02199 10.18742,-2.28682 15.125,-3.78125 4.93758,-1.49443 9.78371,-3.2151 14.5,-5.15625 4.71629,-1.94115 9.31267,-4.10659 13.78125,-6.46875 4.46858,-2.36216 8.80556,-4.93003 13,-7.6875 4.19444,-2.75747 8.23111,-5.71669 12.125,-8.84375 3.89389,-3.12706 7.62058,-6.40405 11.1875,-9.875 3.56692,-3.47095 6.97398,-7.11713 10.1875,-10.90625 3.21352,-3.78912 6.26004,-7.73091 9.09375,-11.8125 2.83371,-4.08159 5.44752,-8.30791 7.875,-12.65625 2.42748,-4.34834 4.66143,-8.81686 6.65625,-13.40625 1.99482,-4.58939 3.7455,-9.28902 5.28125,-14.09375 1.53575,-4.80473 2.856,-9.72439 3.90625,-14.71875 1.05025,-4.99436 1.83666,-10.06047 2.375,-15.21875 0.53834,-5.15828 0.8125,-10.39101 0.8125,-15.6875 0,-5.29649 -0.27416,-10.52922 -0.8125,-15.6875 -0.53834,-5.15828 -1.32475,-10.25564 -2.375,-15.25 -1.05025,-4.99436 -2.3705,-9.91402 -3.90625,-14.71875 -1.53575,-4.80473 -3.28643,-9.50436 -5.28125,-14.09375 -1.99482,-4.58939 -4.22877,-9.05791 -6.65625,-13.40625 -2.42748,-4.34834 -5.04129,-8.57466 -7.875,-12.65625 -2.83371,-4.08159 -5.88023,-8.02338 -9.09375,-11.8125 -3.21352,-3.78912 -6.62058,-7.40405 -10.1875,-10.875 -3.56692,-3.47095 -7.29361,-6.77919 -11.1875,-9.90625 -3.89389,-3.12706 -7.93056,-6.086287 -12.125,-8.843757 -4.19444,-2.75747 -8.53142,-5.325337 -13,-7.6875 -4.46858,-2.362163 -9.06496,-4.527601 -13.78125,-6.46875 -4.71629,-1.941149 -9.56242,-3.661824 -14.5,-5.15625 -4.93758,-1.494426 -9.99255,-2.759257 -15.125,-3.78125 -5.13245,-1.021993 -10.35535,-1.788649 -15.65625,-2.3125 -5.3009,-0.523851 -10.68207,-0.8125 -16.125,-0.8125 z"
       id="path3810"
       inkscape:connector-curvature="0" />
    <path
       style="fill:url(#linearGradient4246);fill-opacity:1;stroke:url(#linearGradient3805);stroke-width:12;stroke-miterlimit:4;stroke-dasharray:none;stroke-opacity:1"
       d="M 242.02225,431.4613 C 211.48836,415.90081 186.39508,394.68347 169.62344,374.67529 L 55.853885,499.89574 c 9.35767,57.27137 65.996185,75.22934 98.994285,62.61022 z"
       id="path4238"
       inkscape:connector-curvature="0"
       sodipodi:nodetypes="ccccc" />
    <path
       style="fill:url(#radialGradient3873);fill-opacity:1;stroke:none"
       d="M 232.33033,432.2115 C 205.33198,415.59035 192.92255,405.02515 169.07986,383.24921 L 60.550285,501.79399 c 18.22283,51.44716 52.698455,65.03697 88.651595,53.8739 z"
       id="path4238-3-3"
       inkscape:connector-curvature="0"
       sodipodi:nodetypes="ccccc" />
    <path
       style="fill:none;stroke:url(#linearGradient3842);stroke-width:12;stroke-miterlimit:4;stroke-opacity:1;stroke-dasharray:none;filter:url(#filter3807)"
       d="m 468.66455,432.63997 c 26.99836,-16.62116 31.80193,-17.67904 55.64463,-39.45498 l 101.39908,108.5621 c -16.79673,43.36594 -41.76504,50.77599 -77.71817,45.31731 z"
       id="path4238-3-0"
       inkscape:connector-curvature="0"
       sodipodi:nodetypes="ccccc"
       transform="matrix(-1,0,0,1,694.51484,1.3445378)" />
    <path
       style="fill:url(#radialGradient3811);fill-opacity:1;stroke:none"
       d="m 229.93342,429.60025 c -22.72897,-9.91552 -40.56351,-25.0888 -60.91821,-45.50995 l -78.750423,86.11035 c 78.935733,-52.68244 68.347043,8.1659 139.668633,-40.6004 z"
       id="path4238-3"
       inkscape:connector-curvature="0"
       sodipodi:nodetypes="cccc" />
    <path
       id="path3833"
       d="m 346.36896,0.99527311 c -125.3583,0 -226.96875,100.36005689 -226.96875,224.15625689 0,123.7962 101.61045,224.15625 226.96875,224.15625 125.3583,0 227,-100.36005 227,-224.15625 0,-123.7962 -101.6417,-224.15625689 -227,-224.15625689 z"
       style="fill:none;stroke:url(#linearGradient3866);stroke-width:12;stroke-miterlimit:4;stroke-opacity:1;stroke-dasharray:none;filter:url(#filter3835)"
       inkscape:connector-curvature="0"
       sodipodi:nodetypes="sssss" />
    <path
       sodipodi:type="arc"
       style="fill:none;stroke:url(#linearGradient3837);stroke-width:12;stroke-miterlimit:4;stroke-opacity:1;stroke-dasharray:none;filter:url(#filter3849)"
       id="path3817"
       sodipodi:cx="305"
       sodipodi:cy="223.5"
       sodipodi:rx="180"
       sodipodi:ry="176.5"
       d="m 485,223.5 a 180,176.5 0 1 1 -360,0 180,176.5 0 1 1 360,0 z"
       transform="matrix(1.0480536,0,0,1.0688365,31.821622,-30.114966)" />
  </g>
</svg>
