/* XPM */
static char * mred[] = {
"32 32 4 1",
" 	c #000000",
".	c #ff0000",
"X	c #0000ff",
"o	c #ffffff",
"                                ",
"          ..       XX           ",
"        ..  ooooooo  XX         ",
"       .. ooooooooooo XXX       ",
"      .. ooooooooooooo XXX      ",
"     .. ooooooooooooooo XXX     ",
"    .. ooooo       ooooo XXX    ",
"   ... oooo ....... oooo XXXX   ",
"   ... oooo ....... oooo XXXX   ",
"  .... oooo ....... oooo XXXXX  ",
"  .....    ........ oooo XXXXX  ",
" ................. ooooo XXXXXX ",
" ................ oooooo XXXXXX ",
" ............... oooooo XXXXXXX ",
" .............. oooooo XXXXXXXX ",
" ............. oooooo XXXXXXXXX ",
" ............ oooooo XXXXXXXXXX ",
" ............ ooooo XXXXXXXXXXX ",
" ............ oooo XXXXXXXXXXXX ",
" ............ oooo XXXXXXXXXXXX ",
" ............ oooo XXXXXXXXXXXX ",
"  ........... oooo XXXXXXXXXXX  ",
"  ............ oo XXXXXXXXXXXX  ",
"   ............  XXXXXXXXXXXX   ",
"   .............XXXXXXXXXXXXX   ",
"    ...........  XXXXXXXXXXX    ",
"     ........  oo  XXXXXXXX     ",
"      ...... oooooo XXXXXX      ",
"        .... oooooo XXXX        ",
"         ....  oo  XXXX         ",
"           ....  XXXX           ",
"                                "};
