/* XPM */
static char *plt[] = {
/* width height num_colors chars_per_pixel */
"    40    40       11           1",
/* colors */
"d	c None s None",
". c #970400",
"# c #0004a1",
"a c #ff0000",
"b c #8fa38b",
"c c #060b04",
"i c #ffffff",
"e c #f7fff7",
"f c #0c1324",
"g c #242213",
"h c #0000ff",
/* pixels */
"dddddddddddddddddddddddddddddddddddddddd",
"dddddddddddddddddddddddddddddddddddddddd",
"ddddddddddddddbggcccccgggbeddddddddddddd",
"ddddddddddddegccccccfccccccgeddddddddddd",
"ddddddddddegcgdeebchhhhhh#ccccbddddddddd",
"dddddddddbgcgiiiiig#hhhhhhhhcccgdddddddd",
"ddddddddbccciibbbibchhhhhhhhh#cccedddddd",
"dddddddgcaagecg.ggichhhhhhhhhhh#cceddddd",
"ddddddbcaaaccaaaa.ebfhhhhhhhhhhh#ccedddd",
"dddddecaaaagaaaaaagichhhhhhhhhhhhhcceddd",
"ddddecaaaaaaaaaaaagigfhhhhhhhhhhhh#cgddd",
"ddddcgaaaaaaaaaaaa.bechhhhhhhhhhhhhfcedd",
"dddbcaaaaaaaaaaaaaagig#hhhhhhhhhhhhhccdd",
"ddeggaaaaaaaaaaaaaagiechhhhhhhhhhhhhfced",
"ddbcaaaaaaaaaaaaaaagiic#hhhhhhhhhhhhhccd",
"ddgcaaaaaaaaaaaaaa.giicfhhhhhhhhhhhhhfcd",
"ddcgaaaaaaaaaaaaaagbiigchhhhhhhhhhhhh#ce",
"decaaaaaaaaaaaaaaaciiiechhhhhhhhhhhhhhcb",
"decaaaaaaaaaaaaaacbiiiichhhhhhhhhhhhhhcb",
"dbcaaaaaaaaaaaaaaciiiiibfhhhhhhhhhhhhhcb",
"dbcaaaaaaaaaaaaacbiiibiichhhhhhhhhhhhhcb",
"dbcaaaaaaaaaaaaaciiiiccigfhhhhhhhhhhhhcb",
"dbcaaaaaaaaaaaa.biiib.ciechhhhhhhhhhh#ce",
"decaaaaaaaaaaaaciiiiga.gig#hhhhhhhhhh#cd",
"decaaaaaaaaaaa.giiibaaacib#hhhhhhhhhhfcd",
"ddcaaaaaaaaaaaciiiigaaaceichhhhhhhhhhcgd",
"ddgaaaaaaaaaaabiiibaaaaagighhhhhhhhhhced",
"ddbcaaaaaaaaacdiiigaaaaacib#hhhhhhhhfcdd",
"ddecaaaaaaaaacdiib.aaaaaceichhhhhhhhcbdd",
"dddggaaaaaaagbiiigaaaaaaggig#hhhh#h#cddd",
"dddec.aaaaaaciiiegaaaaaaaciec#h#ccgcgddd",
"ddddbcaaaaagbiiigaaaaaaaa.eiggccbcgceddd",
"ddddebcaaa.ciiiegaaaaaaaaaciiiiiiccgdddd",
"ddddddgcaacbiiigaaaaaaaaaaggiiiiigcedddd",
"dddddddgccgeiibcaaaaaaaaaaacgiiiccdddddd",
"ddddddddgccggaaaaaaaaaaaaaaacccccedddddd",
"dddddddddbcgaaaaaaaaaaaaaaacccccdddddddd",
"ddddddddddegcg.aaaaaaaaagcccccbddddddddd",
"ddddddddddddbccccgcccccccccgbddddddddddd",
"ddddddddddddddebbbggggbbbedddddddddddddd"
};
