/* XPM */
static char * button_xpm[] = {
"16 16 3 1",
" 	c #FFFFFFFFFFFF",
".	c #000000000000",
"X	c #A0A0A0A0A0A0",
"                ",
"                ",
"                ",
"                ",
"   ..........   ",
"  .          .  ",
" .   XX  X X  . ",
" .  X  X XX   . ",
" .  X  X X X  . ",
" .   XX  X X  . ",
"  .          .  ",
"   ..........   ",
"                ",
"                ",
"                ",
"                "};
