/* XPM */
static char * canvas_xpm[] = {
"16 16 3 1",
" 	c #FFFFFFFFFFFF",
".	c #A0A0A0A0A0A0",
"X	c #000000000000",
"                ",
" .............. ",
" . XXX      . . ",
" .X   X     . . ",
" .X XXXXX   . . ",
" .X X X X   . . ",
" . XXX  X   . . ",
" .  XXXXX   . . ",
" .       X  . . ",
" .       XX . . ",
" .       XXX. . ",
" .       XXXX . ",
" ........XXX... ",
" .         XX . ",
" ...........X.. ",
"                "};
