/* XPM */
static char *gauge[] = {
/* width height num_colors chars_per_pixel */
"    16    16        3            1",
/* colors */
". c #000000",
"# c #a0a0a0",
"a c #ffffff",
/* pixels */
"aaaaaaaaaaaaaaaa",
"aaaaaaaaaaaaaaaa",
"aaaaaaaaaaaaaaaa",
"aaaaaaaaaaaaaaaa",
"aaaaaaaaaaaaaaaa",
"a..............a",
"a.######aaaaaa.a",
"a.######aaaaaa.a",
"a.######aaaaaa.a",
"a.######aaaaaa.a",
"a..............a",
"aaaaaaaaaaaaaaaa",
"aaaaaaaaaaaaaaaa",
"aaaaaaaaaaaaaaaa",
"aaaaaaaaaaaaaaaa",
"aaaaaaaaaaaaaaaa"
};
