/* XPM */
static char * hpanel_xpm[] = {
"16 16 3 1",
" 	c #FFFFFFFFFFFF",
".	c #000000000000",
"X	c #A0A0A0A0A0A0",
"                ",
"                ",
"                ",
" .............. ",
" .            . ",
" .            . ",
" .  X  XX  X  . ",
" .  X  XX  X  . ",
" .  X  XX  X  . ",
" .  X  XX  X  . ",
" .            . ",
" .            . ",
" .............. ",
"                ",
"                ",
"                "};
