/* XPM */
static char * mcanvas_xpm[] = {
"16 16 3 1",
" 	c #FFFFFFFFFFFF",
".	c #A0A0A0A0A0A0",
"X	c #000000000000",
"                ",
" .............. ",
" .          . . ",
" . XXXXX X X. . ",
" . X X X  X . . ",
" .   X    X . . ",
" .   X    X . . ",
" .  XXX   X . . ",
" .        X . . ",
" .        X . . ",
" .       X X. . ",
" .          . . ",
" .............. ",
" .          . . ",
" .............. ",
"                "};
