/* XPM */
static char * message_xpm[] = {
"16 16 2 1",
" 	c #FFFFFFFFFFFF",
".	c #000000000000",
"                ",
"                ",
"                ",
"                ",
"                ",
"     ......     ",
"     . .. .     ",
"       ..       ",
"       ..       ",
"       ..       ",
"      ....      ",
"                ",
"                ",
"                ",
"                ",
"                "};
