/* XPM */
static char *slider[] = {
/* width height num_colors chars_per_pixel */
"    16    16        3            1",
/* colors */
". c #000000",
"# c #a0a0a0",
"a c #ffffff",
/* pixels */
"aaaaaaaaaaaaaaaa",
"aaaaaaaaaaaaaaaa",
"aaaaaaaaaaaaaaaa",
"aaaaaaaaaaaaaaaa",
"aaaaaaaaaaaaaaaa",
"aaaaa.....aaaaaa",
"aaaaaa...aaaaaaa",
"aaaaaaa.aaaaaaaa",
"a##############a",
"a..............a",
"aaaaaaaaaaaaaaaa",
"aaaaaaaaaaaaaaaa",
"aaaaaaaaaaaaaaaa",
"aaaaaaaaaaaaaaaa",
"aaaaaaaaaaaaaaaa",
"aaaaaaaaaaaaaaaa"
};
