<?xml version="1.0" encoding="UTF-8" standalone="no"?>
<!-- Created with Inkscape (http://www.inkscape.org/) -->

<svg
   xmlns:dc="http://purl.org/dc/elements/1.1/"
   xmlns:cc="http://creativecommons.org/ns#"
   xmlns:rdf="http://www.w3.org/1999/02/22-rdf-syntax-ns#"
   xmlns:svg="http://www.w3.org/2000/svg"
   xmlns="http://www.w3.org/2000/svg"
   xmlns:xlink="http://www.w3.org/1999/xlink"
   xmlns:sodipodi="http://sodipodi.sourceforge.net/DTD/sodipodi-0.dtd"
   xmlns:inkscape="http://www.inkscape.org/namespaces/inkscape"
   width="32"
   height="32"
   id="svg3993"
   sodipodi:version="0.32"
   inkscape:version="0.48.1 r9760"
   sodipodi:docname="hash-quote-shiny.svg"
   inkscape:output_extension="org.inkscape.output.svg.inkscape"
   version="1.0"
   inkscape:export-filename="hash-quote-shiny-24x24.png"
   inkscape:export-xdpi="3.48"
   inkscape:export-ydpi="3.48">
  <defs
     id="defs3995">
    <linearGradient
       id="linearGradient3200">
      <stop
         style="stop-color:#ffffff;stop-opacity:1;"
         offset="0"
         id="stop3202" />
      <stop
         style="stop-color:#ffffff;stop-opacity:0;"
         offset="1"
         id="stop3204" />
    </linearGradient>
    <linearGradient
       id="linearGradient7777">
      <stop
         id="stop3635"
         offset="0"
         style="stop-color:#195018;stop-opacity:1;" />
      <stop
         id="stop3637"
         offset="1"
         style="stop-color:#288026;stop-opacity:1;" />
    </linearGradient>
    <linearGradient
       inkscape:collect="always"
       xlink:href="#linearGradient7777"
       id="linearGradient3802"
       x1="147.09624"
       y1="424.81082"
       x2="204.85309"
       y2="164.31621"
       gradientUnits="userSpaceOnUse" />
    <linearGradient
       id="linearGradient7778">
      <stop
         id="stop3635-5"
         offset="0"
         style="stop-color:#4dff5a;stop-opacity:1;" />
      <stop
         id="stop3637-8"
         offset="1"
         style="stop-color:#195018;stop-opacity:0;" />
    </linearGradient>
    <radialGradient
       inkscape:collect="always"
       xlink:href="#linearGradient3200"
       id="radialGradient4157"
       cx="152.29536"
       cy="537.34039"
       fx="152.29536"
       fy="537.34039"
       r="156.73828"
       gradientTransform="matrix(-1.0036087,-0.11570683,0.15200351,-0.88023122,329.57796,658.35823)"
       gradientUnits="userSpaceOnUse" />
    <linearGradient
       inkscape:collect="always"
       xlink:href="#linearGradient3200"
       id="linearGradient3979"
       x1="130.90697"
       y1="437.8699"
       x2="361.51996"
       y2="294.21985"
       gradientUnits="userSpaceOnUse" />
    <linearGradient
       inkscape:collect="always"
       xlink:href="#linearGradient7777"
       id="linearGradient3809"
       x1="69.84613"
       y1="460.55151"
       x2="74.330925"
       y2="440.6192"
       gradientUnits="userSpaceOnUse" />
    <linearGradient
       inkscape:collect="always"
       xlink:href="#linearGradient7777"
       id="linearGradient3864"
       gradientUnits="userSpaceOnUse"
       x1="147.09624"
       y1="424.81082"
       x2="204.85309"
       y2="164.31621" />
    <linearGradient
       inkscape:collect="always"
       xlink:href="#linearGradient7777"
       id="linearGradient3866"
       gradientUnits="userSpaceOnUse"
       x1="69.84613"
       y1="460.55151"
       x2="74.330925"
       y2="440.6192" />
    <filter
       inkscape:collect="always"
       id="filter3799">
      <feGaussianBlur
         inkscape:collect="always"
         stdDeviation="10.014322"
         id="feGaussianBlur3801" />
    </filter>
    <linearGradient
       inkscape:collect="always"
       xlink:href="#linearGradient7777"
       id="linearGradient3033"
       gradientUnits="userSpaceOnUse"
       x1="321.18167"
       y1="256.32166"
       x2="321.56726"
       y2="155.72469"
       gradientTransform="matrix(0.08406097,0,0,0.1028787,0.1434777,573.69792)" />
    <linearGradient
       inkscape:collect="always"
       xlink:href="#linearGradient7777"
       id="linearGradient3035"
       gradientUnits="userSpaceOnUse"
       x1="298.54282"
       y1="195.5034"
       x2="302.50186"
       y2="284.25369"
       gradientTransform="matrix(0.08406097,0,0,0.1028787,0.1434777,573.69792)" />
    <linearGradient
       inkscape:collect="always"
       xlink:href="#linearGradient7777"
       id="linearGradient3038"
       gradientUnits="userSpaceOnUse"
       x1="147.09624"
       y1="424.81082"
       x2="147.02174"
       y2="164.74579"
       gradientTransform="matrix(0.08406097,0,0,0.1028787,0.1434777,573.69792)" />
    <linearGradient
       inkscape:collect="always"
       xlink:href="#linearGradient7777"
       id="linearGradient3040"
       gradientUnits="userSpaceOnUse"
       x1="70.371872"
       y1="357.45337"
       x2="70.125008"
       y2="469.40076"
       gradientTransform="matrix(0.08406097,0,0,0.1028787,0.1434777,573.69792)" />
    <radialGradient
       inkscape:collect="always"
       xlink:href="#linearGradient7778"
       id="radialGradient3845"
       gradientUnits="userSpaceOnUse"
       gradientTransform="matrix(3.9996372,-0.00705002,0.00242378,1.3750619,-31.844665,582.49457)"
       cx="10.569006"
       cy="23.454807"
       fx="10.569006"
       fy="23.454807"
       r="8.765625" />
    <radialGradient
       inkscape:collect="always"
       xlink:href="#linearGradient7778"
       id="radialGradient3886"
       cx="26.868952"
       cy="595.74255"
       fx="26.868952"
       fy="595.74255"
       r="1.609375"
       gradientTransform="matrix(2.2619503,-0.30841065,0.46047469,3.3772208,-308.17874,-1406.0112)"
       gradientUnits="userSpaceOnUse" />
    <linearGradient
       inkscape:collect="always"
       xlink:href="#linearGradient3200"
       id="linearGradient3794"
       x1="27.267767"
       y1="589.0799"
       x2="27.149857"
       y2="594.36108"
       gradientUnits="userSpaceOnUse" />
    <linearGradient
       inkscape:collect="always"
       xlink:href="#linearGradient3200"
       id="linearGradient3798"
       x1="12.63525"
       y1="585.09723"
       x2="12.673189"
       y2="603.52856"
       gradientUnits="userSpaceOnUse" />
  </defs>
  <sodipodi:namedview
     id="base"
     pagecolor="#ffffff"
     bordercolor="#666666"
     borderopacity="1.0"
     gridtolerance="10000"
     guidetolerance="10"
     objecttolerance="10"
     inkscape:pageopacity="0.0"
     inkscape:pageshadow="2"
     inkscape:zoom="4"
     inkscape:cx="-5.0451383"
     inkscape:cy="-4.0681367"
     inkscape:document-units="px"
     inkscape:current-layer="layer1"
     showgrid="false"
     inkscape:window-width="1870"
     inkscape:window-height="1056"
     inkscape:window-x="50"
     inkscape:window-y="24"
     inkscape:window-maximized="1" />
  <metadata
     id="metadata3998">
    <rdf:RDF>
      <cc:Work
         rdf:about="">
        <dc:format>image/svg+xml</dc:format>
        <dc:type
           rdf:resource="http://purl.org/dc/dcmitype/StillImage" />
        <dc:title />
      </cc:Work>
    </rdf:RDF>
  </metadata>
  <g
     inkscape:label="Layer 1"
     inkscape:groupmode="layer"
     id="layer1"
     transform="translate(0,-588)">
    <g
       transform="matrix(0.08406097,0,0,0.1028787,0.1434777,573.69792)"
       id="g3025"
       style="font-size:400px;font-style:normal;font-variant:normal;font-weight:bold;font-stretch:normal;text-align:start;line-height:125%;letter-spacing:0px;word-spacing:0px;writing-mode:lr-tb;text-anchor:start;fill:#000000;fill-opacity:1;stroke:none;filter:url(#filter3799);font-family:Segoe UI;-inkscape-font-specification:Segoe UI Bold">
      <path
         style="fill:#000000;fill-opacity:1;stroke:none"
         inkscape:connector-curvature="0"
         id="path3027"
         d="m 255.15625,238.45814 -7.61719,35.15625 -36.13281,0 -10.74219,48.4375 40.42969,0 -8.78906,35.15625 -38.86719,0 -15.23438,67.57812 -39.0625,0 14.25782,-67.57812 -44.72656,0 -14.45313,67.57812 -39.0625,0 13.867187,-67.57812 -36.328125,0 7.226563,-35.15625 36.71875,0 10.351562,-48.4375 -39.453125,0 6.640625,-35.15625 40.039063,0 14.45313,-69.53125 40.03906,0 -14.45313,69.53125 44.72656,0 14.84375,-69.53125 39.64844,0 -14.45312,69.53125 36.13281,0 m -83.20313,35.15625 -45.31249,0 -10.74219,48.4375 45.11718,0 10.9375,-48.4375" />
      <path
         style="fill:#000000;fill-opacity:1;stroke:none"
         inkscape:connector-curvature="0"
         id="path3029"
         d="m 346.17187,163.65345 -6.05468,86.32813 -39.0625,0 -5.66407,-86.32813 50.78125,0" />
    </g>
    <path
       style="font-size:400px;font-style:normal;font-variant:normal;font-weight:bold;font-stretch:normal;text-align:start;line-height:125%;letter-spacing:0px;word-spacing:0px;writing-mode:lr-tb;text-anchor:start;fill:url(#linearGradient3038);fill-opacity:1;stroke:url(#linearGradient3040);stroke-width:1;stroke-miterlimit:4;stroke-opacity:1;stroke-dasharray:none;font-family:Segoe UI;-inkscape-font-specification:Segoe UI Bold"
       inkscape:connector-curvature="0"
       id="path3024"
       d="m 21.59216,598.23018 -0.640309,3.61683 -3.037359,0 -0.902999,4.98319 3.398559,0 -0.738817,3.61683 -3.267213,0 -1.280617,6.95235 -3.283632,0 1.198526,-6.95235 -3.7597577,0 -1.2149441,6.95235 -3.2836316,0 1.1656892,-6.95235 -3.0537775,0 0.6074719,-3.61683 3.0866138,0 0.8701623,-4.98319 -3.3164679,0 0.5582173,-3.61683 3.3657225,0 1.2149441,-7.15328 3.3657227,0 -1.214945,7.15328 3.759758,0 1.24778,-7.15328 3.332887,0 -1.214943,7.15328 3.037359,0 m -10.803148,3.61683 -0.902999,4.98319 3.792594,0 0.919417,-4.98319 z"
       sodipodi:nodetypes="cccccccccccccccccccccccccccccccccc" />
    <path
       style="font-size:400px;font-style:normal;font-variant:normal;font-weight:bold;font-stretch:normal;text-align:start;line-height:125%;letter-spacing:0px;word-spacing:0px;writing-mode:lr-tb;text-anchor:start;fill:url(#linearGradient3033);fill-opacity:1;stroke:url(#linearGradient3035);stroke-width:1;stroke-miterlimit:4;stroke-opacity:1;stroke-dasharray:none;font-family:Segoe UI;-inkscape-font-specification:Segoe UI Bold"
       inkscape:connector-curvature="0"
       id="path3026"
       d="m 29.243021,590.53437 -0.508962,8.88133 -3.283632,0 -0.476127,-8.88133 4.268721,0" />
    <path
       style="font-size:400px;font-style:normal;font-variant:normal;font-weight:bold;font-stretch:normal;text-align:start;line-height:125%;letter-spacing:0px;word-spacing:0px;writing-mode:lr-tb;text-anchor:start;fill:url(#radialGradient3845);fill-opacity:1;stroke:none;font-family:Segoe UI;-inkscape-font-specification:Segoe UI Bold;stroke-width:0.75000000000000000;stroke-miterlimit:4;stroke-dasharray:none"
       d="m 9.71875,591.5625 c -0.4040561,2.38577 -0.8261541,4.76861 -1.21875,7.15625 -1.125,0 -2.25,0 -3.375,0 -0.1354167,0.875 -0.2708333,1.75 -0.40625,2.625 1.1145833,0 2.2291667,0 3.34375,0 -0.403856,1.99054 -0.6658557,4.00814 -1.0625,6 -1.0208333,0 -2.0416667,0 -3.0625,0 -0.15625,0.86458 -0.3125,1.72917 -0.46875,2.59375 1.0208333,0 2.0416667,0 3.0625,0 -0.3756791,2.3245 -0.7722276,4.64561 -1.15625,6.96875 0.75,0 1.5,0 2.25,0 0.4018182,-2.32363 0.8410201,-4.64127 1.21875,-6.96875 1.59375,0 3.1875,0 4.78125,0 -0.380671,2.32541 -0.793838,4.64548 -1.1875,6.96875 0.75,0 1.5,0 2.25,0 0.443026,-2.32177 0.840222,-4.65307 1.3125,-6.96875 1.09375,0 2.1875,0 3.28125,0 0.166667,-0.86458 0.333333,-1.72917 0.5,-2.59375 -1.125,0 -2.25,0 -3.375,0 0.393008,-1.99434 0.746127,-3.99728 1.09375,-6 1.010417,0 2.020833,0 3.03125,0 0.15625,-0.875 0.3125,-1.75 0.46875,-2.625 -1.010417,0 -2.020833,0 -3.03125,0 0.402054,-2.38612 0.813129,-4.77073 1.21875,-7.15625 -0.770833,0 -1.541667,0 -2.3125,0 -0.413905,2.38587 -0.850575,4.76799 -1.25,7.15625 -1.59375,0 -3.1875,0 -4.78125,0 0.402054,-2.38612 0.813129,-4.77073 1.21875,-7.15625 -0.78125,0 -1.5625,0 -2.34375,0 z m 0.65625,9.78125 c 1.604167,0 3.208333,0 4.8125,0 -0.325201,2.00678 -0.771764,3.99291 -1.09375,6 -1.604167,0 -3.208333,0 -4.8125,0 0.3929562,-1.99406 0.746172,-3.99753 1.09375,-6 z"
       id="path3825"
       inkscape:connector-curvature="0" />
    <path
       style="font-size:400px;font-style:normal;font-variant:normal;font-weight:bold;font-stretch:normal;text-align:start;line-height:125%;letter-spacing:0px;word-spacing:0px;writing-mode:lr-tb;text-anchor:start;fill:url(#radialGradient3886);fill-opacity:1;stroke:none;font-family:Segoe UI;-inkscape-font-specification:Segoe UI Bold;stroke-width:0.50000000000000000;stroke-miterlimit:4;stroke-dasharray:none;"
       d="m 25.5,591.03125 c 0.135417,2.625 0.270833,5.25 0.40625,7.875 0.791667,0 1.583333,0 2.375,0 0.145833,-2.625 0.291667,-5.25 0.4375,-7.875 -1.072917,0 -2.145833,0 -3.21875,0 z"
       id="path3863"
       inkscape:connector-curvature="0" />
    <path
       inkscape:connector-curvature="0"
       id="path3790"
       d="m 25.5,591.03125 c 0.135417,2.625 0.02776,0.23396 0.163182,2.85896 -0.05422,-0.67082 0.656668,-0.31357 1.360359,-0.32894 0.779815,-0.017 1.560867,-0.33541 1.500777,0.37314 0.145833,-2.625 0.0486,-0.27816 0.194432,-2.90316 -1.072917,0 -2.145833,0 -3.21875,0 z"
       style="font-size:400px;font-style:normal;font-variant:normal;font-weight:bold;font-stretch:normal;text-align:start;line-height:125%;letter-spacing:0px;word-spacing:0px;writing-mode:lr-tb;text-anchor:start;fill:url(#linearGradient3794);fill-opacity:1;stroke:none;font-family:Segoe UI;-inkscape-font-specification:Segoe UI Bold"
       sodipodi:nodetypes="ccsccc" />
    <path
       inkscape:connector-curvature="0"
       id="path3796"
       d="m 9.71875,591.5625 c -0.4040561,2.38577 -0.8261541,4.76861 -1.21875,7.15625 -1.125,0 -2.25,0 -3.375,0 l -0.40625,2.625 c 0.2710099,-1.75133 4.1199485,-0.41326 8.05364,-0.45195 4.011594,-0.0394 8.061833,-1.17132 7.75886,0.45195 L 21,598.71875 c -1.010417,0 -2.020833,0 -3.03125,0 0.402054,-2.38612 0.813129,-4.77073 1.21875,-7.15625 -0.770833,0 -1.541667,0 -2.3125,0 -0.413905,2.38587 -0.850575,4.76799 -1.25,7.15625 -1.59375,0 -3.1875,0 -4.78125,0 0.402054,-2.38612 0.813129,-4.77073 1.21875,-7.15625 -0.78125,0 -1.5625,0 -2.34375,0 z"
       style="font-size:400px;font-style:normal;font-variant:normal;font-weight:bold;font-stretch:normal;text-align:start;line-height:125%;letter-spacing:0px;word-spacing:0px;writing-mode:lr-tb;text-anchor:start;fill:url(#linearGradient3798);fill-opacity:1;stroke:none;font-family:Segoe UI;-inkscape-font-specification:Segoe UI Bold"
       sodipodi:nodetypes="ccccsccccccccc" />
  </g>
</svg>
