#define mini-plt_width 15
#define mini-plt_height 14
static char mini-plt_bits[] = {
 0xe0,0x03,0xf8,0x0f,0xcc,0x1f,0xde,0x3f,0x9e,0x3f,0x3f,0x7f,0x7f,0x7f,0x7f,
 0x7e,0x7f,0x7c,0x3e,0x3d,0x9e,0x39,0xcc,0x13,0xf8,0x0f,0xe0,0x03};
