/* XPM */
static char *mini-plt[] = {
/* width height num_colors chars_per_pixel */
"    15    14        5            1",
/* colors */
" 	c None s None",
". c #f8fcf8",
"# c #000000",
"a c #5050f8",
"b c #f81440",
/* pixels */
"     #####     ",
"   ##aaaaa##   ",
"  #b..aaaaaa#  ",
" #bbb.aaaaaaa# ",
" #bbb..aaaaaa# ",
"#bbbbb..aaaaaa#",
"#bbbbbb.aaaaaa#",
"#bbbbbb..aaaaa#",
"#bbbbbb...aaaa#",
" #bbbb..b.aaa# ",
" #bbb..bb..aa# ",
"  #b..bbbb..#  ",
"   ##bbbbb##   ",
"     #####     "
};
