#define mred_width 70
#define mred_height 62
static char mred_bits[] = {
 0x00,0x00,0x00,0x00,0x00,0x00,0x00,0x00,0xc0,0x00,0x00,0x00,0x00,0x00,0x00,
 0x00,0x00,0xc0,0x00,0x00,0x00,0x00,0x00,0x00,0x00,0x00,0xc0,0x00,0x00,0x00,
 0x00,0x00,0x00,0x80,0x00,0xc0,0x00,0xe0,0x00,0x00,0x00,0x00,0x80,0x01,0xc0,
 0x00,0x70,0x00,0x00,0x00,0x00,0x80,0x03,0xc0,0x00,0x30,0x00,0x00,0x00,0x00,
 0x00,0x03,0xc0,0x00,0x38,0x00,0x00,0x00,0x00,0x00,0x07,0xc0,0x00,0x18,0x00,
 0x00,0x00,0x00,0x00,0x0e,0xc0,0x00,0x1c,0x00,0x00,0x00,0x00,0x00,0x0e,0xc0,
 0x00,0x0e,0x00,0x00,0x00,0x1d,0x00,0x1c,0xc0,0x00,0x0e,0x00,0x00,0xfc,0xf7,
 0x00,0x1c,0xc0,0x00,0x07,0x00,0x00,0x28,0xc0,0x00,0x38,0xc0,0x00,0x07,0x00,
 0x00,0x00,0xc0,0x00,0x38,0xc0,0x80,0x07,0x00,0x00,0x00,0xc0,0x00,0x78,0xc0,
 0x80,0x03,0x00,0x00,0x00,0x60,0x00,0x70,0xc0,0xc0,0x03,0x00,0x00,0x00,0x70,
 0x00,0xf0,0xc0,0xc0,0x01,0x00,0x00,0x00,0x30,0x00,0xe0,0xc0,0xc0,0x01,0x00,
 0x00,0x00,0x18,0x00,0xe0,0xc0,0xe0,0x01,0x00,0x00,0x03,0x08,0x00,0xe0,0xc1,
 0xe0,0x01,0x00,0x80,0x01,0x0c,0x00,0xe0,0xc1,0xe0,0x00,0x00,0xc0,0x00,0x06,
 0x00,0xe0,0xc1,0xe0,0x01,0x00,0x60,0x00,0x03,0x00,0xc0,0xc1,0xf0,0x00,0x00,
 0x20,0x00,0x01,0x00,0xc0,0xc3,0xf0,0x00,0x00,0x30,0x80,0x00,0x00,0xc0,0xc3,
 0xf0,0x00,0x00,0x18,0x40,0x00,0x00,0xc0,0xc3,0xf0,0x00,0x00,0x0c,0x00,0x00,
 0x00,0xc0,0xc3,0xf0,0x00,0x00,0x04,0x00,0x00,0x00,0xc0,0xc3,0x70,0x00,0x00,
 0x8c,0xda,0x2f,0x00,0xc0,0xc3,0xf0,0x00,0x00,0xfc,0xff,0xff,0x07,0xc0,0xc3,
 0xf0,0x00,0x00,0xf0,0x05,0x80,0x0e,0x80,0xc3,0xf0,0x00,0x00,0x00,0x00,0x00,
 0x18,0xc0,0xc3,0xf0,0x00,0x00,0x00,0x00,0x00,0x18,0xc0,0xc3,0x70,0x00,0x00,
 0x00,0x00,0x00,0x18,0xc0,0xc3,0xf0,0x00,0x00,0x00,0x00,0x00,0x18,0xc0,0xc3,
 0xf0,0x00,0x00,0x00,0x00,0x00,0x18,0xc0,0xc3,0xf0,0x00,0x00,0x00,0x00,0x00,
 0x08,0xc0,0xc3,0xf0,0x00,0x00,0x00,0x00,0x00,0x0c,0xc0,0xc3,0xf0,0x00,0x00,
 0x00,0xfe,0x03,0x0c,0xc0,0xc1,0xe0,0x00,0xff,0xff,0xff,0x07,0x06,0xc0,0xc3,
 0xe0,0x01,0xfe,0x57,0x00,0x00,0x06,0xe0,0xc1,0xe0,0x01,0x00,0x00,0x00,0x00,
 0x03,0xc0,0xc1,0xe0,0x01,0x00,0x00,0x00,0x00,0x03,0xe0,0xc1,0xc0,0x01,0x00,
 0x00,0x00,0x80,0x01,0xe0,0xc0,0xc0,0x01,0x00,0x00,0x00,0x80,0x01,0xe0,0xc0,
 0xc0,0x03,0x00,0x00,0x00,0xc0,0x00,0xf0,0xc0,0x80,0x03,0x00,0x00,0x00,0xc0,
 0x00,0x70,0xc0,0x80,0x03,0x00,0x00,0x00,0x60,0x00,0x70,0xc0,0x80,0x07,0x00,
 0x00,0x00,0x70,0x00,0x78,0xc0,0x00,0x07,0x00,0x00,0x00,0x30,0x00,0x38,0xc0,
 0x00,0x07,0x00,0x00,0x80,0x19,0x00,0x38,0xc0,0x00,0x0e,0x00,0x00,0x00,0x1f,
 0x00,0x1c,0xc0,0x00,0x0e,0x00,0x00,0x00,0x0f,0x00,0x1c,0xc0,0x00,0x1c,0x00,
 0x00,0x00,0x06,0x00,0x0e,0xc0,0x00,0x18,0x00,0x00,0x00,0x00,0x00,0x06,0xc0,
 0x00,0x38,0x00,0x00,0x00,0x00,0x00,0x07,0xc0,0x00,0x30,0x00,0x00,0x00,0x00,
 0x00,0x03,0xc0,0x00,0x60,0x00,0x00,0x00,0x00,0x80,0x03,0xc0,0x00,0xe0,0x00,
 0x00,0x00,0x00,0x80,0x01,0xc0,0x00,0x40,0x00,0x00,0x00,0x00,0x40,0x00,0xc0,
 0x00,0x00,0x00,0x00,0x00,0x00,0x00,0x00,0xc0,0x00,0x00,0x00,0x00,0x00,0x00,
 0x00,0x00,0xc0};
