#define reset_width 16
#define reset_height 16
static unsigned char reset_bits[] = {
  0x01, 0x80, 0x03, 0x00, 0x06, 0x00, 0x0c, 0x00, 0x18, 0x00, 0x30, 0x00,
  0x60, 0x00, 0xc0, 0x00, 0x80, 0x01, 0x00, 0x03, 0x00, 0x06, 0x00, 0x0c,
  0x00, 0x18, 0x00, 0x30, 0x00, 0x60, 0x00, 0xc0, };
