<?xml version="1.0" encoding="UTF-8" standalone="no"?>
<!-- Created with Inkscape (http://www.inkscape.org/) -->

<svg
   xmlns:dc="http://purl.org/dc/elements/1.1/"
   xmlns:cc="http://creativecommons.org/ns#"
   xmlns:rdf="http://www.w3.org/1999/02/22-rdf-syntax-ns#"
   xmlns:svg="http://www.w3.org/2000/svg"
   xmlns="http://www.w3.org/2000/svg"
   xmlns:xlink="http://www.w3.org/1999/xlink"
   xmlns:sodipodi="http://sodipodi.sourceforge.net/DTD/sodipodi-0.dtd"
   xmlns:inkscape="http://www.inkscape.org/namespaces/inkscape"
   width="32"
   height="32"
   id="svg3993"
   sodipodi:version="0.32"
   inkscape:version="0.48.1 r9760"
   sodipodi:docname="x-diffuse.svg"
   inkscape:output_extension="org.inkscape.output.svg.inkscape"
   version="1.0"
   inkscape:export-filename="check-green-diffuse-24x24.png"
   inkscape:export-xdpi="3.5311782"
   inkscape:export-ydpi="3.5311782">
  <defs
     id="defs3995">
    <linearGradient
       id="linearGradient3841">
      <stop
         id="stop3843"
         offset="0"
         style="stop-color:#ffffff;stop-opacity:0.67716533;" />
      <stop
         id="stop3845"
         offset="1"
         style="stop-color:#ffffff;stop-opacity:0" />
    </linearGradient>
    <linearGradient
       id="diffuseColorGradient">
      <stop
         style="stop-color:#774b12;stop-opacity:1;"
         offset="0"
         id="stop3761" />
      <stop
         style="stop-color:#ffc101;stop-opacity:1;"
         offset="1"
         id="stop3763" />
    </linearGradient>
    <linearGradient
       inkscape:collect="always"
       xlink:href="#diffuseColorGradient"
       id="linearGradient3037"
       gradientUnits="userSpaceOnUse"
       gradientTransform="matrix(0.05462498,0,0,0.05308818,0.46493999,587.35503)"
       x1="216.6277"
       y1="558.41913"
       x2="328.38467"
       y2="20.491318" />
    <linearGradient
       inkscape:collect="always"
       xlink:href="#diffuseColorGradient"
       id="linearGradient3039"
       gradientUnits="userSpaceOnUse"
       gradientTransform="matrix(0.05,0,0,0.05,1.43611,588.31842)"
       x1="339.33673"
       y1="2.4891357"
       x2="217.24228"
       y2="573.6413" />
    <filter
       inkscape:collect="always"
       id="filter3812">
      <feGaussianBlur
         inkscape:collect="always"
         stdDeviation="1.07625"
         id="feGaussianBlur3814" />
    </filter>
    <radialGradient
       inkscape:collect="always"
       xlink:href="#linearGradient3841"
       id="radialGradient3826"
       cx="14.737582"
       cy="3.4633961"
       fx="14.737582"
       fy="3.4633961"
       r="12.3125"
       gradientTransform="matrix(-1.4649208,-0.14575655,0.06558462,-0.65915569,38.174745,9.7122663)"
       gradientUnits="userSpaceOnUse" />
  </defs>
  <sodipodi:namedview
     id="base"
     pagecolor="#ffffff"
     bordercolor="#666666"
     borderopacity="1.0"
     gridtolerance="10000"
     guidetolerance="10"
     objecttolerance="10"
     inkscape:pageopacity="0.0"
     inkscape:pageshadow="2"
     inkscape:zoom="11.313709"
     inkscape:cx="7.3485704"
     inkscape:cy="20.656651"
     inkscape:document-units="px"
     inkscape:current-layer="layer1"
     showgrid="false"
     inkscape:window-width="1243"
     inkscape:window-height="760"
     inkscape:window-x="591"
     inkscape:window-y="72"
     inkscape:window-maximized="0" />
  <metadata
     id="metadata3998">
    <rdf:RDF>
      <cc:Work
         rdf:about="">
        <dc:format>image/svg+xml</dc:format>
        <dc:type
           rdf:resource="http://purl.org/dc/dcmitype/StillImage" />
        <dc:title />
      </cc:Work>
    </rdf:RDF>
  </metadata>
  <g
     inkscape:label="Layer 1"
     inkscape:groupmode="layer"
     id="layer1"
     transform="translate(0,-588)">
    <path
       id="path3042"
       d="m 22.46875,591.125 c 0,0 -2.820204,2.58546 -6.78125,6.78125 C 11.227636,593.80533 8.25,591.375 8.25,591.375 l -5.53125,7.375 c 0,0 2.8029927,1.95284 7.09375,5.71875 -2.1375724,2.52778 -4.3688648,5.32403 -6.53125,8.3125 l 6.84375,5.4375 c 1.912795,-2.94459 3.890826,-5.62641 5.84375,-8 2.378329,2.35257 4.944009,5.06268 7.625,8.125 l 5.71875,-6.75 c -2.596908,-2.86573 -5.102342,-5.48994 -7.46875,-7.84375 4.076557,-4.10586 7.09375,-6.40625 7.09375,-6.40625 L 22.46875,591.125 z"
       style="fill:#000000;fill-opacity:0.78431373;stroke:none;filter:url(#filter3812)"
       inkscape:connector-curvature="0" />
    <path
       style="fill:url(#linearGradient3037);fill-opacity:1;stroke:url(#linearGradient3039);stroke-width:1;stroke-linecap:butt;stroke-linejoin:miter;stroke-miterlimit:4;stroke-opacity:1;stroke-dasharray:none"
       d="m 23.09375,588.875 c 0,0 -2.820204,2.58546 -6.78125,6.78125 C 11.852636,591.55533 8.875,589.125 8.875,589.125 L 3.34375,596.5 c 0,0 2.8029927,1.95284 7.09375,5.71875 -2.1375724,2.52778 -4.3688648,5.32403 -6.53125,8.3125 l 6.84375,5.4375 c 1.912795,-2.94459 3.890826,-5.62641 5.84375,-8 2.378329,2.35257 4.944009,5.06268 7.625,8.125 l 5.71875,-6.75 c -2.596908,-2.86573 -5.102342,-5.48994 -7.46875,-7.84375 4.076557,-4.10586 7.09375,-6.40625 7.09375,-6.40625 L 23.09375,588.875 z"
       id="path3800"
       inkscape:connector-curvature="0" />
    <path
       style="fill:url(#radialGradient3826);fill-opacity:1;stroke:none"
       d="m 8.9375,1.84375 c 3.507313,2.8633568 7.40625,6.46875 7.40625,6.46875 0,0 3.705769,-3.8591845 6.71875,-6.75 l 5.75,5.5 C 24.285225,10.702595 20.383271,14.90245 16.53125,19.21875 12.959296,15.237015 4.09375,8.3125 4.09375,8.3125 z"
       id="path3816"
       inkscape:connector-curvature="0"
       transform="translate(0,588)"
       sodipodi:nodetypes="ccccccc" />
  </g>
</svg>
