<?xml version="1.0" encoding="UTF-8" standalone="no"?>
<!-- Created with Inkscape (http://www.inkscape.org/) -->

<svg
   xmlns:dc="http://purl.org/dc/elements/1.1/"
   xmlns:cc="http://creativecommons.org/ns#"
   xmlns:rdf="http://www.w3.org/1999/02/22-rdf-syntax-ns#"
   xmlns:svg="http://www.w3.org/2000/svg"
   xmlns="http://www.w3.org/2000/svg"
   xmlns:xlink="http://www.w3.org/1999/xlink"
   xmlns:sodipodi="http://sodipodi.sourceforge.net/DTD/sodipodi-0.dtd"
   xmlns:inkscape="http://www.inkscape.org/namespaces/inkscape"
   width="32"
   height="32"
   id="svg3993"
   sodipodi:version="0.32"
   inkscape:version="0.48.1 r9760"
   sodipodi:docname="x-shiny.svg"
   inkscape:output_extension="org.inkscape.output.svg.inkscape"
   version="1.0"
   inkscape:export-filename="check-green-diffuse-24x24.png"
   inkscape:export-xdpi="3.5311782"
   inkscape:export-ydpi="3.5311782">
  <defs
     id="defs3995">
    <linearGradient
       id="linearGradient3785">
      <stop
         style="stop-color:#ffffff;stop-opacity:1;"
         offset="0"
         id="stop3787" />
      <stop
         style="stop-color:#ffffff;stop-opacity:0"
         offset="1"
         id="stop3789" />
    </linearGradient>
    <linearGradient
       id="undershineGradient">
      <stop
         id="stop3784"
         offset="0"
         style="stop-color:#ffd801;stop-opacity:1;" />
      <stop
         id="stop3786"
         offset="1"
         style="stop-color:#c76e1e;stop-opacity:0;" />
    </linearGradient>
    <linearGradient
       id="linearGradient3841">
      <stop
         id="stop3843"
         offset="0"
         style="stop-color:#ffffff;stop-opacity:0.67716533;" />
      <stop
         id="stop3845"
         offset="1"
         style="stop-color:#ffffff;stop-opacity:0" />
    </linearGradient>
    <linearGradient
       id="diffuseColorGradient">
      <stop
         style="stop-color:#774b12;stop-opacity:1;"
         offset="0"
         id="stop3761" />
      <stop
         style="stop-color:#ffc101;stop-opacity:1;"
         offset="1"
         id="stop3763" />
    </linearGradient>
    <linearGradient
       inkscape:collect="always"
       xlink:href="#diffuseColorGradient"
       id="linearGradient3037"
       gradientUnits="userSpaceOnUse"
       gradientTransform="matrix(0.05462498,0,0,0.05308818,-0.06539014,588.94602)"
       x1="216.6277"
       y1="558.41913"
       x2="208.64572"
       y2="20.491318" />
    <linearGradient
       inkscape:collect="always"
       xlink:href="#linearGradient3841"
       id="linearGradient3847"
       x1="18.74226"
       y1="0.78104162"
       x2="17.375"
       y2="10.343542"
       gradientUnits="userSpaceOnUse"
       gradientTransform="translate(-0.53033013,589.59099)" />
    <radialGradient
       inkscape:collect="always"
       xlink:href="#undershineGradient"
       id="radialGradient3851"
       cx="16.225821"
       cy="612.3222"
       fx="16.225821"
       fy="612.3222"
       r="13.296875"
       gradientTransform="matrix(1.9745423,-0.03698333,0.0199918,1.0673637,-28.169689,-39.582438)"
       gradientUnits="userSpaceOnUse" />
    <linearGradient
       inkscape:collect="always"
       xlink:href="#linearGradient3841"
       id="linearGradient3867"
       x1="12.9375"
       y1="615.90625"
       x2="19.0625"
       y2="589.09375"
       gradientUnits="userSpaceOnUse"
       gradientTransform="translate(-0.53033013,1.5909903)" />
    <filter
       inkscape:collect="always"
       id="filter3775">
      <feGaussianBlur
         inkscape:collect="always"
         stdDeviation="0.94171875"
         id="feGaussianBlur3777" />
    </filter>
    <linearGradient
       inkscape:collect="always"
       xlink:href="#linearGradient3841"
       id="linearGradient3779"
       x1="12.131728"
       y1="619.88129"
       x2="18.404121"
       y2="591.42023"
       gradientUnits="userSpaceOnUse" />
    <linearGradient
       inkscape:collect="always"
       xlink:href="#diffuseColorGradient"
       id="linearGradient3795"
       x1="7.2631674"
       y1="612.79547"
       x2="7.3681397"
       y2="624.4931"
       gradientUnits="userSpaceOnUse" />
    <linearGradient
       inkscape:collect="always"
       xlink:href="#linearGradient3785"
       id="linearGradient3805"
       x1="15.667262"
       y1="588.091"
       x2="16.053328"
       y2="601.7912"
       gradientUnits="userSpaceOnUse" />
    <linearGradient
       inkscape:collect="always"
       xlink:href="#linearGradient3785"
       id="linearGradient3815"
       x1="16.308079"
       y1="587.50116"
       x2="16.252203"
       y2="606.85815"
       gradientUnits="userSpaceOnUse" />
  </defs>
  <sodipodi:namedview
     id="base"
     pagecolor="#ffffff"
     bordercolor="#666666"
     borderopacity="1.0"
     gridtolerance="10000"
     guidetolerance="10"
     objecttolerance="10"
     inkscape:pageopacity="0.0"
     inkscape:pageshadow="2"
     inkscape:zoom="7.9999996"
     inkscape:cx="-17.633984"
     inkscape:cy="21.902397"
     inkscape:document-units="px"
     inkscape:current-layer="layer1"
     showgrid="false"
     inkscape:window-width="1870"
     inkscape:window-height="1056"
     inkscape:window-x="50"
     inkscape:window-y="24"
     inkscape:window-maximized="1" />
  <metadata
     id="metadata3998">
    <rdf:RDF>
      <cc:Work
         rdf:about="">
        <dc:format>image/svg+xml</dc:format>
        <dc:type
           rdf:resource="http://purl.org/dc/dcmitype/StillImage" />
        <dc:title />
      </cc:Work>
    </rdf:RDF>
  </metadata>
  <g
     inkscape:label="Layer 1"
     inkscape:groupmode="layer"
     id="layer1"
     transform="translate(0,-588)">
    <path
       inkscape:connector-curvature="0"
       id="path3005"
       d="m 22.56342,590.46599 c 0,0 -2.820204,2.58546 -6.78125,6.78125 -4.459864,-4.10092 -7.4375002,-6.53125 -7.4375002,-6.53125 l -5.53125,7.375 c 0,0 2.8029927,1.95284 7.0937503,5.71875 -2.1375727,2.52778 -4.3688651,5.32403 -6.5312503,8.3125 l 6.8437502,5.4375 c 1.912795,-2.94459 3.890826,-5.62641 5.84375,-8 2.378329,2.35257 4.944009,5.06268 7.625,8.125 l 5.71875,-6.75 c -2.596908,-2.86573 -5.102342,-5.48994 -7.46875,-7.84375 4.076557,-4.10586 7.09375,-6.40625 7.09375,-6.40625 l -6.46875,-6.21875 z"
       style="fill:#000000;fill-opacity:1;stroke:none;filter:url(#filter3775)" />
    <path
       style="fill:url(#linearGradient3037);fill-opacity:1;stroke:url(#linearGradient3795);stroke-width:1;stroke-linecap:butt;stroke-linejoin:miter;stroke-miterlimit:4;stroke-opacity:1;stroke-dasharray:none"
       d="m 22.56342,590.46599 c 0,0 -2.820204,2.58546 -6.78125,6.78125 -4.459864,-4.10092 -7.4375002,-6.53125 -7.4375002,-6.53125 l -5.53125,7.375 c 0,0 2.8029927,1.95284 7.0937503,5.71875 -2.1375727,2.52778 -4.3688651,5.32403 -6.5312503,8.3125 l 6.8437502,5.4375 c 1.912795,-2.94459 3.890826,-5.62641 5.84375,-8 2.378329,2.35257 4.944009,5.06268 7.625,8.125 l 5.71875,-6.75 c -2.596908,-2.86573 -5.102342,-5.48994 -7.46875,-7.84375 4.076557,-4.10586 7.09375,-6.40625 7.09375,-6.40625 l -6.46875,-6.21875 z"
       id="path3800"
       inkscape:connector-curvature="0" />
    <path
       inkscape:connector-curvature="0"
       id="path3849"
       d="m 22.53217,591.18474 c 0,0 -3.101454,2.71046 -6.71875,6.6875 -4.397364,-4.10092 -7.4375002,-6.4375 -7.4375002,-6.4375 l -4.90625,6.5 c 0,0 2.8654927,1.95284 7.1562502,5.6875 -2.0438226,2.59028 -4.400115,5.38653 -6.5625002,8.375 l 6.0312502,4.84375 c 1.912795,-2.94459 3.953326,-5.62641 5.90625,-8 2.378329,2.35257 5.006509,5.03143 7.6875,8.09375 l 4.96875,-6.03125 c -2.596908,-2.86573 -4.946092,-5.52119 -7.3125,-7.875 4.076557,-4.10586 6.90625,-6.40625 6.90625,-6.40625 z"
       style="fill:url(#radialGradient3851);fill-opacity:1;stroke:none;stroke-width:0.75000000000000000;stroke-miterlimit:4;stroke-dasharray:none;"
       sodipodi:nodetypes="ccccccccccccc" />
    <path
       sodipodi:nodetypes="cccccsccc"
       style="fill:url(#linearGradient3815);fill-opacity:1;stroke:none"
       d="m 22.576364,591.14055 c 0,0 -3.145648,2.84304 -6.762944,6.82008 -4.397364,-4.10092 -7.393306,-6.52589 -7.393306,-6.52589 l -4.9283471,6.56629 c 0,0 0.3837984,-0.003 4.674556,3.7317 0.9532987,-1.29067 4.7514741,0.0177 7.7084031,0.11225 3.086412,0.0987 5.507612,-1.38498 6.649861,-2e-4 4.076557,-4.10586 5.74843,-5.20044 5.74843,-5.20044 z"
       id="path3807"
       inkscape:connector-curvature="0" />
  </g>
</svg>
