<?xml version="1.0" encoding="UTF-8" standalone="no"?>
<!-- Created with Inkscape (http://www.inkscape.org/) -->

<svg
   xmlns:dc="http://purl.org/dc/elements/1.1/"
   xmlns:cc="http://creativecommons.org/ns#"
   xmlns:rdf="http://www.w3.org/1999/02/22-rdf-syntax-ns#"
   xmlns:svg="http://www.w3.org/2000/svg"
   xmlns="http://www.w3.org/2000/svg"
   xmlns:xlink="http://www.w3.org/1999/xlink"
   xmlns:sodipodi="http://sodipodi.sourceforge.net/DTD/sodipodi-0.dtd"
   xmlns:inkscape="http://www.inkscape.org/namespaces/inkscape"
   width="32"
   height="32"
   id="svg3993"
   sodipodi:version="0.32"
   inkscape:version="0.48.1 r9760"
   sodipodi:docname="x-shiny.svg"
   inkscape:output_extension="org.inkscape.output.svg.inkscape"
   version="1.0"
   inkscape:export-filename="check-green-diffuse-24x24.png"
   inkscape:export-xdpi="3.5311782"
   inkscape:export-ydpi="3.5311782">
  <defs
     id="defs3995">
    <linearGradient
       id="undershineGradient">
      <stop
         id="stop3784"
         offset="0"
         style="stop-color:#ffd801;stop-opacity:1;" />
      <stop
         id="stop3786"
         offset="1"
         style="stop-color:#c76e1e;stop-opacity:0;" />
    </linearGradient>
    <linearGradient
       id="linearGradient3841">
      <stop
         id="stop3843"
         offset="0"
         style="stop-color:#ffffff;stop-opacity:0.67716533;" />
      <stop
         id="stop3845"
         offset="1"
         style="stop-color:#ffffff;stop-opacity:0" />
    </linearGradient>
    <linearGradient
       id="diffuseColorGradient">
      <stop
         style="stop-color:#774b12;stop-opacity:1;"
         offset="0"
         id="stop3761" />
      <stop
         style="stop-color:#ffc101;stop-opacity:1;"
         offset="1"
         id="stop3763" />
    </linearGradient>
    <linearGradient
       inkscape:collect="always"
       xlink:href="#diffuseColorGradient"
       id="linearGradient3037"
       gradientUnits="userSpaceOnUse"
       gradientTransform="matrix(0.05462498,0,0,0.05308818,0.46493999,587.35503)"
       x1="216.6277"
       y1="558.41913"
       x2="328.38467"
       y2="20.491318" />
    <linearGradient
       inkscape:collect="always"
       xlink:href="#diffuseColorGradient"
       id="linearGradient3039"
       gradientUnits="userSpaceOnUse"
       gradientTransform="matrix(0.05,0,0,0.05,1.43611,588.31842)"
       x1="339.33673"
       y1="2.4891357"
       x2="217.24228"
       y2="573.6413" />
    <filter
       inkscape:collect="always"
       id="filter3812">
      <feGaussianBlur
         inkscape:collect="always"
         stdDeviation="1.07625"
         id="feGaussianBlur3814" />
    </filter>
    <linearGradient
       inkscape:collect="always"
       xlink:href="#linearGradient3841"
       id="linearGradient3847"
       x1="18.74226"
       y1="0.78104162"
       x2="17.375"
       y2="10.343542"
       gradientUnits="userSpaceOnUse" />
    <radialGradient
       inkscape:collect="always"
       xlink:href="#undershineGradient"
       id="radialGradient3851"
       cx="11.757983"
       cy="610.75134"
       fx="11.757983"
       fy="610.75134"
       r="13.296875"
       gradientTransform="matrix(1.3356396,-0.39208117,0.33903627,1.1549401,-212.63065,-89.036692)"
       gradientUnits="userSpaceOnUse" />
    <linearGradient
       inkscape:collect="always"
       xlink:href="#linearGradient3841"
       id="linearGradient3867"
       x1="12.9375"
       y1="615.90625"
       x2="19.0625"
       y2="589.09375"
       gradientUnits="userSpaceOnUse" />
    <filter
       inkscape:collect="always"
       id="filter3873">
      <feGaussianBlur
         inkscape:collect="always"
         stdDeviation="0.361875"
         id="feGaussianBlur3875" />
    </filter>
  </defs>
  <sodipodi:namedview
     id="base"
     pagecolor="#ffffff"
     bordercolor="#666666"
     borderopacity="1.0"
     gridtolerance="10000"
     guidetolerance="10"
     objecttolerance="10"
     inkscape:pageopacity="0.0"
     inkscape:pageshadow="2"
     inkscape:zoom="4"
     inkscape:cx="-32.164274"
     inkscape:cy="18.296892"
     inkscape:document-units="px"
     inkscape:current-layer="layer1"
     showgrid="false"
     inkscape:window-width="1870"
     inkscape:window-height="1056"
     inkscape:window-x="50"
     inkscape:window-y="24"
     inkscape:window-maximized="1" />
  <metadata
     id="metadata3998">
    <rdf:RDF>
      <cc:Work
         rdf:about="">
        <dc:format>image/svg+xml</dc:format>
        <dc:type
           rdf:resource="http://purl.org/dc/dcmitype/StillImage" />
        <dc:title></dc:title>
      </cc:Work>
    </rdf:RDF>
  </metadata>
  <g
     inkscape:label="Layer 1"
     inkscape:groupmode="layer"
     id="layer1"
     transform="translate(0,-588)">
    <path
       id="path3042"
       d="m 22.46875,591.125 c 0,0 -2.820204,2.58546 -6.78125,6.78125 C 11.227636,593.80533 8.25,591.375 8.25,591.375 l -5.53125,7.375 c 0,0 2.8029927,1.95284 7.09375,5.71875 -2.1375724,2.52778 -4.3688648,5.32403 -6.53125,8.3125 l 6.84375,5.4375 c 1.912795,-2.94459 3.890826,-5.62641 5.84375,-8 2.378329,2.35257 4.944009,5.06268 7.625,8.125 l 5.71875,-6.75 c -2.596908,-2.86573 -5.102342,-5.48994 -7.46875,-7.84375 4.076557,-4.10586 7.09375,-6.40625 7.09375,-6.40625 L 22.46875,591.125 z"
       style="fill:#000000;fill-opacity:0.78431373;stroke:none;filter:url(#filter3812)"
       inkscape:connector-curvature="0" />
    <path
       style="fill:url(#linearGradient3037);fill-opacity:1;stroke:url(#linearGradient3039);stroke-width:1;stroke-linecap:butt;stroke-linejoin:miter;stroke-miterlimit:4;stroke-opacity:1;stroke-dasharray:none"
       d="m 23.09375,588.875 c 0,0 -2.820204,2.58546 -6.78125,6.78125 C 11.852636,591.55533 8.875,589.125 8.875,589.125 L 3.34375,596.5 c 0,0 2.8029927,1.95284 7.09375,5.71875 -2.1375724,2.52778 -4.3688648,5.32403 -6.53125,8.3125 l 6.84375,5.4375 c 1.912795,-2.94459 3.890826,-5.62641 5.84375,-8 2.378329,2.35257 4.944009,5.06268 7.625,8.125 l 5.71875,-6.75 c -2.596908,-2.86573 -5.102342,-5.48994 -7.46875,-7.84375 4.076557,-4.10586 7.09375,-6.40625 7.09375,-6.40625 L 23.09375,588.875 z"
       id="path3800"
       inkscape:connector-curvature="0" />
    <path
       style="fill:url(#linearGradient3847);fill-opacity:1;stroke:none"
       d="m 8.9375,1.84375 c 3.507313,2.8633568 7.40625,6.46875 7.40625,6.46875 0,0 3.705769,-3.8591845 6.71875,-6.75 l 5.75,5.5 -1.566046,1.2944093 C 24.116661,9.4142608 23.461742,4.1076512 16.376571,8.3248861 9.855632,3.1208793 6.5235096,5.0629273 6.5235096,5.0629273 z"
       id="path3816"
       inkscape:connector-curvature="0"
       transform="translate(0,588)"
       sodipodi:nodetypes="cccccccc" />
    <path
       inkscape:connector-curvature="0"
       id="path3849"
       d="m 23.0625,589.59375 c 0,0 -3.101454,2.71046 -6.71875,6.6875 -4.397364,-4.10092 -7.4375,-6.4375 -7.4375,-6.4375 L 4,596.34375 c 0,0 2.8654927,1.95284 7.15625,5.6875 -2.0438224,2.59028 -4.4001148,5.38653 -6.5625,8.375 L 10.625,615.25 c 1.912795,-2.94459 3.953326,-5.62641 5.90625,-8 2.378329,2.35257 5.006509,5.03143 7.6875,8.09375 l 4.96875,-6.03125 c -2.596908,-2.86573 -4.946092,-5.52119 -7.3125,-7.875 4.076557,-4.10586 6.90625,-6.40625 6.90625,-6.40625 z"
       style="fill:url(#radialGradient3851);fill-opacity:1;stroke:none"
       sodipodi:nodetypes="ccccccccccccc" />
    <path
       sodipodi:nodetypes="ccccccccccccc"
       style="fill:none;stroke:url(#linearGradient3867);filter:url(#filter3873)"
       d="m 23.1875,590.28125 c 0,0 -3.163954,2.71046 -6.78125,6.6875 -4.397364,-4.10092 -7.375,-6.4375 -7.375,-6.4375 l -4.34375,5.75 c 0,0 2.6779927,2.14034 6.96875,5.875 -2.0438224,2.59028 -4.1501148,5.19903 -6.3125,8.1875 L 10.625,614.5 c 1.912795,-2.94459 4.015826,-5.62641 5.96875,-8 2.378329,2.35257 4.944009,5.03143 7.625,8.09375 L 28.625,609.375 C 26.028092,606.50927 23.366408,603.85381 21,601.5 c 4.076557,-4.10586 7.15625,-6.40625 7.15625,-6.40625 z"
       id="path3859"
       inkscape:connector-curvature="0" />
  </g>
</svg>
