<?xml version="1.0" encoding="UTF-8" standalone="no"?>
<!-- Created with Inkscape (http://www.inkscape.org/) -->

<svg
   xmlns:dc="http://purl.org/dc/elements/1.1/"
   xmlns:cc="http://creativecommons.org/ns#"
   xmlns:rdf="http://www.w3.org/1999/02/22-rdf-syntax-ns#"
   xmlns:svg="http://www.w3.org/2000/svg"
   xmlns="http://www.w3.org/2000/svg"
   xmlns:xlink="http://www.w3.org/1999/xlink"
   xmlns:sodipodi="http://sodipodi.sourceforge.net/DTD/sodipodi-0.dtd"
   xmlns:inkscape="http://www.inkscape.org/namespaces/inkscape"
   width="620"
   height="620"
   id="svg3440"
   sodipodi:version="0.32"
   inkscape:version="0.48.1 r9760"
   sodipodi:docname="planet-logo-shiny.svg"
   version="1.1"
   inkscape:export-filename="/home/neil/plt/collects/icons/private/svg/logo/planet-logo-shiny.png"
   inkscape:export-xdpi="3.48"
   inkscape:export-ydpi="3.48">
  <defs
     id="defs3">
    <linearGradient
       id="undershineGradient">
      <stop
         id="stop3987"
         offset="0"
         style="stop-color:#02ffe1;stop-opacity:1;" />
      <stop
         id="stop3989"
         offset="1"
         style="stop-color:#01a5ff;stop-opacity:0;" />
    </linearGradient>
    <linearGradient
       id="linearGradient4337">
      <stop
         style="stop-color:#ffffff;stop-opacity:1;"
         offset="0"
         id="stop4339" />
      <stop
         id="stop4345"
         offset="0.16666661"
         style="stop-color:#e2f4fc;stop-opacity:1;" />
      <stop
         style="stop-color:#999999;stop-opacity:1;"
         offset="1"
         id="stop4341" />
    </linearGradient>
    <linearGradient
       id="linearGradient3886">
      <stop
         style="stop-color:#ffffff;stop-opacity:0.78431374;"
         offset="0"
         id="stop3888" />
      <stop
         style="stop-color:#ffffff;stop-opacity:0;"
         offset="1"
         id="stop3890" />
    </linearGradient>
    <linearGradient
       id="diffuseColorGradient">
      <stop
         style="stop-color:#203e60;stop-opacity:1;"
         offset="0"
         id="stop4346" />
      <stop
         style="stop-color:#0156ff;stop-opacity:1;"
         offset="1"
         id="stop3966" />
    </linearGradient>
    <linearGradient
       inkscape:collect="always"
       xlink:href="#diffuseColorGradient"
       id="linearGradient3872"
       x1="16.666666"
       y1="44.037033"
       x2="29.111109"
       y2="3.8888886"
       gradientUnits="userSpaceOnUse"
       gradientTransform="matrix(13.500001,0,0,13.500001,18.25,-620)" />
    <radialGradient
       inkscape:collect="always"
       xlink:href="#linearGradient4337"
       id="radialGradient4343"
       cx="26"
       cy="15.500463"
       fx="26"
       fy="15.500463"
       r="18.863258"
       gradientTransform="matrix(1.2723147,-6.5423305e-8,6.2697328e-8,1.2193015,-7.080182,-2.8997363)"
       gradientUnits="userSpaceOnUse" />
    <radialGradient
       inkscape:collect="always"
       xlink:href="#linearGradient4337"
       id="radialGradient3172"
       gradientUnits="userSpaceOnUse"
       gradientTransform="matrix(1.2723147,-6.5423305e-8,6.2697328e-8,1.2193015,-7.080182,-2.8997363)"
       cx="26"
       cy="15.500463"
       fx="26"
       fy="15.500463"
       r="18.863258" />
    <radialGradient
       inkscape:collect="always"
       xlink:href="#linearGradient4337"
       id="radialGradient3174"
       gradientUnits="userSpaceOnUse"
       gradientTransform="matrix(1.2723147,-6.5423305e-8,6.2697328e-8,1.2193015,-7.080182,-2.8997363)"
       cx="26"
       cy="15.500463"
       fx="26"
       fy="15.500463"
       r="18.863258" />
    <radialGradient
       inkscape:collect="always"
       xlink:href="#linearGradient4337"
       id="radialGradient3176"
       gradientUnits="userSpaceOnUse"
       gradientTransform="matrix(1.2723147,-6.5423305e-8,6.2697328e-8,1.2193015,-7.080182,-2.8997363)"
       cx="26"
       cy="15.500463"
       fx="26"
       fy="15.500463"
       r="18.863258" />
    <radialGradient
       inkscape:collect="always"
       xlink:href="#linearGradient4337"
       id="radialGradient3178"
       gradientUnits="userSpaceOnUse"
       gradientTransform="matrix(1.2723147,-6.5423305e-8,6.2697328e-8,1.2193015,-7.080182,-2.8997363)"
       cx="26"
       cy="15.500463"
       fx="26"
       fy="15.500463"
       r="18.863258" />
    <radialGradient
       inkscape:collect="always"
       xlink:href="#linearGradient4337"
       id="radialGradient3180"
       gradientUnits="userSpaceOnUse"
       gradientTransform="matrix(1.2723147,-6.5423305e-8,6.2697328e-8,1.2193015,-7.080182,-2.8997363)"
       cx="26"
       cy="15.500463"
       fx="26"
       fy="15.500463"
       r="18.863258" />
    <radialGradient
       inkscape:collect="always"
       xlink:href="#linearGradient4337"
       id="radialGradient3182"
       gradientUnits="userSpaceOnUse"
       gradientTransform="matrix(1.2723147,-6.5423305e-8,6.2697328e-8,1.2193015,-7.080182,-2.8997363)"
       cx="26"
       cy="15.500463"
       fx="26"
       fy="15.500463"
       r="18.863258" />
    <radialGradient
       inkscape:collect="always"
       xlink:href="#linearGradient4337"
       id="radialGradient3184"
       gradientUnits="userSpaceOnUse"
       gradientTransform="matrix(1.2723147,-6.5423305e-8,6.2697328e-8,1.2193015,-7.080182,-2.8997363)"
       cx="26"
       cy="15.500463"
       fx="26"
       fy="15.500463"
       r="18.863258" />
    <radialGradient
       inkscape:collect="always"
       xlink:href="#linearGradient4337"
       id="radialGradient3186"
       gradientUnits="userSpaceOnUse"
       gradientTransform="matrix(1.2723147,-6.5423305e-8,6.2697328e-8,1.2193015,-7.080182,-2.8997363)"
       cx="26"
       cy="15.500463"
       fx="26"
       fy="15.500463"
       r="18.863258" />
    <radialGradient
       inkscape:collect="always"
       xlink:href="#linearGradient4337"
       id="radialGradient3188"
       gradientUnits="userSpaceOnUse"
       gradientTransform="matrix(1.2723147,-6.5423305e-8,6.2697328e-8,1.2193015,-7.080182,-2.8997363)"
       cx="26"
       cy="15.500463"
       fx="26"
       fy="15.500463"
       r="18.863258" />
    <radialGradient
       inkscape:collect="always"
       xlink:href="#linearGradient4337"
       id="radialGradient3190"
       gradientUnits="userSpaceOnUse"
       gradientTransform="matrix(1.2723147,-6.5423305e-8,6.2697328e-8,1.2193015,-7.080182,-2.8997363)"
       cx="26"
       cy="15.500463"
       fx="26"
       fy="15.500463"
       r="18.863258" />
    <radialGradient
       inkscape:collect="always"
       xlink:href="#linearGradient4337"
       id="radialGradient3192"
       gradientUnits="userSpaceOnUse"
       gradientTransform="matrix(1.2723147,-6.5423305e-8,6.2697328e-8,1.2193015,-7.080182,-2.8997363)"
       cx="26"
       cy="15.500463"
       fx="26"
       fy="15.500463"
       r="18.863258" />
    <radialGradient
       inkscape:collect="always"
       xlink:href="#linearGradient4337"
       id="radialGradient3194"
       gradientUnits="userSpaceOnUse"
       gradientTransform="matrix(1.2723147,-6.5423305e-8,6.2697328e-8,1.2193015,-7.080182,-2.8997363)"
       cx="26"
       cy="15.500463"
       fx="26"
       fy="15.500463"
       r="18.863258" />
    <radialGradient
       inkscape:collect="always"
       xlink:href="#linearGradient4337"
       id="radialGradient3196"
       gradientUnits="userSpaceOnUse"
       gradientTransform="matrix(1.2723147,-6.5423305e-8,6.2697328e-8,1.2193015,-7.080182,-2.8997363)"
       cx="26"
       cy="15.500463"
       fx="26"
       fy="15.500463"
       r="18.863258" />
    <radialGradient
       inkscape:collect="always"
       xlink:href="#linearGradient4337"
       id="radialGradient3198"
       gradientUnits="userSpaceOnUse"
       gradientTransform="matrix(1.2723147,-6.5423305e-8,6.2697328e-8,1.2193015,-7.080182,-2.8997363)"
       cx="26"
       cy="15.500463"
       fx="26"
       fy="15.500463"
       r="18.863258" />
    <radialGradient
       inkscape:collect="always"
       xlink:href="#linearGradient4337"
       id="radialGradient3200"
       gradientUnits="userSpaceOnUse"
       gradientTransform="matrix(1.2723147,-6.5423305e-8,6.2697328e-8,1.2193015,-7.080182,-2.8997363)"
       cx="26"
       cy="15.500463"
       fx="26"
       fy="15.500463"
       r="18.863258" />
    <radialGradient
       inkscape:collect="always"
       xlink:href="#linearGradient4337"
       id="radialGradient3202"
       gradientUnits="userSpaceOnUse"
       gradientTransform="matrix(1.2723147,-6.5423305e-8,6.2697328e-8,1.2193015,-7.080182,-2.8997363)"
       cx="26"
       cy="15.500463"
       fx="26"
       fy="15.500463"
       r="18.863258" />
    <radialGradient
       inkscape:collect="always"
       xlink:href="#linearGradient4337"
       id="radialGradient3204"
       gradientUnits="userSpaceOnUse"
       gradientTransform="matrix(1.2723147,-6.5423305e-8,6.2697328e-8,1.2193015,-7.080182,-2.8997363)"
       cx="26"
       cy="15.500463"
       fx="26"
       fy="15.500463"
       r="18.863258" />
    <radialGradient
       inkscape:collect="always"
       xlink:href="#linearGradient4337"
       id="radialGradient3206"
       gradientUnits="userSpaceOnUse"
       gradientTransform="matrix(1.2723147,-6.5423305e-8,6.2697328e-8,1.2193015,-7.080182,-2.8997363)"
       cx="26"
       cy="15.500463"
       fx="26"
       fy="15.500463"
       r="18.863258" />
    <radialGradient
       inkscape:collect="always"
       xlink:href="#linearGradient4337"
       id="radialGradient3208"
       gradientUnits="userSpaceOnUse"
       gradientTransform="matrix(1.2723147,-6.5423305e-8,6.2697328e-8,1.2193015,-7.080182,-2.8997363)"
       cx="26"
       cy="15.500463"
       fx="26"
       fy="15.500463"
       r="18.863258" />
    <radialGradient
       inkscape:collect="always"
       xlink:href="#linearGradient4337"
       id="radialGradient3210"
       gradientUnits="userSpaceOnUse"
       gradientTransform="matrix(1.2723147,-6.5423305e-8,6.2697328e-8,1.2193015,-7.080182,-2.8997363)"
       cx="26"
       cy="15.500463"
       fx="26"
       fy="15.500463"
       r="18.863258" />
    <radialGradient
       inkscape:collect="always"
       xlink:href="#linearGradient4337"
       id="radialGradient3212"
       gradientUnits="userSpaceOnUse"
       gradientTransform="matrix(1.2723147,-6.5423305e-8,6.2697328e-8,1.2193015,-7.080182,-2.8997363)"
       cx="26"
       cy="15.500463"
       fx="26"
       fy="15.500463"
       r="18.863258" />
    <radialGradient
       inkscape:collect="always"
       xlink:href="#linearGradient4337"
       id="radialGradient3214"
       gradientUnits="userSpaceOnUse"
       gradientTransform="matrix(1.2723147,-6.5423305e-8,6.2697328e-8,1.2193015,-7.080182,-2.8997363)"
       cx="26"
       cy="15.500463"
       fx="26"
       fy="15.500463"
       r="18.863258" />
    <radialGradient
       inkscape:collect="always"
       xlink:href="#linearGradient4337"
       id="radialGradient3216"
       gradientUnits="userSpaceOnUse"
       gradientTransform="matrix(1.2723147,-6.5423305e-8,6.2697328e-8,1.2193015,-7.080182,-2.8997363)"
       cx="26"
       cy="15.500463"
       fx="26"
       fy="15.500463"
       r="18.863258" />
    <radialGradient
       inkscape:collect="always"
       xlink:href="#linearGradient4337"
       id="radialGradient3218"
       gradientUnits="userSpaceOnUse"
       gradientTransform="matrix(1.2723147,-6.5423305e-8,6.2697328e-8,1.2193015,-7.080182,-2.8997363)"
       cx="26"
       cy="15.500463"
       fx="26"
       fy="15.500463"
       r="18.863258" />
    <radialGradient
       inkscape:collect="always"
       xlink:href="#linearGradient4337"
       id="radialGradient3220"
       gradientUnits="userSpaceOnUse"
       gradientTransform="matrix(1.2723147,-6.5423305e-8,6.2697328e-8,1.2193015,-7.080182,-2.8997363)"
       cx="26"
       cy="15.500463"
       fx="26"
       fy="15.500463"
       r="18.863258" />
    <radialGradient
       inkscape:collect="always"
       xlink:href="#linearGradient4337"
       id="radialGradient3222"
       gradientUnits="userSpaceOnUse"
       gradientTransform="matrix(1.2723147,-6.5423305e-8,6.2697328e-8,1.2193015,-7.080182,-2.8997363)"
       cx="26"
       cy="15.500463"
       fx="26"
       fy="15.500463"
       r="18.863258" />
    <radialGradient
       inkscape:collect="always"
       xlink:href="#linearGradient4337"
       id="radialGradient3224"
       gradientUnits="userSpaceOnUse"
       gradientTransform="matrix(1.2723147,-6.5423305e-8,6.2697328e-8,1.2193015,-7.080182,-2.8997363)"
       cx="26"
       cy="15.500463"
       fx="26"
       fy="15.500463"
       r="18.863258" />
    <radialGradient
       inkscape:collect="always"
       xlink:href="#linearGradient4337"
       id="radialGradient3226"
       gradientUnits="userSpaceOnUse"
       gradientTransform="matrix(1.2723147,-6.5423305e-8,6.2697328e-8,1.2193015,-7.080182,-2.8997363)"
       cx="26"
       cy="15.500463"
       fx="26"
       fy="15.500463"
       r="18.863258" />
    <filter
       inkscape:collect="always"
       id="filter3970"
       x="-0.12"
       width="1.24"
       y="-0.12"
       height="1.24">
      <feGaussianBlur
         inkscape:collect="always"
         stdDeviation="26.325"
         id="feGaussianBlur3972" />
    </filter>
    <linearGradient
       inkscape:collect="always"
       xlink:href="#linearGradient3886"
       id="linearGradient3984"
       x1="274"
       y1="-35"
       x2="380"
       y2="-555"
       gradientUnits="userSpaceOnUse" />
    <filter
       inkscape:collect="always"
       id="filter3986">
      <feGaussianBlur
         inkscape:collect="always"
         stdDeviation="5.229"
         id="feGaussianBlur3988" />
    </filter>
    <linearGradient
       inkscape:collect="always"
       xlink:href="#diffuseColorGradient"
       id="linearGradient3996"
       x1="211"
       y1="21"
       x2="206"
       y2="55"
       gradientUnits="userSpaceOnUse" />
    <radialGradient
       inkscape:collect="always"
       xlink:href="#undershineGradient"
       id="radialGradient3982"
       gradientUnits="userSpaceOnUse"
       gradientTransform="matrix(0.86049857,-0.05354216,0.05458093,0.87719301,0.92217568,5.1296456)"
       cx="20.657146"
       cy="31.22752"
       fx="20.657146"
       fy="31.22752"
       r="17.5" />
    <radialGradient
       r="17.5"
       fy="14.052631"
       fx="25.263157"
       cy="14.052631"
       cx="25.263157"
       gradientTransform="translate(4.123843e-6,-6.9188533e-7)"
       gradientUnits="userSpaceOnUse"
       id="radialGradient3993-8"
       xlink:href="#linearGradient3886"
       inkscape:collect="always" />
    <linearGradient
       inkscape:collect="always"
       xlink:href="#linearGradient3886"
       id="linearGradient4041"
       x1="25.99659"
       y1="3.1705654"
       x2="20.129143"
       y2="24.115984"
       gradientUnits="userSpaceOnUse" />
  </defs>
  <sodipodi:namedview
     id="base"
     pagecolor="#ffffff"
     bordercolor="#666666"
     borderopacity="0.17254902"
     inkscape:pageopacity="0"
     inkscape:pageshadow="2"
     inkscape:zoom="0.70710678"
     inkscape:cx="-138.15112"
     inkscape:cy="515.71356"
     inkscape:current-layer="layer1"
     showgrid="true"
     inkscape:grid-bbox="true"
     inkscape:document-units="px"
     inkscape:window-width="1870"
     inkscape:window-height="1056"
     inkscape:window-x="50"
     inkscape:window-y="24"
     inkscape:showpageshadow="true"
     inkscape:window-maximized="1"
     borderlayer="false">
    <inkscape:grid
       type="xygrid"
       id="grid6369"
       empspacing="5"
       visible="false"
       enabled="true"
       snapvisiblegridlinesonly="false"
       dotted="false" />
  </sodipodi:namedview>
  <metadata
     id="metadata4">
    <rdf:RDF>
      <cc:Work
         rdf:about="">
        <dc:format>image/svg+xml</dc:format>
        <dc:type
           rdf:resource="http://purl.org/dc/dcmitype/StillImage" />
        <dc:title></dc:title>
        <dc:creator>
          <cc:Agent>
            <dc:title>Jakub Steiner</dc:title>
          </cc:Agent>
        </dc:creator>
        <dc:contributor>
          <cc:Agent>
            <dc:title>Tuomas Kuosmanen</dc:title>
          </cc:Agent>
        </dc:contributor>
        <cc:license
           rdf:resource="http://creativecommons.org/licenses/by-sa/2.0/" />
        <dc:source>http://jimmac.musichall.cz</dc:source>
        <dc:subject>
          <rdf:Bag>
            <rdf:li>internet</rdf:li>
            <rdf:li>tools</rdf:li>
            <rdf:li>applications</rdf:li>
            <rdf:li>category</rdf:li>
          </rdf:Bag>
        </dc:subject>
      </cc:Work>
      <cc:License
         rdf:about="http://creativecommons.org/licenses/by-sa/2.0/">
        <cc:permits
           rdf:resource="http://web.resource.org/cc/Reproduction" />
        <cc:permits
           rdf:resource="http://web.resource.org/cc/Distribution" />
        <cc:requires
           rdf:resource="http://web.resource.org/cc/Notice" />
        <cc:requires
           rdf:resource="http://web.resource.org/cc/Attribution" />
        <cc:permits
           rdf:resource="http://web.resource.org/cc/DerivativeWorks" />
        <cc:requires
           rdf:resource="http://web.resource.org/cc/ShareAlike" />
      </cc:License>
    </rdf:RDF>
  </metadata>
  <g
     id="layer1"
     inkscape:label="Layer 1"
     inkscape:groupmode="layer"
     transform="translate(0,572)">
    <path
       inkscape:connector-curvature="0"
       id="path3200"
       d="M 574.49666,-256.25933 C 574.49666,-110.86568 456.62695,7 311.25,7 165.85972,7 47.99666,-110.86702 47.99666,-256.25933 47.99666,-401.64631 165.85972,-519.5 311.25,-519.5 c 145.37695,0 263.24666,117.85369 263.24666,263.24067 l 0,0 z"
       style="fill:#000000;fill-opacity:0.78431373;fill-rule:nonzero;stroke:none;filter:url(#filter3970)" />
    <path
       style="fill:url(#linearGradient3872);fill-opacity:1;fill-rule:nonzero;stroke:url(#linearGradient3996);stroke-width:12;stroke-miterlimit:4;stroke-opacity:1;stroke-dasharray:none"
       d="M 592,-296.00933 C 592,-150.61568 474.13029,-32.75 328.75334,-32.75 183.36306,-32.75 65.5,-150.61702 65.5,-296.00933 65.5,-441.39631 183.36306,-559.25 328.75334,-559.25 474.13029,-559.25 592,-441.39631 592,-296.00933 l 0,0 z"
       id="path3214"
       inkscape:connector-curvature="0" />
    <path
       sodipodi:type="arc"
       style="fill:url(#radialGradient3993-8);fill-opacity:1;stroke:none"
       id="path3884"
       sodipodi:cx="22.5"
       sodipodi:cy="20.5"
       sodipodi:rx="17.5"
       sodipodi:ry="17.5"
       d="m 40,20.5 a 17.5,17.5 0 1 1 -35,0 17.5,17.5 0 1 1 35,0 z"
       transform="matrix(14.657143,0,0,14.657143,-2.285715,-596.47143)" />
    <path
       transform="matrix(14.657143,0,0,14.657143,-1.035721,-596.47143)"
       d="m 40,20.5 a 17.5,17.5 0 1 1 -35,0 17.5,17.5 0 1 1 35,0 z"
       sodipodi:ry="17.5"
       sodipodi:rx="17.5"
       sodipodi:cy="20.5"
       sodipodi:cx="22.5"
       id="path3979"
       style="fill:url(#radialGradient3982);fill-opacity:1;stroke:none"
       sodipodi:type="arc" />
    <g
       id="g3991">
      <g
         transform="matrix(13.500001,0,0,13.500001,18.25,-620)"
         style="fill:url(#radialGradient4343);fill-opacity:1"
         id="g4307">
        <g
           id="g4142"
           style="fill:url(#radialGradient3174);fill-opacity:1;fill-rule:nonzero;stroke:none"
           transform="matrix(0.987914,0,0,0.987891,-1.58612,0.616059)">
          <path
             d="M 43.879656,20.648284 43.5264,21.3316 c -0.334,-0.3936 -0.709,-0.7246 -1.0898,-1.0703 l -0.8359,0.123 -0.7637,-0.8633 0,1.0684 0.6543,0.4951 0.4355,0.4932 0.582,-0.6582 c 0.1465,0.2744 0.291,0.5488 0.4365,0.8232 l 0,0.8223 -0.6553,0.7402 -1.1992,0.8232 -0.9082,0.9063 -0.582,-0.6602 0.291,-0.7402 -0.5811,-0.6582 -0.9814,-2.0977 -0.8359,-0.9453 -0.2188,0.2461 0.3281,1.1934 0.6172,0.6992 c 0.3525,1.0176 0.7012,1.9902 1.1641,2.9629 0.7178,0 1.3945,-0.0762 2.1074,-0.166 l 0,0.5762 -0.8721,2.1392 -0.7998,0.9043 -0.6543,1.4004 c 0,0.7676 0,1.5352 0,2.3027 l 0.2188,0.9063 -0.3633,0.4102 -0.8008,0.4941 -0.8359,0.6992 0.6914,0.7813 -0.9453,0.8242 0.1816,0.5332 -1.418,1.6055 -0.9443,0 -0.7998,0.4941 -0.5098,0 0,-0.6582 -0.2168,-1.3184 c -0.2813,-0.8262 -0.5742,-1.6465 -0.8721,-2.4668 0,-0.6055 0.0361,-1.2051 0.0723,-1.8105 l 0.3643,-0.8223 -0.5098,-0.9883 0.0371,-1.3574 -0.6914,-0.7813 0.3457,-1.1309 -0.5625,-0.6382 -0.9824,0 -0.3271,-0.3701 -0.9814,0.6177 -0.3994,-0.4536 -0.9092,0.7817 c -0.6172,-0.6997 -1.2354,-1.3989 -1.8535,-2.0981 l -0.7266,-1.7285 0.6543,-0.9863 -0.3633,-0.4111 0.7988,-1.8936 c 0.6563,-0.8164 1.3418,-1.5996 2.0352,-2.3857 l 1.2363,-0.3291 1.3809,-0.1641 0.9453,0.2471 1.3447,1.3564 0.4727,-0.5342 0.6533,-0.082 1.2363,0.4111 0.9453,0 0.6543,-0.5762 0.291,-0.4111 -0.6553,-0.4111 -1.0908,-0.082 c -0.3027,-0.4199 -0.584,-0.8613 -0.9434,-1.2344 l -0.3643,0.1641 -0.1455,1.0703 -0.6543,-0.7402 -0.1445,-0.8242 -0.7266,-0.5742 -0.292,0 0.7275,0.8223 -0.291,0.7402 -0.5811,0.1641 0.3633,-0.7402 -0.6553,-0.3281 -0.5801,-0.6582 -1.0918,0.2461 -0.1445,0.3281 -0.6543,0.4121 -0.3633,0.9053 -0.9082,0.4521 -0.4004,-0.4521 -0.4355,0 0,-1.4814 0.9453,-0.4941 0.7266,0 -0.1465,-0.5752 -0.5801,-0.5762 0.9805,-0.2061 0.5449,-0.6162 0.4355,-0.7412 0.8008,0 -0.2188,-0.5752 0.5098,-0.3291 0,0.6582 1.0898,0.2461 1.0898,-0.9043 0.0732,-0.4121 0.9443,-0.6577 c -0.3418,0.0425 -0.6836,0.0737 -1.0176,0.1646 l 0,-0.7411 0.3633,-0.8228 -0.3633,0 -0.7984,0.7402 -0.2188,0.4116 0.2188,0.5767 -0.3643,0.9863 -0.5811,-0.3291 -0.5078,-0.5752 -0.8008,0.5752 -0.291,-1.3159 1.3809,-0.9048 0,-0.4941 0.873,-0.5757 1.3809,-0.3296 0.9453,0.3296 1.7441,0.3291 -0.4355,0.4932 -0.9453,0 0.9453,0.9873 0.7266,-0.8223 0.157078,-0.282273 c 3.129549,2.868759 5.87898,6.664564 6.592678,11.694257 z"
             id="path4144"
             style="fill:url(#radialGradient3172);fill-opacity:1"
             inkscape:connector-curvature="0"
             sodipodi:nodetypes="ccccccccccccccccccccccccccccccccccccccccccccccccccccccccccccccccccccccccccccccccccccccccccccccccccccccccccccccccccccccccccccccccccccc" />
        </g>
        <g
           id="g4150"
           style="fill:url(#radialGradient3178);fill-opacity:1;fill-rule:nonzero;stroke:none"
           transform="matrix(0.987914,0,0,0.987891,-1.58612,0.616059)">
          <path
             d="m 26.0703,9.2363 -0.0732,0.4932 0.5098,0.3291 0.8711,-0.5757 -0.4355,-0.4937 -0.582,0.3296 -0.29,-0.0825"
             id="path4152"
             style="fill:url(#radialGradient3176);fill-opacity:1"
             inkscape:connector-curvature="0" />
        </g>
        <g
           id="g4158"
           style="fill:url(#radialGradient3182);fill-opacity:1;fill-rule:nonzero;stroke:none"
           transform="matrix(0.987914,0,0,0.987891,-1.58612,0.616059)">
          <path
             d="m 26.8701,5.8633 -1.8906,-0.7407 -2.1797,0.2466 -2.6904,0.7402 -0.5088,0.4941 1.6719,1.1514 0,0.6582 -0.6543,0.6582 0.873,1.729 0.5801,-0.3301 0.7285,-1.1514 c 1.123,-0.3472 2.1299,-0.7407 3.1973,-1.2344 l 0.873,-2.2212"
             id="path4160"
             style="fill:url(#radialGradient3180);fill-opacity:1"
             inkscape:connector-curvature="0" />
        </g>
        <g
           id="g4166"
           style="fill:url(#radialGradient3186);fill-opacity:1;fill-rule:nonzero;stroke:none"
           transform="matrix(0.987914,0,0,0.987891,-1.58612,0.616059)">
          <path
             d="m 28.833,12.7749 -0.291,-0.7412 -0.5098,0.165 0.1465,0.9043 0.6543,-0.3281"
             id="path4168"
             style="fill:url(#radialGradient3184);fill-opacity:1"
             inkscape:connector-curvature="0" />
        </g>
        <g
           id="g4174"
           style="fill:url(#radialGradient3190);fill-opacity:1;fill-rule:nonzero;stroke:none"
           transform="matrix(0.987914,0,0,0.987891,-1.58612,0.616059)">
          <path
             d="m 29.123,12.6089 -0.1455,0.9883 0.7998,-0.165 0.5811,-0.5752 -0.5088,-0.4941 C 29.6787,11.9078 29.4824,11.483 29.2685,11.0465 l -0.4355,0 0,0.4932 0.29,0.3291 0,0.7402"
             id="path4176"
             style="fill:url(#radialGradient3188);fill-opacity:1"
             inkscape:connector-curvature="0" />
        </g>
        <g
           id="g4182"
           style="fill:url(#radialGradient3194);fill-opacity:1;fill-rule:nonzero;stroke:none"
           transform="matrix(0.987914,0,0,0.987891,-1.58612,0.616059)">
          <path
             d="m 18.3652,28.2422 -0.582,-1.1523 -1.0903,-0.2466 -0.5815,-1.5625 -1.4536,0.1641 -1.2354,-0.9043 -1.3091,1.1514 0,0.1816 c -0.396,-0.1143 -0.8828,-0.1299 -1.2354,-0.3467 l -0.291,-0.8223 0,-0.9053 -0.8721,0.082 c 0.0728,-0.5762 0.145,-1.1514 0.2183,-1.7275 l -0.5093,0 -0.5083,0.6582 -0.5093,0.2461 -0.7271,-0.4102 -0.0728,-0.9053 0.1455,-0.9873 1.0908,-0.8223 0.8721,0 0.145,-0.4941 1.0903,0.2461 0.7998,0.9883 0.1455,-1.6465 1.3813,-1.1514 0.5088,-1.2344 1.0176,-0.4111 0.5815,-0.8223 1.3081,-0.248 0.6548,-0.9863 c -0.6543,0 -1.3086,0 -1.9629,0 l 1.2358,-0.5762 0.8716,0 1.2363,-0.4121 0.1455,-0.4922 -0.4365,-0.4121 -0.5088,-0.165 0.1455,-0.4932 -0.3633,-0.7402 -0.8726,0.3281 0.1455,-0.6577 -1.0176,-0.5762 -0.7993,1.3979 0.0723,0.4941 -0.7993,0.3301 -0.5093,1.0693 -0.2178,-0.9873 -1.3813,-0.5762 -0.2183,-0.7402 1.8174,-1.0703 0.7998,-0.7402 0.0728,-0.9048 -0.436,-0.2471 -0.5815,-0.0825 -0.3633,0.9053 c 0,0 -0.703332,0.055478 -0.859632,0.094078 C 9.9867169,11.059151 6.5013568,14.983265 5.6916,22.2885 c 0.0371,0.1738 0.6792,1.1816 0.6792,1.1816 l 1.5264,0.9043 1.5264,0.4121 0.6548,0.8232 1.0171,0.7402 0.5815,-0.082 0.436,0.1963 0,0.1328 -0.5811,1.563 -0.4365,0.6582 0.1455,0.3301 -0.3633,1.2324 1.3086,2.3867 1.3081,1.1523 0.582,0.8223 -0.0732,1.7285 0.4365,0.9863 -0.4365,1.8926 c 0,0 -0.0342,-0.0117 0.0215,0.1777 0.0562,0.1895 2.3291,1.4512 2.4736,1.3438 0.144,-0.1094 0.2671,-0.2051 0.2671,-0.2051 l -0.145,-0.4102 0.5811,-0.5762 0.2183,-0.5762 0.9453,-0.3301 0.7266,-1.8105 -0.2178,-0.4922 0.5078,-0.7402 1.0908,-0.248 0.582,-1.3164 -0.1455,-1.6445 0.8721,-1.2344 0.1455,-1.2344 C 20.7331,29.4607 19.5495,28.8513 18.365,28.242"
             id="path4184"
             style="fill:url(#radialGradient3192);fill-opacity:1"
             inkscape:connector-curvature="0"
             sodipodi:nodetypes="cccccccccccccccccccccccccccccccccccccccccccccccccccccccccccccccccccccccccccccccccccccccccccc" />
        </g>
        <g
           id="g4190"
           style="fill:url(#radialGradient3198);fill-opacity:1;fill-rule:nonzero;stroke:none"
           transform="matrix(0.987914,0,0,0.987891,-1.58612,0.616059)">
          <path
             d="m 16.7656,9.5649 0.7266,0.4937 0.582,0 0,-0.5757 -0.7266,-0.3291 -0.582,0.4111"
             id="path4192"
             style="fill:url(#radialGradient3196);fill-opacity:1"
             inkscape:connector-curvature="0" />
        </g>
        <g
           id="g4198"
           style="fill:url(#radialGradient3202);fill-opacity:1;fill-rule:nonzero;stroke:none"
           transform="matrix(0.987914,0,0,0.987891,-1.58612,0.616059)">
          <path
             d="m 14.876,8.9072 -0.3638,0.9048 0.7271,0 0.3638,-0.8228 C 15.9166,8.7675 16.2286,8.5444 16.5479,8.331 l 0.7271,0.2471 c 0.4844,0.3291 0.9688,0.6582 1.4536,0.9868 L 19.4561,8.9072 18.6558,8.5781 18.292,7.8374 16.9111,7.6728 16.8383,7.2612 16.184,7.4262 15.8936,8.002 15.5298,7.2613 l -0.145,0.3291 0.0728,0.8228 -0.5816,0.494"
             id="path4200"
             style="fill:url(#radialGradient3200);fill-opacity:1"
             inkscape:connector-curvature="0" />
        </g>
        <g
           style="opacity:0.75;fill:url(#radialGradient3206);fill-opacity:1;fill-rule:nonzero;stroke:none"
           id="g4204"
           transform="matrix(0.987914,0,0,0.987891,-1.58612,0.616059)">
          <path
             id="path4206"
             d=""
             style="fill:url(#radialGradient3204);fill-opacity:1"
             inkscape:connector-curvature="0" />
        </g>
        <g
           id="g4208"
           style="fill:url(#radialGradient3210);fill-opacity:1;fill-rule:nonzero;stroke:none"
           transform="matrix(0.987914,0,0,0.987891,-1.58612,0.616059)">
          <path
             id="path4210"
             d=""
             style="fill:url(#radialGradient3208);fill-opacity:1"
             inkscape:connector-curvature="0" />
        </g>
        <g
           style="opacity:0.75;fill:url(#radialGradient3214);fill-opacity:1;fill-rule:nonzero;stroke:none"
           id="g4214"
           transform="matrix(0.987914,0,0,0.987891,-1.58612,0.616059)">
          <path
             id="path4216"
             d=""
             style="fill:url(#radialGradient3212);fill-opacity:1"
             inkscape:connector-curvature="0" />
        </g>
        <g
           id="g4218"
           style="fill:url(#radialGradient3218);fill-opacity:1;fill-rule:nonzero;stroke:none"
           transform="matrix(0.987914,0,0,0.987891,-1.58612,0.616059)">
          <path
             id="path4220"
             d=""
             style="fill:url(#radialGradient3216);fill-opacity:1"
             inkscape:connector-curvature="0" />
        </g>
        <g
           id="g4226"
           style="fill:url(#radialGradient3222);fill-opacity:1;fill-rule:nonzero;stroke:none"
           transform="matrix(0.987914,0,0,0.987891,-1.58612,0.616059)">
          <path
             d="M 17.4922,6.8496 17.856,6.521 18.5831,6.3564 c 0.498,-0.2422 0.998,-0.4053 1.5264,-0.5762 l -0.29,-0.4937 -0.9385,0.1348 -0.4434,0.4419 -0.731,0.106 -0.6499,0.3052 -0.3159,0.1528 -0.1929,0.2583 0.9443,0.1641"
             id="path4228"
             style="fill:url(#radialGradient3220);fill-opacity:1"
             inkscape:connector-curvature="0" />
        </g>
        <g
           id="g4234"
           style="fill:url(#radialGradient3226);fill-opacity:1;fill-rule:nonzero;stroke:none"
           transform="matrix(0.987914,0,0,0.987891,-1.58612,0.616059)">
          <path
             d="m 18.7285,14.6665 0.4365,-0.6582 -0.6548,-0.4932 0.2183,1.1514"
             id="path4236"
             style="fill:url(#radialGradient3224);fill-opacity:1"
             inkscape:connector-curvature="0" />
        </g>
      </g>
    </g>
    <path
       inkscape:connector-curvature="0"
       id="path3202"
       d="M 577,-296.50884 C 577,-158.70935 465.73457,-47 328.50316,-47 191.25915,-47 80,-158.71062 80,-296.50884 80,-434.30201 191.25915,-546 328.50316,-546 465.73457,-546 577,-434.30201 577,-296.50884 l 0,0 z"
       style="fill:none;stroke:url(#linearGradient3984);stroke-width:11.35040474;stroke-miterlimit:4;stroke-opacity:1;stroke-dasharray:none;filter:url(#filter3986)" />
    <path
       transform="matrix(14.657143,0,0,14.657143,-1.035721,-596.47143)"
       style="fill:url(#linearGradient4041);fill-opacity:1.0;stroke:none"
       d="M 40,20.5 C 36.025829,27.322612 7.916667,21.591618 10.236355,7.8781677 12.692495,5.7631579 15.967349,3.0341131 22.5,3 32.164851,2.9495307 40,10.835017 40,20.5 z"
       id="path3204"
       inkscape:connector-curvature="0"
       sodipodi:nodetypes="ccsc" />
  </g>
</svg>
