<?xml version="1.0" encoding="UTF-8" standalone="no"?>
<!-- Created with Inkscape (http://www.inkscape.org/) -->

<svg
   xmlns:dc="http://purl.org/dc/elements/1.1/"
   xmlns:cc="http://creativecommons.org/ns#"
   xmlns:rdf="http://www.w3.org/1999/02/22-rdf-syntax-ns#"
   xmlns:svg="http://www.w3.org/2000/svg"
   xmlns="http://www.w3.org/2000/svg"
   xmlns:xlink="http://www.w3.org/1999/xlink"
   xmlns:sodipodi="http://sodipodi.sourceforge.net/DTD/sodipodi-0.dtd"
   xmlns:inkscape="http://www.inkscape.org/namespaces/inkscape"
   width="620"
   height="620"
   id="svg3993"
   sodipodi:version="0.32"
   inkscape:version="0.48.1 r9760"
   sodipodi:docname="plt-diffuse.svg"
   inkscape:output_extension="org.inkscape.output.svg.inkscape"
   version="1.0"
   inkscape:export-filename="plt-logo-red-diffuse.png"
   inkscape:export-xdpi="37.16"
   inkscape:export-ydpi="37.16">
  <defs
     id="defs3995">
    <linearGradient
       id="linearGradient3207">
      <stop
         style="stop-color:#4b1c1c;stop-opacity:1;"
         offset="0"
         id="stop3209" />
      <stop
         style="stop-color:#161665;stop-opacity:1;"
         offset="1"
         id="stop3211" />
    </linearGradient>
    <linearGradient
       id="linearGradient3200">
      <stop
         style="stop-color:#ffffff;stop-opacity:1;"
         offset="0"
         id="stop3202" />
      <stop
         style="stop-color:#ffffff;stop-opacity:0;"
         offset="1"
         id="stop3204" />
    </linearGradient>
    <linearGradient
       id="linearGradient3273">
      <stop
         style="stop-color:#ffffff;stop-opacity:1;"
         offset="0"
         id="stop3275" />
      <stop
         style="stop-color:#ebf0f5;stop-opacity:1;"
         offset="1"
         id="stop3277" />
    </linearGradient>
    <linearGradient
       id="linearGradient3633">
      <stop
         id="stop3635"
         offset="0"
         style="stop-color:#6b0000;stop-opacity:1;" />
      <stop
         id="stop3637"
         offset="1"
         style="stop-color:#ff0000;stop-opacity:1;" />
    </linearGradient>
    <linearGradient
       inkscape:collect="always"
       xlink:href="#linearGradient3633"
       id="linearGradient3767"
       gradientUnits="userSpaceOnUse"
       gradientTransform="translate(53.588096,54.930958)"
       x1="206.6875"
       y1="515.3125"
       x2="329.3125"
       y2="-2.9375" />
    <linearGradient
       id="linearGradient3625">
      <stop
         id="stop3627"
         offset="0"
         style="stop-color:#000000;stop-opacity:1;" />
      <stop
         id="stop3629"
         offset="1"
         style="stop-color:#0000ff;stop-opacity:1;" />
    </linearGradient>
    <linearGradient
       inkscape:collect="always"
       xlink:href="#linearGradient3625"
       id="linearGradient3753"
       gradientUnits="userSpaceOnUse"
       x1="206.6875"
       y1="515.3125"
       x2="329.3125"
       y2="-2.9375"
       gradientTransform="translate(67.730232,25.232473)" />
    <radialGradient
       inkscape:collect="always"
       xlink:href="#linearGradient3273"
       id="radialGradient3279"
       cx="351.0889"
       cy="207.6606"
       fx="351.0889"
       fy="207.6606"
       r="168.68813"
       gradientTransform="matrix(-0.5371037,0.3415436,-0.3364599,-0.5291094,596.7011,159.54682)"
       gradientUnits="userSpaceOnUse" />
    <radialGradient
       inkscape:collect="always"
       xlink:href="#linearGradient3200"
       id="radialGradient3206"
       cx="354.31024"
       cy="651.62604"
       fx="354.31024"
       fy="651.62604"
       r="239.00209"
       gradientTransform="matrix(-1.2160175,0.04320267,-0.01675955,-0.47173088,756.86395,411.39554)"
       gradientUnits="userSpaceOnUse" />
    <linearGradient
       inkscape:collect="always"
       xlink:href="#linearGradient3207"
       id="linearGradient3213"
       x1="205.08244"
       y1="573.19623"
       x2="328.04105"
       y2="32.803745"
       gradientUnits="userSpaceOnUse" />
    <linearGradient
       inkscape:collect="always"
       xlink:href="#linearGradient3633"
       id="linearGradient3014"
       gradientUnits="userSpaceOnUse"
       gradientTransform="translate(67.730232,25.232473)"
       x1="206.6875"
       y1="515.3125"
       x2="329.3125"
       y2="-2.9375" />
    <filter
       inkscape:collect="always"
       id="filter3785">
      <feGaussianBlur
         inkscape:collect="always"
         stdDeviation="17.914966"
         id="feGaussianBlur3787" />
    </filter>
    <linearGradient
       inkscape:collect="always"
       xlink:href="#linearGradient3625"
       id="linearGradient3789"
       gradientUnits="userSpaceOnUse"
       gradientTransform="translate(53.588096,54.930958)"
       x1="206.6875"
       y1="515.3125"
       x2="329.3125"
       y2="-2.9375" />
    <radialGradient
       r="168.68813"
       fy="275.82516"
       fx="324.18652"
       cy="275.82516"
       cx="324.18652"
       gradientTransform="matrix(-1.9606768,1.4426678,-1.3184547,-1.7918721,1535.2749,108.44174)"
       gradientUnits="userSpaceOnUse"
       id="radialGradient3039"
       xlink:href="#linearGradient3273-4"
       inkscape:collect="always" />
    <linearGradient
       id="linearGradient3273-4">
      <stop
         style="stop-color:#ffffff;stop-opacity:1;"
         offset="0"
         id="stop3275-4" />
      <stop
         style="stop-color:#efefef;stop-opacity:1;"
         offset="1"
         id="stop3277-4" />
    </linearGradient>
    <radialGradient
       r="168.68813"
       fy="275.82516"
       fx="324.18652"
       cy="275.82516"
       cx="324.18652"
       gradientTransform="matrix(-1.9606768,1.4426678,-1.3184547,-1.7918721,1328.7997,151.57526)"
       gradientUnits="userSpaceOnUse"
       id="radialGradient3208"
       xlink:href="#linearGradient3273-4"
       inkscape:collect="always" />
    <radialGradient
       inkscape:collect="always"
       xlink:href="#linearGradient3200"
       id="radialGradient3807"
       cx="269.43826"
       cy="125.40335"
       fx="269.43826"
       fy="125.40335"
       r="261"
       gradientTransform="matrix(0.9832883,0,0,0.97945694,46.566826,14.65551)"
       gradientUnits="userSpaceOnUse" />
  </defs>
  <sodipodi:namedview
     id="base"
     pagecolor="#ffffff"
     bordercolor="#666666"
     borderopacity="1.0"
     gridtolerance="10000"
     guidetolerance="10"
     objecttolerance="10"
     inkscape:pageopacity="0.0"
     inkscape:pageshadow="2"
     inkscape:zoom="0.5"
     inkscape:cx="364.9558"
     inkscape:cy="353.01685"
     inkscape:document-units="px"
     inkscape:current-layer="layer1"
     showgrid="false"
     inkscape:window-width="1024"
     inkscape:window-height="719"
     inkscape:window-x="364"
     inkscape:window-y="150"
     inkscape:window-maximized="0"
     showguides="true"
     inkscape:guide-bbox="true" />
  <metadata
     id="metadata3998">
    <rdf:RDF>
      <cc:Work
         rdf:about="">
        <dc:format>image/svg+xml</dc:format>
        <dc:type
           rdf:resource="http://purl.org/dc/dcmitype/StillImage" />
      </cc:Work>
    </rdf:RDF>
  </metadata>
  <g
     inkscape:label="Layer 1"
     inkscape:groupmode="layer"
     id="layer1">
    <path
       style="fill:#000000;fill-opacity:1;fill-rule:evenodd;stroke:none;filter:url(#filter3785)"
       d="m 303.29537,54.854735 c -16.99381,0.233978 -34.68729,1.958898 -53.03125,5.3125 36.10629,73.366875 39.06037,76.604835 84.8125,176.000005 0.15856,0.34149 0.31043,0.65927 0.46875,1 l -0.3125,0.5 C 287.91743,136.88885 288.70635,136.73551 249.51412,62.198485 138.59034,90.169231 56.930913,185.26156 54.264114,310.94849 c -1.414216,66.65235 23.253945,149.63345 110.750006,215.375 51.36921,26.54723 96.0421,43.19145 145.0625,39.9375 52.37629,1.75132 115.90834,-13.19812 174.6875,-67.875 -0.1344,-0.22046 -0.24115,-0.40552 -0.375,-0.625 55.98155,-51.00626 84.31938,-126.25214 81.5,-186.84375 l 0,-0.53125 C 566.91317,188.25244 467.56891,52.592952 303.29537,54.854735 z"
       id="path3010"
       inkscape:connector-curvature="0" />
    <path
       style="fill:url(#linearGradient3767);fill-opacity:1;fill-rule:evenodd;stroke:none"
       d="M 249.50061,62.188104 C 138.57683,90.15885 56.940085,185.25914 54.273286,310.94607 c -1.414216,66.65235 23.253943,149.63345 110.750004,215.375 51.36921,26.54723 96.0421,43.19145 145.0625,39.9375 52.37629,1.75132 115.90834,-13.20548 174.6875,-67.88236 -61.74872,-101.2905 -66.0959,-99.07148 -149.15625,-261.30514 l -0.375,0.59375 C 287.9266,136.88643 288.69284,136.72513 249.50061,62.188104 z"
       id="path3774"
       sodipodi:nodetypes="cscccccc"
       inkscape:connector-curvature="0" />
    <path
       style="fill:url(#linearGradient3789);fill-opacity:1;fill-rule:evenodd;stroke:none"
       d="m 483.86138,498.26735 c 56.33938,-51.01346 84.86765,-126.55022 82.03922,-187.33639 l 0,-0.53125 C 567.03059,175.63165 445.93658,24.393274 250.26764,60.165031 c 36.10629,73.366879 39.04565,76.603019 84.79778,175.998189 54.20783,116.75029 94.65563,188.45418 148.79596,262.10413 z"
       id="path3615"
       sodipodi:nodetypes="cccccc"
       inkscape:export-filename="/home/neil/Documents/Misc/Images/path3949.png"
       inkscape:export-xdpi="5.23"
       inkscape:export-ydpi="5.23"
       inkscape:connector-curvature="0" />
    <path
       sodipodi:type="arc"
       style="fill:none;stroke:url(#linearGradient3213);stroke-width:12.29786873;stroke-miterlimit:4;stroke-opacity:1;stroke-dasharray:none"
       id="path3803"
       sodipodi:cx="268"
       sodipodi:cy="303"
       sodipodi:rx="261"
       sodipodi:ry="264"
       d="m 529,303 a 261,264 0 1 1 -522,0 261,264 0 1 1 522,0 z"
       transform="matrix(0.9832883,0,0,0.9683267,46.566826,18.027958)"
       inkscape:export-filename="/home/neil/Documents/Misc/Images/path3949.png"
       inkscape:export-xdpi="5.23"
       inkscape:export-ydpi="5.23" />
    <path
       style="fill:url(#radialGradient3807);stroke:none;stroke-width:12.29786872999999936;stroke-miterlimit:4;stroke-opacity:1;stroke-dasharray:none;fill-opacity:1"
       d="M 310.09375 61.75 C 171.66152 61.75 59.5 173.4337 59.5 311.4375 C 59.5 449.4413 171.66152 561.09375 310.09375 561.09375 C 448.52598 561.09375 560.6875 449.4413 560.6875 311.4375 C 560.6875 173.4337 448.52598 61.75 310.09375 61.75 z "
       id="path3029" />
    <path
       style="fill:url(#radialGradient3208);fill-opacity:1;stroke:#000000;stroke-width:8;stroke-miterlimit:10.43299961;stroke-opacity:1;stroke-dasharray:none"
       d="m 265.6898,67.087299 c -27.07492,0.48908 -52.83237,9.901648 -78.13681,18.608901 11.0396,11.823326 9.37418,15.55804 14.19246,14.65992 18.43869,-4.465837 45.7868,-14.858831 57.97111,4.83448 26.56443,33.55767 37.83026,76.50393 41.85449,118.37596 5.15871,25.44003 -47.30403,116.52589 -63.42303,152.88265 -26.20045,46.22879 -49.47611,94.20521 -78.99673,138.48542 7.0596,9.34303 17.25993,5.68676 26.86192,4.2502 8.19842,-1.22826 16.39686,-2.4565 24.59528,-3.68475 26.44013,-62.68827 54.98797,-120.2314 79.79859,-183.59412 11.30581,-26.11293 16.82865,-40.47628 30.26123,-57.57618 15.92423,9.74246 20.66525,33.77224 29.3527,50.35199 25.60238,65.87977 51.09413,131.80228 75.25809,198.22074 6.32468,2.20244 12.81613,8.78314 18.81535,2.44056 15.78086,-9.73038 34.15342,-15.82488 47.2925,-29.27438 -3.74907,-18.17899 -15.79452,-35.18254 -23.13261,-52.66524 -46.51473,-92.95952 -91.3634,-191.5622 -120.47873,-291.65949 -10.72309,-31.50493 -23.92724,-69.4697 -58.05359,-81.90644 -7.7741,-2.308011 -15.96612,-2.751571 -24.03222,-2.750221 z"
       id="path4218-4"
       sodipodi:nodetypes="ccccccccccccccccccc"
       inkscape:connector-curvature="0" />
  </g>
</svg>
