<?xml version="1.0" encoding="UTF-8" standalone="no"?>
<!-- Created with Inkscape (http://www.inkscape.org/) -->

<svg
   xmlns:dc="http://purl.org/dc/elements/1.1/"
   xmlns:cc="http://creativecommons.org/ns#"
   xmlns:rdf="http://www.w3.org/1999/02/22-rdf-syntax-ns#"
   xmlns:svg="http://www.w3.org/2000/svg"
   xmlns="http://www.w3.org/2000/svg"
   xmlns:xlink="http://www.w3.org/1999/xlink"
   xmlns:sodipodi="http://sodipodi.sourceforge.net/DTD/sodipodi-0.dtd"
   xmlns:inkscape="http://www.inkscape.org/namespaces/inkscape"
   width="620"
   height="620"
   id="svg3993"
   sodipodi:version="0.32"
   inkscape:version="0.48.1 r9760"
   sodipodi:docname="plt-logo-shiny.svg"
   inkscape:output_extension="org.inkscape.output.svg.inkscape"
   version="1.0"
   inkscape:export-filename="plt-logo-red-shiny.png"
   inkscape:export-xdpi="37.16"
   inkscape:export-ydpi="37.16">
  <defs
     id="defs3995">
    <linearGradient
       id="linearGradient3200">
      <stop
         style="stop-color:#ee004e;stop-opacity:1;"
         offset="0"
         id="stop3202" />
      <stop
         style="stop-color:#c00000;stop-opacity:0;"
         offset="1"
         id="stop3204" />
    </linearGradient>
    <linearGradient
       id="linearGradient3273">
      <stop
         style="stop-color:#ffffff;stop-opacity:1;"
         offset="0"
         id="stop3275" />
      <stop
         style="stop-color:#ebf0f5;stop-opacity:1;"
         offset="1"
         id="stop3277" />
    </linearGradient>
    <linearGradient
       id="linearGradient3633">
      <stop
         id="stop3635"
         offset="0"
         style="stop-color:#6b0000;stop-opacity:1;" />
      <stop
         id="stop3637"
         offset="1"
         style="stop-color:#ff0000;stop-opacity:1;" />
    </linearGradient>
    <linearGradient
       inkscape:collect="always"
       xlink:href="#linearGradient3633"
       id="linearGradient3767"
       gradientUnits="userSpaceOnUse"
       gradientTransform="translate(70.558659,20.989832)"
       x1="206.6875"
       y1="515.3125"
       x2="329.3125"
       y2="-2.9375" />
    <linearGradient
       id="linearGradient3625">
      <stop
         id="stop3627"
         offset="0"
         style="stop-color:#000000;stop-opacity:1;" />
      <stop
         id="stop3629"
         offset="1"
         style="stop-color:#0000ff;stop-opacity:1;" />
    </linearGradient>
    <linearGradient
       inkscape:collect="always"
       xlink:href="#linearGradient3625"
       id="linearGradient3753"
       gradientUnits="userSpaceOnUse"
       x1="206.6875"
       y1="515.3125"
       x2="329.3125"
       y2="-2.9375"
       gradientTransform="translate(70.558659,20.989832)" />
    <linearGradient
       id="linearGradient3565">
      <stop
         style="stop-color:#ffffff;stop-opacity:0.56140351;"
         offset="0"
         id="stop3567" />
      <stop
         style="stop-color:#ffffff;stop-opacity:0;"
         offset="1"
         id="stop3569" />
    </linearGradient>
    <linearGradient
       inkscape:collect="always"
       xlink:href="#linearGradient3565"
       id="linearGradient3571"
       x1="185.49913"
       y1="513.36578"
       x2="330.25629"
       y2="0.54683709"
       gradientUnits="userSpaceOnUse" />
    <linearGradient
       id="linearGradient3643">
      <stop
         style="stop-color:#ffffff;stop-opacity:1;"
         offset="0"
         id="stop3645" />
      <stop
         style="stop-color:#ffffff;stop-opacity:0;"
         offset="1"
         id="stop3647" />
    </linearGradient>
    <linearGradient
       inkscape:collect="always"
       xlink:href="#linearGradient3643"
       id="linearGradient3963"
       x1="310.86807"
       y1="-12.131621"
       x2="244.11395"
       y2="336.18335"
       gradientUnits="userSpaceOnUse"
       gradientTransform="translate(53.00231,45.85989)" />
    <radialGradient
       inkscape:collect="always"
       xlink:href="#linearGradient3273"
       id="radialGradient3279"
       cx="351.0889"
       cy="207.6606"
       fx="351.0889"
       fy="207.6606"
       r="168.68813"
       gradientTransform="matrix(-0.5371037,0.3415436,-0.3364599,-0.5291094,613.67166,125.60569)"
       gradientUnits="userSpaceOnUse" />
    <radialGradient
       inkscape:collect="always"
       xlink:href="#linearGradient3200"
       id="radialGradient3206"
       cx="305.25034"
       cy="660.00964"
       fx="305.25034"
       fy="660.00964"
       r="239.00209"
       gradientTransform="matrix(0.7907146,0.1651155,-0.09609247,0.4601728,106.21246,111.1241)"
       gradientUnits="userSpaceOnUse" />
    <filter
       inkscape:collect="always"
       id="filter3223">
      <feGaussianBlur
         inkscape:collect="always"
         stdDeviation="5.3952674"
         id="feGaussianBlur3225" />
    </filter>
    <filter
       inkscape:collect="always"
       id="filter3788"
       x="-0.12492827"
       width="1.2498565"
       y="-0.11526655"
       height="1.2305331">
      <feGaussianBlur
         inkscape:collect="always"
         stdDeviation="26.703418"
         id="feGaussianBlur3790" />
    </filter>
  </defs>
  <sodipodi:namedview
     id="base"
     pagecolor="#ffffff"
     bordercolor="#666666"
     borderopacity="1.0"
     gridtolerance="10000"
     guidetolerance="10"
     objecttolerance="10"
     inkscape:pageopacity="0.0"
     inkscape:pageshadow="2"
     inkscape:zoom="0.70710678"
     inkscape:cx="315.13412"
     inkscape:cy="279.981"
     inkscape:document-units="px"
     inkscape:current-layer="layer1"
     showgrid="false"
     inkscape:window-width="1024"
     inkscape:window-height="719"
     inkscape:window-x="723"
     inkscape:window-y="302"
     inkscape:window-maximized="0" />
  <metadata
     id="metadata3998">
    <rdf:RDF>
      <cc:Work
         rdf:about="">
        <dc:format>image/svg+xml</dc:format>
        <dc:type
           rdf:resource="http://purl.org/dc/dcmitype/StillImage" />
      </cc:Work>
    </rdf:RDF>
  </metadata>
  <g
     inkscape:label="Layer 1"
     inkscape:groupmode="layer"
     id="layer1">
    <path
       sodipodi:type="arc"
       style="fill:#000000;fill-opacity:0.78431373;fill-rule:evenodd;stroke:none;filter:url(#filter3788)"
       id="path3949"
       sodipodi:cx="256.5"
       sodipodi:cy="288"
       sodipodi:rx="256.5"
       sodipodi:ry="278"
       d="m 513,288 a 256.5,278 0 1 1 -5.7e-4,-0.58377"
       sodipodi:start="0"
       sodipodi:end="6.2810854"
       sodipodi:open="true"
       transform="matrix(1.0331384,0,0,0.9568345,43.830736,35.977841)"
       inkscape:export-xdpi="5.23"
       inkscape:export-ydpi="5.23" />
    <path
       style="fill:url(#linearGradient3767);fill-opacity:1;fill-rule:evenodd;stroke:none"
       d="M 266.47117,28.246978 C 155.54739,56.217724 73.910648,151.31801 71.243849,277.00494 c -1.414216,66.65235 23.253943,149.63345 110.750001,215.375 51.36921,26.54723 96.0421,43.19145 145.0625,39.9375 52.37629,1.75132 115.90834,-13.20548 174.6875,-67.88236 C 439.99513,363.14458 435.64795,365.3636 352.5876,203.12994 l -0.375,0.59375 C 304.89716,102.9453 305.6634,102.784 266.47117,28.246978 z"
       id="path3774"
       sodipodi:nodetypes="cscccccc"
       inkscape:connector-curvature="0" />
    <path
       style="fill:url(#linearGradient3753);fill-opacity:1;fill-rule:evenodd;stroke:none"
       d="M 500.83194,464.32622 C 557.17132,413.31276 585.69959,337.776 582.87116,276.98983 l 0,-0.53125 C 584.00115,141.69052 462.90714,-9.5478517 267.2382,26.223905 c 36.10629,73.366877 39.04565,76.603015 84.79778,175.998185 54.20783,116.75029 94.65563,188.45418 148.79596,262.10413 z"
       id="path3615"
       sodipodi:nodetypes="cccccc"
       inkscape:export-filename="/home/neil/Documents/Misc/Images/path3949.png"
       inkscape:export-xdpi="5.23"
       inkscape:export-ydpi="5.23"
       inkscape:connector-curvature="0" />
    <path
       sodipodi:type="arc"
       style="fill:none;stroke:#00004b;stroke-width:12.29786873;stroke-miterlimit:4;stroke-opacity:1;stroke-dasharray:none"
       id="path3803"
       sodipodi:cx="268"
       sodipodi:cy="303"
       sodipodi:rx="261"
       sodipodi:ry="264"
       d="m 529,303 a 261,264 0 1 1 -522,0 261,264 0 1 1 522,0 z"
       transform="matrix(0.9832883,0,0,0.9683267,63.537389,-15.913168)"
       inkscape:export-filename="/home/neil/Documents/Misc/Images/path3949.png"
       inkscape:export-xdpi="5.23"
       inkscape:export-ydpi="5.23" />
    <path
       sodipodi:type="arc"
       style="fill:none;stroke:url(#linearGradient3571);stroke-width:12.8842028;stroke-miterlimit:4;stroke-opacity:0.56701025999999999;stroke-dasharray:none;filter:url(#filter3223)"
       id="path3553"
       sodipodi:cx="257"
       sodipodi:cy="256.5"
       sodipodi:rx="258"
       sodipodi:ry="256.5"
       d="m 515,256.5 a 258,256.5 0 1 1 -5.7e-4,-0.53863"
       sodipodi:start="0"
       sodipodi:end="6.2810854"
       sodipodi:open="true"
       transform="matrix(0.9280941,0,0,0.9346637,88.038433,36.955728)"
       inkscape:export-filename="/home/neil/Documents/Misc/Images/path3949.png"
       inkscape:export-xdpi="5.23"
       inkscape:export-ydpi="5.23" />
    <path
       style="fill:url(#linearGradient3963);fill-opacity:1;fill-rule:evenodd;stroke:none"
       d="m 321.84702,60.85989 c -75.87704,0 -143.20476,34.489975 -189.26404,88.40759 -9.73462,17.83385 -15.76817,36.72732 -15.76817,56.82547 0,91.61023 110.42175,165.95444 246.48451,165.95444 87.9663,0 165.20485,-31.08594 208.82799,-77.81216 C 561.61838,163.60498 453.51418,60.85989 321.84702,60.85989 z"
       id="path3641"
       inkscape:export-filename="/home/neil/Documents/Misc/Images/path3949.png"
       inkscape:export-xdpi="5.23"
       inkscape:export-ydpi="5.23"
       transform="matrix(1.0021963,0,0,0.9903595,4.2997892,-33.283339)"
       sodipodi:nodetypes="ccsscc"
       inkscape:connector-curvature="0" />
    <path
       style="fill:url(#radialGradient3206);fill-opacity:1;fill-rule:evenodd;stroke:none"
       d="m 272.8376,351.41119 c -66.94989,0 -128.34065,9.85096 -176.125001,26.25 38.920491,88.3771 127.518251,150.18752 230.562501,150.1875 83.52444,0 157.58465,-40.6177 203.375,-103.0625 -39.54684,-42.89597 -140.09922,-73.37501 -257.8125,-73.375 z"
       id="path3196"
       inkscape:connector-curvature="0" />
    <path
       style="fill:url(#radialGradient3279);fill-opacity:1;stroke:#000000;stroke-width:8;stroke-miterlimit:10.43299961;stroke-opacity:0.50196078;stroke-dasharray:none"
       d="m 282.92378,32.449855 c -27.07492,0.489079 -52.83237,9.901645 -78.13681,18.608898 11.0396,11.823326 9.37418,15.558039 14.19246,14.659919 18.43869,-4.465836 45.7868,-14.85883 57.97111,4.83448 26.56443,33.557658 37.83026,76.503918 41.85449,118.375948 5.15871,25.44003 -47.30403,116.52589 -63.42303,152.88265 -26.20045,46.22879 -49.47611,94.20521 -78.99673,138.48542 7.0596,9.34303 17.25993,5.68676 26.86192,4.2502 8.19842,-1.22826 16.39686,-2.4565 24.59528,-3.68475 26.44013,-62.68827 54.98797,-120.2314 79.79859,-183.59412 11.30581,-26.11293 16.82865,-40.47628 30.26123,-57.57618 15.92423,9.74246 20.66525,33.77224 29.3527,50.35199 25.60238,65.87977 51.09413,131.80228 75.25809,198.22074 6.32468,2.20244 12.81613,8.78314 18.81535,2.44056 15.78086,-9.73038 34.15342,-15.82488 47.2925,-29.27438 -3.74907,-18.17899 -15.79452,-35.18254 -23.13261,-52.66524 C 438.97359,315.80647 394.12492,217.20379 365.00959,117.1065 354.2865,85.601582 341.08235,47.636813 306.956,35.200073 299.1819,32.89206 290.98988,32.448498 282.92378,32.449855 z"
       id="path4218"
       sodipodi:nodetypes="ccccccccccccccccccc"
       inkscape:connector-curvature="0" />
  </g>
</svg>
