<?xml version="1.0" encoding="UTF-8" standalone="no"?>
<!-- Created with Inkscape (http://www.inkscape.org/) -->

<svg
   xmlns:dc="http://purl.org/dc/elements/1.1/"
   xmlns:cc="http://creativecommons.org/ns#"
   xmlns:rdf="http://www.w3.org/1999/02/22-rdf-syntax-ns#"
   xmlns:svg="http://www.w3.org/2000/svg"
   xmlns="http://www.w3.org/2000/svg"
   xmlns:xlink="http://www.w3.org/1999/xlink"
   xmlns:sodipodi="http://sodipodi.sourceforge.net/DTD/sodipodi-0.dtd"
   xmlns:inkscape="http://www.inkscape.org/namespaces/inkscape"
   width="620"
   height="620"
   id="svg3993"
   sodipodi:version="0.32"
   inkscape:version="0.48.1 r9760"
   sodipodi:docname="plt-shiny.svg"
   inkscape:output_extension="org.inkscape.output.svg.inkscape"
   version="1.0"
   inkscape:export-filename="plt-logo-red-shiny.png"
   inkscape:export-xdpi="37.16"
   inkscape:export-ydpi="37.16">
  <defs
     id="defs3995">
    <linearGradient
       id="linearGradient3200">
      <stop
         style="stop-color:#ee004e;stop-opacity:1;"
         offset="0"
         id="stop3202" />
      <stop
         style="stop-color:#c00000;stop-opacity:0;"
         offset="1"
         id="stop3204" />
    </linearGradient>
    <linearGradient
       id="linearGradient3273">
      <stop
         style="stop-color:#ffffff;stop-opacity:1;"
         offset="0"
         id="stop3275" />
      <stop
         style="stop-color:#efefef;stop-opacity:1;"
         offset="1"
         id="stop3277" />
    </linearGradient>
    <linearGradient
       id="linearGradient3633">
      <stop
         id="stop3635"
         offset="0"
         style="stop-color:#6b0000;stop-opacity:1;" />
      <stop
         id="stop3637"
         offset="1"
         style="stop-color:#ff0000;stop-opacity:1;" />
    </linearGradient>
    <linearGradient
       inkscape:collect="always"
       xlink:href="#linearGradient3633"
       id="linearGradient3767"
       gradientUnits="userSpaceOnUse"
       gradientTransform="translate(52.173882,56.34517)"
       x1="206.6875"
       y1="515.3125"
       x2="329.3125"
       y2="-2.9375" />
    <linearGradient
       id="linearGradient3625">
      <stop
         id="stop3627"
         offset="0"
         style="stop-color:#000000;stop-opacity:1;" />
      <stop
         id="stop3629"
         offset="1"
         style="stop-color:#0000ff;stop-opacity:1;" />
    </linearGradient>
    <linearGradient
       inkscape:collect="always"
       xlink:href="#linearGradient3625"
       id="linearGradient3753"
       gradientUnits="userSpaceOnUse"
       x1="206.6875"
       y1="515.3125"
       x2="329.3125"
       y2="-2.9375"
       gradientTransform="translate(70.558659,20.989832)" />
    <linearGradient
       id="linearGradient3565">
      <stop
         style="stop-color:#ffffff;stop-opacity:0.56140351;"
         offset="0"
         id="stop3567" />
      <stop
         style="stop-color:#ffffff;stop-opacity:0;"
         offset="1"
         id="stop3569" />
    </linearGradient>
    <linearGradient
       inkscape:collect="always"
       xlink:href="#linearGradient3565"
       id="linearGradient3571"
       x1="185.49913"
       y1="513.36578"
       x2="330.25629"
       y2="0.54683709"
       gradientUnits="userSpaceOnUse" />
    <linearGradient
       id="linearGradient3643">
      <stop
         style="stop-color:#ffffff;stop-opacity:1;"
         offset="0"
         id="stop3645" />
      <stop
         style="stop-color:#ffffff;stop-opacity:0;"
         offset="1"
         id="stop3647" />
    </linearGradient>
    <radialGradient
       inkscape:collect="always"
       xlink:href="#linearGradient3273"
       id="radialGradient3279"
       cx="324.18652"
       cy="275.82516"
       fx="324.18652"
       fy="275.82516"
       r="168.68813"
       gradientTransform="matrix(-1.9606768,1.4426678,-1.3184547,-1.7918721,1327.6489,152.29315)"
       gradientUnits="userSpaceOnUse" />
    <radialGradient
       inkscape:collect="always"
       xlink:href="#linearGradient3200"
       id="radialGradient3206"
       cx="305.25034"
       cy="660.00964"
       fx="305.25034"
       fy="660.00964"
       r="239.00209"
       gradientTransform="matrix(0.7907146,0.1651155,-0.09609247,0.4601728,-190.77239,152.1363)"
       gradientUnits="userSpaceOnUse" />
    <linearGradient
       inkscape:collect="always"
       xlink:href="#linearGradient3633"
       id="linearGradient3022"
       gradientUnits="userSpaceOnUse"
       gradientTransform="translate(70.558659,20.989832)"
       x1="206.6875"
       y1="515.3125"
       x2="329.3125"
       y2="-2.9375" />
    <filter
       inkscape:collect="always"
       id="filter3793">
      <feGaussianBlur
         inkscape:collect="always"
         stdDeviation="17.914478"
         id="feGaussianBlur3795" />
    </filter>
    <linearGradient
       inkscape:collect="always"
       xlink:href="#linearGradient3625"
       id="linearGradient3797"
       gradientUnits="userSpaceOnUse"
       gradientTransform="translate(52.173882,56.34517)"
       x1="206.6875"
       y1="515.3125"
       x2="329.3125"
       y2="-2.9375" />
    <radialGradient
       inkscape:collect="always"
       xlink:href="#linearGradient3200"
       id="radialGradient3805"
       cx="271.90231"
       cy="503.02432"
       fx="271.90231"
       fy="503.02432"
       r="250.57812"
       gradientTransform="matrix(1.1806018,0.23703972,-0.19615054,0.97694884,49.562441,-53.532311)"
       gradientUnits="userSpaceOnUse" />
    <radialGradient
       inkscape:collect="always"
       xlink:href="#linearGradient3200"
       id="radialGradient3827"
       gradientUnits="userSpaceOnUse"
       gradientTransform="matrix(1.1806018,0.23703972,-0.19615054,0.97694884,49.562441,-53.532311)"
       cx="271.90231"
       cy="503.02432"
       fx="271.90231"
       fy="503.02432"
       r="250.57812" />
    <linearGradient
       inkscape:collect="always"
       xlink:href="#linearGradient3643"
       id="linearGradient3836"
       x1="241.94151"
       y1="619.72809"
       x2="366.91696"
       y2="151.6234"
       gradientUnits="userSpaceOnUse" />
    <filter
       inkscape:collect="always"
       id="filter3838">
      <feGaussianBlur
         inkscape:collect="always"
         stdDeviation="6.1033203"
         id="feGaussianBlur3840" />
    </filter>
    <linearGradient
       inkscape:collect="always"
       xlink:href="#linearGradient3643"
       id="linearGradient3803"
       gradientUnits="userSpaceOnUse"
       x1="315.68585"
       y1="27.030476"
       x2="319.11377"
       y2="350.00522" />
    <radialGradient
       inkscape:collect="always"
       xlink:href="#linearGradient3200"
       id="radialGradient3806"
       gradientUnits="userSpaceOnUse"
       gradientTransform="matrix(1.1669553,0.02972212,-0.01793501,0.70416751,-44.291363,148.08215)"
       cx="312.54175"
       cy="497.9407"
       fx="312.54175"
       fy="497.9407"
       r="250.57812" />
  </defs>
  <sodipodi:namedview
     id="base"
     pagecolor="#ffffff"
     bordercolor="#666666"
     borderopacity="1.0"
     gridtolerance="10000"
     guidetolerance="10"
     objecttolerance="10"
     inkscape:pageopacity="0.0"
     inkscape:pageshadow="2"
     inkscape:zoom="0.5"
     inkscape:cx="380.56349"
     inkscape:cy="317.23543"
     inkscape:document-units="px"
     inkscape:current-layer="layer1"
     showgrid="false"
     inkscape:window-width="1024"
     inkscape:window-height="719"
     inkscape:window-x="581"
     inkscape:window-y="296"
     inkscape:window-maximized="0" />
  <metadata
     id="metadata3998">
    <rdf:RDF>
      <cc:Work
         rdf:about="">
        <dc:format>image/svg+xml</dc:format>
        <dc:type
           rdf:resource="http://purl.org/dc/dcmitype/StillImage" />
      </cc:Work>
    </rdf:RDF>
  </metadata>
  <g
     inkscape:label="Layer 1"
     inkscape:groupmode="layer"
     id="layer1">
    <path
       style="fill:#000000;fill-opacity:1;fill-rule:evenodd;stroke:none;filter:url(#filter3793)"
       d="m 306.11523,56.261588 c -18.28424,-0.01176 -37.37737,1.679431 -57.25,5.3125 36.10629,73.366892 39.02912,76.604842 84.78125,176.000012 0.16262,0.35025 0.30638,0.68181 0.46875,1.03125 l -0.28125,0.46875 C 286.51854,138.29571 287.27621,138.14237 248.08398,63.605338 137.1602,91.576084 55.532022,186.66842 52.865223,312.35535 c -1.414216,66.65235 23.253942,149.63345 110.750007,215.375 51.36921,26.54723 96.0421,43.19145 145.0625,39.9375 52.37629,1.75132 115.90834,-13.19812 174.6875,-67.875 -0.1344,-0.22046 -0.24115,-0.40552 -0.375,-0.625 55.9792,-51.00621 84.31932,-126.22217 81.5,-186.8125 l 0,-0.53125 C 565.50546,190.74342 467.8604,56.365615 306.11523,56.261588 z"
       id="path3018"
       inkscape:connector-curvature="0" />
    <path
       style="fill:url(#linearGradient3767);fill-opacity:1;fill-rule:evenodd;stroke:none"
       d="M 248.0864,63.602316 C 137.16262,91.573062 55.525871,186.67336 52.859072,312.36029 c -1.414216,66.65235 23.253943,149.63345 110.750008,215.375 51.36921,26.54723 96.0421,43.19145 145.0625,39.9375 52.37629,1.75132 115.90834,-13.20548 174.6875,-67.88236 -61.74872,-101.2905 -66.0959,-99.07148 -149.15625,-261.30514 l -0.375,0.59375 C 286.51239,138.30065 287.27863,138.13935 248.0864,63.602316 z"
       id="path3774"
       sodipodi:nodetypes="cscccccc"
       inkscape:connector-curvature="0" />
    <path
       style="fill:url(#linearGradient3797);fill-opacity:1;fill-rule:evenodd;stroke:none"
       d="m 482.44717,499.68157 c 56.33938,-51.01346 84.86765,-126.55022 82.03922,-187.33639 l 0,-0.53125 C 565.61638,177.04587 444.52237,25.807487 248.85343,61.579243 c 36.10629,73.366877 39.04565,76.603027 84.79778,175.998197 54.20783,116.75029 94.65563,188.45418 148.79596,262.10413 z"
       id="path3615"
       sodipodi:nodetypes="cccccc"
       inkscape:export-filename="/home/neil/Documents/Misc/Images/path3949.png"
       inkscape:export-xdpi="5.23"
       inkscape:export-ydpi="5.23"
       inkscape:connector-curvature="0" />
    <path
       sodipodi:type="arc"
       style="fill:none;stroke:#00004b;stroke-width:12.29786873;stroke-miterlimit:4;stroke-opacity:1;stroke-dasharray:none"
       id="path3803"
       sodipodi:cx="268"
       sodipodi:cy="303"
       sodipodi:rx="261"
       sodipodi:ry="264"
       d="m 529,303 a 261,264 0 1 1 -522,0 261,264 0 1 1 522,0 z"
       transform="matrix(0.9832883,0,0,0.9683267,45.152612,19.44217)"
       inkscape:export-filename="/home/neil/Documents/Misc/Images/path3949.png"
       inkscape:export-xdpi="5.23"
       inkscape:export-ydpi="5.23" />
    <path
       style="fill:url(#radialGradient3806);fill-opacity:1;stroke:none;stroke-width:12;stroke-miterlimit:4;stroke-opacity:1;stroke-dasharray:none"
       d="M 308.6875 63.15625 C 170.25526 63.15625 58.09375 174.83995 58.09375 312.84375 C 58.09375 450.84755 170.25526 562.53125 308.6875 562.53125 C 447.11973 562.53125 559.25 450.84755 559.25 312.84375 C 559.25 174.83995 447.11973 63.15625 308.6875 63.15625 z "
       id="path3022" />
    <path
       style="fill:none;fill-opacity:1;stroke:url(#linearGradient3836);stroke-width:12;stroke-miterlimit:4;stroke-opacity:1;stroke-dasharray:none;filter:url(#filter3838)"
       d="M 308.6875 69.15625 C 173.48236 69.15625 64.09375 178.09092 64.09375 312.84375 C 64.09375 447.59658 173.48236 556.53125 308.6875 556.53125 C 443.89263 556.53125 553.25 447.59749 553.25 312.84375 C 553.25 178.09001 443.89263 69.15625 308.6875 69.15625 z "
       id="path3819" />
    <path
       style="fill:url(#linearGradient3803);fill-opacity:1;stroke:none"
       d="m 308.6875,63.15625 c -113.89249,0 -210.00427,75.59427 -240.5,179.25 36.44226,-46.77894 126.25955,68.08337 264.00605,11.57625 111.87991,-45.89598 185.00448,-65.12341 216.9627,-11.57625 -30.48823,-103.65573 -126.57627,-179.25 -240.46875,-179.25 z"
       id="path3028"
       inkscape:connector-curvature="0"
       sodipodi:nodetypes="scscs" />
    <path
       style="fill:url(#radialGradient3279);fill-opacity:1;stroke:#000000;stroke-width:8;stroke-miterlimit:10.43299960999999954;stroke-opacity:1;stroke-dasharray:none"
       d="m 264.53901,67.805193 c -27.07492,0.489079 -52.83237,9.901645 -78.13681,18.608898 11.0396,11.823326 9.37418,15.558039 14.19246,14.659919 18.43869,-4.465836 45.7868,-14.85883 57.97111,4.83448 26.56443,33.55767 37.83026,76.50393 41.85449,118.37596 5.15871,25.44003 -47.30403,116.52589 -63.42303,152.88265 -26.20045,46.22879 -49.47611,94.20521 -78.99673,138.48542 7.0596,9.34303 17.25993,5.68676 26.86192,4.2502 8.19842,-1.22826 16.39686,-2.4565 24.59528,-3.68475 26.44013,-62.68827 54.98797,-120.2314 79.79859,-183.59412 11.30581,-26.11293 16.82865,-40.47628 30.26123,-57.57618 15.92423,9.74246 20.66525,33.77224 29.3527,50.35199 25.60238,65.87977 51.09413,131.80228 75.25809,198.22074 6.32468,2.20244 12.81613,8.78314 18.81535,2.44056 15.78086,-9.73038 34.15342,-15.82488 47.2925,-29.27438 -3.74907,-18.17899 -15.79452,-35.18254 -23.13261,-52.66524 -46.51473,-92.95952 -91.3634,-191.5622 -120.47873,-291.65949 -10.72309,-31.50493 -23.92724,-69.469699 -58.05359,-81.906439 -7.7741,-2.308013 -15.96612,-2.751575 -24.03222,-2.750218 z"
       id="path4218"
       sodipodi:nodetypes="ccccccccccccccccccc"
       inkscape:connector-curvature="0" />
  </g>
</svg>
