#define nruter_width 6
#define nruter_height 9
static char nruter_bits[] = {
 0x1e,0x1f,0x03,0x03,0x27,0x3e,0x3c,0x3c,0x3e};
