<?xml version="1.0" encoding="UTF-8"?>
<svg xmlns="http://www.w3.org/2000/svg" xmlns:xlink="http://www.w3.org/1999/xlink" width="17pt" height="17pt" viewBox="0 0 17 17" version="1.1">
<g id="surface21757">
<path style=" stroke:none;fill-rule:evenodd;fill:currentcolor;fill-opacity:1;" d="M 8.5 0.289062 L 10.699219 0.289062 L 10.777344 3.003906 C 11.257812 3.203125 11.710938 3.464844 12.121094 3.78125 L 14.511719 2.488281 L 16.710938 6.300781 L 14.398438 7.722656 C 14.46875 8.238281 14.46875 8.761719 14.398438 9.277344 L 16.710938 10.699219 L 14.511719 14.511719 L 12.121094 13.21875 C 11.710938 13.535156 11.257812 13.796875 10.777344 13.996094 L 10.699219 16.710938 L 6.300781 16.710938 L 6.222656 13.996094 C 5.742188 13.796875 5.289062 13.535156 4.878906 13.21875 L 2.488281 14.511719 L 0.289062 10.699219 L 2.601562 9.277344 C 2.53125 8.761719 2.53125 8.238281 2.601562 7.722656 L 0.289062 6.300781 L 2.488281 2.488281 L 4.878906 3.78125 C 5.289062 3.464844 5.742188 3.203125 6.222656 3.003906 L 6.300781 0.289062 Z M 8.5 6.375 C 8.949219 6.375 9.386719 6.515625 9.75 6.78125 C 10.113281 7.042969 10.382812 7.417969 10.519531 7.84375 C 10.660156 8.269531 10.660156 8.730469 10.519531 9.15625 C 10.382812 9.582031 10.113281 9.957031 9.75 10.21875 C 9.386719 10.484375 8.949219 10.625 8.5 10.625 C 8.050781 10.625 7.613281 10.484375 7.25 10.21875 C 6.886719 9.957031 6.617188 9.582031 6.480469 9.15625 C 6.339844 8.730469 6.339844 8.269531 6.480469 7.84375 C 6.617188 7.417969 6.886719 7.042969 7.25 6.78125 C 7.613281 6.515625 8.050781 6.375 8.5 6.375 Z M 8.5 6.375 "/>
</g>
</svg>
